<svg width="20" height="18" viewBox="0 0 20 18" fill="none" xmlns="http://www.w3.org/2000/svg">
<path d="M14.4711 0.0130215C15.9508 0.0130215 17.3373 0.598987 18.3845 1.67109C19.4318 2.74319 20.0042 4.16687 20 5.6817C20 7.19653 19.4233 8.62021 18.3761 9.69231L10.3964 17.8307C10.2862 17.9436 10.1378 18 9.99364 18C9.84948 18 9.70108 17.9392 9.59084 17.8264L1.62817 9.67495C0.580899 8.60285 2.32169e-05 7.18351 2.32169e-05 5.66868C-0.00421676 4.15385 0.57242 2.73017 1.61969 1.65807C2.66273 0.590306 4.05344 0 5.52895 0C7.0087 0 8.40365 0.594647 9.45092 1.66675L10.0064 2.23535L10.5533 1.67543C11.6006 0.603328 12.9913 0.0130215 14.4711 0.0130215Z" fill="#C12125"/>
</svg>
