<svg width="40" height="40" viewBox="0 0 40 40" fill="none" xmlns="http://www.w3.org/2000/svg">
<path fill-rule="evenodd" clip-rule="evenodd" d="M20.0009 30C17.173 30 14.8846 27.7636 14.8846 25V14.5455H16.28V25C16.28 27.0091 17.9451 28.6364 20.0009 28.6364C22.0567 28.6364 23.7218 27.0091 23.7218 25V13.6364C23.7218 12.3818 22.68 11.3636 21.3963 11.3636C20.1125 11.3636 19.0707 12.3818 19.0707 13.6364V23.1818C19.0707 23.6818 19.4893 24.0909 20.0009 24.0909C20.5125 24.0909 20.9311 23.6818 20.9311 23.1818V14.5455H22.3265V23.1818C22.3265 24.4364 21.2846 25.4545 20.0009 25.4545C18.7172 25.4545 17.6753 24.4364 17.6753 23.1818V13.6364C17.6753 11.6273 19.3404 10 21.3963 10C23.4521 10 25.1172 11.6273 25.1172 13.6364V25C25.1172 27.7636 22.8288 30 20.0009 30Z" fill="#C12125"/>
<path d="M18.7756 0.538479C19.1832 0.512833 19.5916 0.5 20 0.5" stroke="#51B900"/>
</svg>
