<svg width="44" height="44" viewBox="0 0 44 44" fill="none" xmlns="http://www.w3.org/2000/svg">
<rect width="44" height="44" fill="#1A1919"/>
<path d="M19.5 30C19.5 30.8284 18.8284 31.5 18 31.5C17.1716 31.5 16.5 30.8284 16.5 30C16.5 29.1716 17.1716 28.5 18 28.5C18.8284 28.5 19.5 29.1716 19.5 30Z" stroke="white" stroke-linecap="round" stroke-linejoin="round"/>
<path d="M30.5 30C30.5 30.8284 29.8284 31.5 29 31.5C28.1716 31.5 27.5 30.8284 27.5 30C27.5 29.1716 28.1716 28.5 29 28.5C29.8284 28.5 30.5 29.1716 30.5 30Z" stroke="white" stroke-linecap="round" stroke-linejoin="round"/>
<path d="M11 12H14.3748L16.9059 26.7815H30.4051" stroke="white" stroke-linecap="round" stroke-linejoin="round"/>
<mask id="path-4-inside-1_3999_22592" fill="white">
<path d="M16.0002 23.4067H30.0594C30.157 23.4068 30.2516 23.373 30.327 23.3112C30.4025 23.2494 30.4542 23.1633 30.4734 23.0677L31.992 15.4744C32.0043 15.4131 32.0028 15.35 31.9877 15.2894C31.9725 15.2288 31.9442 15.1723 31.9046 15.124C31.865 15.0758 31.8151 15.0369 31.7587 15.0102C31.7022 14.9835 31.6405 14.9697 31.5781 14.9697H15.2188"/>
</mask>
<path d="M16.0002 22.4067C15.448 22.4067 15.0002 22.8544 15.0002 23.4067C15.0002 23.959 15.448 24.4067 16.0002 24.4067V22.4067ZM30.0594 23.4067L30.0601 22.4067H30.0594V23.4067ZM30.4734 23.0677L31.4539 23.2639L31.454 23.2638L30.4734 23.0677ZM31.992 15.4744L31.0115 15.2781L31.0115 15.2782L31.992 15.4744ZM31.5781 14.9697V15.9697L31.5788 15.9697L31.5781 14.9697ZM15.2188 13.9697C14.6665 13.9697 14.2188 14.4174 14.2188 14.9697C14.2188 15.522 14.6665 15.9697 15.2188 15.9697V13.9697ZM16.0002 24.4067H30.0594V22.4067H16.0002V24.4067ZM30.0587 24.4067C30.3876 24.407 30.7063 24.2932 30.9607 24.0848L29.6934 22.5376C29.7968 22.4529 29.9264 22.4066 30.0601 22.4067L30.0587 24.4067ZM30.9607 24.0848C31.2151 23.8765 31.3894 23.5864 31.4539 23.2639L29.4928 22.8714C29.5191 22.7403 29.5899 22.6223 29.6934 22.5376L30.9607 24.0848ZM31.454 23.2638L32.9726 15.6705L31.0115 15.2782L29.4928 22.8716L31.454 23.2638ZM32.9726 15.6706C33.0139 15.4642 33.0089 15.2513 32.9579 15.0471L31.0175 15.5317C30.9967 15.4486 30.9947 15.362 31.0115 15.2781L32.9726 15.6706ZM32.9579 15.0471C32.9069 14.8429 32.8112 14.6525 32.6777 14.4898L31.1314 15.7582C31.0771 15.6921 31.0382 15.6147 31.0175 15.5317L32.9579 15.0471ZM32.6777 14.4898C32.5442 14.3271 32.3763 14.196 32.186 14.1061L31.3313 15.9143C31.2539 15.8777 31.1857 15.8244 31.1314 15.7582L32.6777 14.4898ZM32.186 14.1061C31.9957 14.0162 31.7879 13.9696 31.5774 13.9697L31.5788 15.9697C31.4932 15.9698 31.4087 15.9508 31.3313 15.9143L32.186 14.1061ZM31.5781 13.9697H15.2188V15.9697H31.5781V13.9697Z" fill="white" mask="url(#path-4-inside-1_3999_22592)"/>
</svg>
