<svg width="44" height="44" viewBox="0 0 44 44" fill="none" xmlns="http://www.w3.org/2000/svg">
<path d="M26.2421 28.6587C24.4266 29.1095 22.5478 29.2495 20.6855 29.0726L20.426 29.0501L20.2589 29.2498C20.1533 29.3759 20.0531 29.4956 19.9584 29.609C19.2042 30.511 18.7741 31.0254 18.4684 31.3095C18.3893 31.3956 18.2937 31.465 18.1874 31.5137L18.1858 31.5142C18.1764 31.5173 18.1559 31.5241 18.0739 31.4976L18.0699 31.4963C18.0642 31.4945 18.0081 31.473 17.9631 31.2973C17.9463 31.2291 17.9356 31.1595 17.9312 31.0894C17.9293 31.0608 17.9287 31.0382 17.9286 31.0239V31.0093L17.9289 31.0024V30.9934L17.9331 28.9776L17.9341 28.4766H17.5016C16.656 28.2377 15.8868 27.7838 15.2689 27.1591C14.6511 26.5344 14.2057 25.7601 13.9762 24.912C13.568 23.3779 13.411 21.7877 13.5113 20.2034C13.5638 17.6487 14.0435 15.7151 15.2851 14.4251C16.1346 13.7032 17.1477 13.1999 18.2362 12.9592C19.5594 12.6295 20.9203 12.4754 22.2837 12.5007C23.6198 12.5072 24.95 12.6801 26.2434 13.0154C27.2042 13.2391 28.1916 13.6669 28.9311 14.3322C29.9873 15.2829 30.763 17.19 30.8286 20.2034C30.8682 22.021 30.8835 24.195 30.0303 25.8509C29.6592 26.571 29.1369 27.2024 28.4991 27.7019C27.8927 28.091 27.2306 28.3855 26.5355 28.5753C26.4193 28.6062 26.2421 28.6587 26.2421 28.6587Z" stroke="white" stroke-miterlimit="10"/>
<path d="M22.0351 15.5918C21.9703 15.5948 21.9091 15.6227 21.8643 15.6696C21.8195 15.7166 21.7944 15.779 21.7944 15.8439C21.7944 15.9088 21.8195 15.9712 21.8643 16.0182C21.9091 16.0651 21.9703 16.093 22.0351 16.096C24.5242 16.1151 26.5742 17.8501 26.5967 21.0326C26.5959 21.0653 26.6017 21.0978 26.6137 21.1282C26.6258 21.1586 26.6438 21.1863 26.6667 21.2096C26.6897 21.2329 26.717 21.2514 26.7473 21.2639C26.7775 21.2764 26.8099 21.2827 26.8426 21.2824C26.8753 21.2822 26.9076 21.2753 26.9376 21.2623C26.9676 21.2493 26.9947 21.2304 27.0172 21.2067C27.0398 21.183 27.0573 21.155 27.0688 21.1244C27.0803 21.0938 27.0856 21.0612 27.0842 21.0285H27.0834C27.0567 17.5993 24.8184 15.611 22.0351 15.5918Z" fill="white"/>
<path d="M25.3096 20.5047C25.3077 20.5373 25.3125 20.57 25.3235 20.6008C25.3345 20.6316 25.3517 20.6599 25.3738 20.6839C25.396 20.708 25.4228 20.7273 25.4526 20.7408C25.4824 20.7543 25.5146 20.7616 25.5473 20.7624C25.58 20.7632 25.6126 20.7574 25.643 20.7453C25.6734 20.7333 25.7011 20.7153 25.7244 20.6923C25.7477 20.6694 25.7661 20.642 25.7787 20.6117C25.7912 20.5815 25.7975 20.5491 25.7972 20.5164C25.8295 20.0585 25.7681 19.5989 25.6167 19.1656C25.4654 18.7323 25.2272 18.3345 24.9169 17.9963C24.6065 17.6582 24.2304 17.3869 23.8117 17.1991C23.3929 17.0113 22.9402 16.9108 22.4813 16.9039C22.4163 16.9025 22.3533 16.9263 22.3053 16.9702C22.2573 17.0141 22.2281 17.0747 22.2237 17.1396C22.2193 17.2045 22.2401 17.2685 22.2817 17.3185C22.3233 17.3685 22.3825 17.4005 22.4471 17.408C22.8429 17.4088 23.2343 17.4913 23.5967 17.6503C23.9592 17.8094 24.2849 18.0414 24.5536 18.3321C24.8223 18.6228 25.0281 18.9657 25.1582 19.3395C25.2882 19.7134 25.3398 20.11 25.3096 20.5047Z" fill="white"/>
<path d="M22.7612 23.9593C21.5884 23.6372 20.5799 22.8854 19.9365 21.8534C19.7183 21.5176 19.5337 21.1612 19.3853 20.7894C19.3294 20.6489 19.2894 20.5324 19.263 20.4492C19.2049 20.2675 19.1926 20.0779 19.2275 19.89C19.2686 19.6419 19.3953 19.4162 19.5856 19.2519L20.0395 18.8765L20.0472 18.8701C20.1458 18.7626 20.1316 18.5888 20.0587 18.4625C19.7835 17.9469 19.4555 17.4614 19.08 17.0137C18.9984 16.9144 18.9255 16.8258 18.8588 16.7337C18.7738 16.6133 18.6254 16.6983 18.5278 16.7512C18.2306 16.9296 17.9693 17.1619 17.7571 17.436C17.3895 17.8476 17.6469 18.3061 17.8299 18.7418C18.5081 20.6059 19.6514 22.2657 21.1514 23.5638L21.1526 23.5648C21.781 24.0647 22.4507 24.5104 23.1544 24.8972C23.6876 25.2106 24.2498 25.4718 24.8332 25.6773C25.0786 25.7484 25.3228 25.6782 25.5135 25.5011C25.7865 25.273 26.0149 24.9962 26.187 24.6848C26.253 24.5542 26.3044 24.418 26.178 24.3116C25.6915 23.8363 25.1186 23.4308 24.5328 23.0882C24.4392 23.0182 24.2537 22.9995 24.1756 23.1058L23.813 23.5749C23.6553 23.7727 23.4313 23.9068 23.1825 23.9522C23.108 23.9671 23.0323 23.9754 22.9564 23.977C22.9274 23.9776 22.7612 23.9593 22.7612 23.9593Z" stroke="white" stroke-miterlimit="10"/>
<path d="M22.8241 18.7641C23.625 18.8107 24.0133 19.2291 24.055 20.0882C24.0555 20.121 24.0625 20.1533 24.0758 20.1832C24.089 20.2131 24.1081 20.2401 24.132 20.2625C24.1558 20.2849 24.1839 20.3023 24.2146 20.3136C24.2454 20.325 24.278 20.33 24.3107 20.3284C24.3434 20.3269 24.3755 20.3187 24.405 20.3045C24.4344 20.2903 24.4608 20.2704 24.4824 20.2458C24.504 20.2212 24.5205 20.1925 24.5308 20.1615C24.5411 20.1304 24.545 20.0976 24.5424 20.0649C24.5608 19.8328 24.5306 19.5994 24.4537 19.3796C24.3767 19.1598 24.2547 18.9585 24.0955 18.7886C23.9362 18.6187 23.7433 18.4839 23.5289 18.3929C23.3146 18.3018 23.0836 18.2566 22.8508 18.2599C22.7856 18.2592 22.7226 18.2837 22.6751 18.3283C22.6275 18.3729 22.599 18.4341 22.5956 18.4992C22.5921 18.5643 22.614 18.6283 22.6566 18.6776C22.6991 18.727 22.7592 18.758 22.8241 18.7641Z" fill="white"/>
</svg>
