<svg xmlns="http://www.w3.org/2000/svg" xmlns:xlink="http://www.w3.org/1999/xlink" viewBox="0 0 774 444"><g style="clip-path:url(#a)"><path d="M320.52,125.24,334.1,139l28.08,28.37s6.78,7.78,8.95,8,6.51.89,7.78-4.48-4.22-9.82-4.22-9.82-46.29-49.58-48.9-51.28c-.38-.25-2.82-2.49-6.1-1.43-.89.28-3.48,1.8-4.31,3.57-.89,1.92-1.57,2.74-.23,5.93S320.52,125.24,320.52,125.24Z" style="fill:none;stroke:#fefefe;stroke-linecap:round;stroke-linejoin:round"/><line x1="319.08" y1="152.43" x2="334.1" y2="138.96" style="fill:none;stroke:#fefefe;stroke-linecap:round;stroke-linejoin:round"/><line x1="330.54" y1="135.36" x2="321.04" y2="141.49" style="fill:none;stroke:#fefefe;stroke-linecap:round;stroke-linejoin:round"/><path d="M330.21,142.45l-11.39-1.19a3.14,3.14,0,0,0-2.41,1.19c-1.11,1.28-3.15,4.44-3.49,6.14s-.74,3.59-.74,3.59" style="fill:none;stroke:#fefefe;stroke-linecap:round;stroke-linejoin:round"/><path d="M188.45,182.93l61.88-28L320.42,156c.13,0-2.93,6.13-4.46,8.94s-1.26,3.39-3.88,4-49.6,8.57-49.6,8.57" style="fill:none;stroke:#fefefe;stroke-linecap:round;stroke-linejoin:round"/><polyline points="271.68 180.03 314.18 171.82 318.82 174.24 304.63 196.85" style="fill:none;stroke:#fefefe;stroke-linecap:round;stroke-linejoin:round"/><path d="M249.72,155.18l.2-1.18,3.22-1.22,71-.33a4.82,4.82,0,0,1,2.84.79c1.82,1,6.68,3.92,6.68,3.92l-26.58,41.46" style="fill:none;stroke:#fefefe;stroke-linecap:round;stroke-linejoin:round"/><path d="M259.61,155.05s-20.93,8.75-31,13.19-23.39,11.17-23.39,11.17" style="fill:none;stroke:#fefefe;stroke-linecap:round;stroke-linejoin:round"/><path d="M86.07,316.57a2.33,2.33,0,0,1-.67.33l-20.5,9.22s-.51.25-4.68-.85-10.32-2.91-10.32-2.91" style="fill:none;stroke:#fefefe;stroke-linecap:round;stroke-linejoin:round"/><path d="M81.31,302.14s-13,1.6-17.08,2.37a16.38,16.38,0,0,0-7.91,3.9c-.89.89-11.09,10.86-14,13.93s-2.49,3.13-2.49,3.13v2.78" style="fill:none;stroke:#fefefe;stroke-linecap:round;stroke-linejoin:round"/><path d="M74.82,290.33l-16.28,4.35a4.6,4.6,0,0,0-2.29,1.66,5.83,5.83,0,0,0-.7,3.32l-.22,9.73" style="fill:none;stroke:#fefefe;stroke-linecap:round;stroke-linejoin:round"/><path d="M124.5,257.5c11.18-18,24.39-35.41,41.9-47.62,13.34-8.78,28.48-15,44.36-17a119.45,119.45,0,0,1,15.92-.94,110.63,110.63,0,0,0-31.42,4.62,106.88,106.88,0,0,0-41,23.72c-11.49,11-21.24,23.83-29.78,37.26" style="fill:#fefefe"/><path d="M71.53,265.47c15.37-1.49,32.32-2.78,47.74-3.62-15.37,1.5-32.32,2.78-47.74,3.62" style="fill:#fefefe"/><path d="M49.4,324.21c-.71.14-6.93,1.68-7.61,2.36s-.25,1.11.6,1.45,11.07,3.05,14.73,3,69.75,1.31,69.75,1.31" style="fill:none;stroke:#fefefe;stroke-linecap:round;stroke-linejoin:round"/><line x1="54.83" y1="335.24" x2="55.33" y2="330.88" style="fill:none;stroke:#fefefe;stroke-linecap:round;stroke-linejoin:round"/><path d="M50.27,314.37s-.33-.45-.87-1.22-.95-1.18-2-.15a5.05,5.05,0,0,0-1.18,3.89,8,8,0,0,0,.26,1.28" style="fill:none;stroke:#fefefe;stroke-linecap:round;stroke-linejoin:round"/><path d="M66.7,260.88l-17.3,2.65s-1.59.56-2.23,3.37-.77,4.47,0,5.62.88,2.68,2.23,2.8,17.89-.89,17.89-.89" style="fill:none;stroke:#fefefe;stroke-linecap:round;stroke-linejoin:round"/><path d="M123.39,218.08s-5.42,2.79-8.61,4.07-.25-.77-9.44,4.22S85.69,237.5,69.49,249.64,49.4,263.53,49.4,263.53" style="fill:none;stroke:#fefefe;stroke-linecap:round;stroke-linejoin:round"/><line x1="63.65" y1="266.37" x2="46.96" y2="267.87" style="fill:none;stroke:#fefefe;stroke-linecap:round;stroke-linejoin:round"/><line x1="64.3" y1="269.57" x2="46.96" y2="270.83" style="fill:none;stroke:#fefefe;stroke-linecap:round;stroke-linejoin:round"/><polyline points="68.33 276.5 53.24 277.71 50.05 275.33" style="fill:none;stroke:#fefefe;stroke-linecap:round;stroke-linejoin:round"/><line x1="71.04" y1="281.97" x2="62.42" y2="276.97" style="fill:none;stroke:#fefefe;stroke-linecap:round;stroke-linejoin:round"/><path d="M116.23,329l10.84.12s-.22,4.66-.57,6.45-.94,2.15-2.1,2.33c-.11,0-67.69-1.75-69.45-2s-12.77-3.12-14.68-3.63a5.92,5.92,0,0,1-2.53-1.11s.16-2.78.19-4.76,0-2.61,1.11-3.16a1.14,1.14,0,0,1,1.57.67" style="fill:none;stroke:#fefefe;stroke-linecap:round;stroke-linejoin:round"/><path d="M133,260.46s-3.81,21.61-4.3,32.5-1,20.17-1.17,27.49-.45,8.64-.45,8.64" style="fill:none;stroke:#fefefe;stroke-linecap:round;stroke-linejoin:round"/><path d="M145.32,311.84a54.8,54.8,0,0,1-9.89,2.73c-3.74.52-7.76,1-7.76,1" style="fill:none;stroke:#fefefe;stroke-linecap:round;stroke-linejoin:round"/><path d="M127.67,329.09s5.06-.73,11.78-2.44,9.88-2.61,9.88-2.61" style="fill:none;stroke:#fefefe;stroke-linecap:round;stroke-linejoin:round"/><line x1="127.79" y1="312.46" x2="140.95" y2="313.22" style="fill:none;stroke:#fefefe;stroke-linecap:round;stroke-linejoin:round"/><path d="M314.36,187.23l2.21,2.21a1.64,1.64,0,0,1-.58,1.47c-1.32,1.43-7.54,8.67-7.54,8.67" style="fill:none;stroke:#fefefe;stroke-linecap:round;stroke-linejoin:round"/><path d="M356.34,161.42s-5.82,7.61-8.63,10.4a20.55,20.55,0,0,1-7.08,4.51c-1.27.51-5.17,1.09-6.19.45s-3.86-3.19-4.23-3.44-15,14.7-15,14.7" style="fill:none;stroke:#fefefe;stroke-linecap:round;stroke-linejoin:round"/><path d="M366.41,171.82s-9.65-1.42-13.21-1.76l-3.56-.34" style="fill:none;stroke:#fefefe;stroke-linecap:round;stroke-linejoin:round"/><path d="M322.88,180.27s3.78,6.92,3.87,7.77a6,6,0,0,1-.51,3c-.38.51-4.55,2.26-6.38,3.92s-3.82,3.68-3.82,3.68l-.87,1" style="fill:none;stroke:#fefefe;stroke-linecap:round;stroke-linejoin:round"/><line x1="333.11" y1="207.36" x2="317.84" y2="196.85" style="fill:none;stroke:#fefefe;stroke-linecap:round;stroke-linejoin:round"/><path d="M310.82,196.85A58.58,58.58,0,0,0,323,205c6.13,2.81,7,3,10.67,2.29S448.23,188,448.23,188l51-8.53" style="fill:none;stroke:#fefefe;stroke-linecap:round;stroke-linejoin:round"/><path d="M531.17,159.64s-22,13.73-28.66,17.74-15.05,10.05-15.05,10.05" style="fill:none;stroke:#fefefe;stroke-linecap:round;stroke-linejoin:round"/><path d="M524.9,181.52,399.65,202.59s-45.1,7.46-57.7,9.34c-5.72.86-9.14,1.24-11.15,1.4a11.26,11.26,0,0,1-2.83.07" style="fill:none;stroke:#fefefe;stroke-linecap:round;stroke-linejoin:round"/><path d="M345.39,222.37a15.19,15.19,0,0,1-6.65-1.58c-6.4-3.77-20-14.78-31-21.66S283,183.24,269.08,179s-37.28-2.85-44.94-2.08-26.46,2.33-47.73,10.1-38.7,21.49-52.22,30.52a480.07,480.07,0,0,0-39.12,28.64c-12.5,10.31-18.62,16.28-18.62,16.28l-1.7,1.78a4.36,4.36,0,0,0-1.1,3.67c.42,2.12,2.38,3.65,4.69,8.59s17.14,33.76,17.14,33.76l1.62,3.15a2.56,2.56,0,0,1-.86,3H86s-3.07-.07-4.34-.07a11.44,11.44,0,0,0-2.56.34s-15.54,3.11-22.89,4c-6.4.8-6.58,1.63-6.58,1.63v-.05l-.24,1.87s12.52,3.73,15.41,3.86,51.41,1.35,51.41,1.35,1-24.52,1.33-30.52,1.33-21,3-29.06,1.82-8.26,1.82-8.26l11.78-1.25s6-14.73,11.09-21.58S162.52,214,185.1,205s45.27-9.15,62-3.77,33.3,17.28,42.71,26.13,11.29,10.49,11.29,10.49l66.16-10.41s12.59-2.35,14.5-3.5a72,72,0,0,0,6.47-5.2s.42-.47-.26-1.15a44.87,44.87,0,0,0-5.87-3.63s-5.11,3.56-5.19,3.51-.34,1.11-15.91,3.68-20.57,3-20.57,3Z" style="fill:none;stroke:#fefefe;stroke-linecap:round;stroke-linejoin:round"/><line x1="339.17" y1="221" x2="382.14" y2="213.96" style="fill:none;stroke:#fefefe;stroke-linecap:round;stroke-linejoin:round"/><path d="M350.24,222.85a39.07,39.07,0,0,0,6-3.11,20.91,20.91,0,0,0,2.79-2" style="fill:none;stroke:#fefefe;stroke-linecap:round;stroke-linejoin:round"/><path d="M364.26,216.89a38,38,0,0,1-3.62,2.63c-2,1.28-3.87,2.32-3.87,2.32" style="fill:none;stroke:#fefefe;stroke-linecap:round;stroke-linejoin:round"/><path d="M367.56,216.35s-2.24,1.85-3.3,2.53-3.39,2.3-3.39,2.3" style="fill:none;stroke:#fefefe;stroke-linecap:round;stroke-linejoin:round"/><path d="M372.41,215.55a7.43,7.43,0,0,1-2.08,1.93c-1.7,1.23-3.95,2.74-3.95,2.74" style="fill:none;stroke:#fefefe;stroke-linecap:round;stroke-linejoin:round"/><path d="M375.38,215.06s-.56.59-2.15,2.15a13.32,13.32,0,0,1-2.86,2.21" style="fill:none;stroke:#fefefe;stroke-linecap:round;stroke-linejoin:round"/><path d="M534.64,254.27l-96.34,7.25v-.85s32-24.2,46.6-34.77,44.23-30.69,64.81-41.43,39.47-14.34,71.81-15.57,47.89.32,65.1,9,28.69,15.29,28.69,15.29,4-3.32,5.87-4a21.82,21.82,0,0,1,6-1.46,7,7,0,0,1,3.83,1.7c.6.51,2.05,1.87,2.05,1.87L701.05,225.1s-.68,1-1.36,1-7.41-7.32-16.27-14-32-20.48-56-21.13-46.55,5.84-66.11,23.39A100.9,100.9,0,0,0,534.64,254.27Z" style="fill:none;stroke:#fefefe;stroke-linecap:round;stroke-linejoin:round"/><path d="M708.92,223.66h7.58s1.36.5,1.7,3.56S721,257.69,721,257.69a8,8,0,0,1-1.44,6.21c-2.21,2.73-23.12,25.82-23.12,25.82" style="fill:none;stroke:#fefefe;stroke-linecap:round;stroke-linejoin:round"/><path d="M696,273.55s8.33-7.93,8.41-8.18.94-1,.93-4.26-.22-33.93-.22-33.93" style="fill:none;stroke:#fefefe;stroke-linecap:round;stroke-linejoin:round"/><path d="M699.69,226.13s2.6,3.32,3.28,3.07,31.29-32.12,31.29-32.89a51.44,51.44,0,0,0-1.16-5" style="fill:none;stroke:#fefefe;stroke-linecap:round;stroke-linejoin:round"/><path d="M459.35,312.67c-4.59-11.23-9.46-23.83-13.84-35.23-1.5-3.88-3.06-8-4.46-11.77-.75-2.15,3.2-1.83,4.44-1.93,1.8,0,3.59.05,5.38.19-1.79-.08-3.58-.09-5.37,0-1,.12-4.76-.06-4.2,1.59q2.35,5.87,4.63,11.77c4.42,11.39,9.26,24,13.42,35.39" style="fill:#fefefe"/><path d="M501.39,256.78s-3.74,53.3-3.61,54.83S507.24,326,507.24,326a255.92,255.92,0,0,1,1-34.63c1.62-18.25,4.3-35.46,4.3-35.46" style="fill:none;stroke:#fefefe;stroke-linecap:round;stroke-linejoin:round"/><path d="M532.4,254.44a294.26,294.26,0,0,0-4.65,35.05c-1.35,19.61-1.49,34.86-1.49,34.86H512a1.6,1.6,0,0,1-1.79-1.65c0-1.78-.06-21.44,1.79-39.83s4.14-27.2,4.14-27.2" style="fill:none;stroke:#fefefe;stroke-linecap:round;stroke-linejoin:round"/><path d="M449.49,317.18s-13,8.95-13.27,10a47.27,47.27,0,0,0,0,6l17.63,1.51,70,.69a2.71,2.71,0,0,0,2.42-2.3,17.31,17.31,0,0,0,0-4.72s-68.94,1.33-72,1.09-18.06-1.79-18.06-1.79" style="fill:none;stroke:#fefefe;stroke-linecap:round;stroke-linejoin:round"/><line x1="525.33" y1="324.35" x2="526.23" y2="328.33" style="fill:none;stroke:#fefefe;stroke-linecap:round;stroke-linejoin:round"/><path d="M449.48,310.82l-23.09,12.53s-.89,1.41-4.34,1.67-85.4,1.24-85.4,1.24v6l85-1.5a15.92,15.92,0,0,0,4.72-1.34c2.81-1.22,23.1-12.24,23.1-12.24Z" style="fill:none;stroke:#fefefe;stroke-linecap:round;stroke-linejoin:round"/><path d="M567.63,157.79a12.4,12.4,0,0,0-10.72,1.85c-5.62,3.79-127.83,81.79-127.83,81.79s-32.66,18.66-41.59,22.38-34.12,8.34-40.54,9.12-7-.3-7.63,2.17,1.23,44.34,1.23,44.34h22.81l3.92-1.91s10.44-21.54,10.86-23.75S376.82,271,376.82,271" style="fill:none;stroke:#fefefe;stroke-linecap:round;stroke-linejoin:round"/><path d="M340.17,275.27,381,270.54s6.73-.81,17.79-6.73c7.14-3.82,103.07-65.91,103.07-65.91l57.49-35.47a15,15,0,0,1,4.17-1.19H565" style="fill:none;stroke:#fefefe;stroke-linecap:round;stroke-linejoin:round"/><path d="M566.1,177.31l-.44-17.67,2.89-2.34s15.66,3.15,18.22,3.48a13.56,13.56,0,0,0,4.17,0s1.93-18.38,1.92-26.3.15-19.66,1.08-31.83.82-24.26.82-25.7-3-2.13-3-2.13" style="fill:none;stroke:#fefefe;stroke-linecap:round;stroke-linejoin:round"/><path d="M600.22,167.3c-.51.19-34.56-7.66-34.56-7.66" style="fill:none;stroke:#fefefe;stroke-linecap:round;stroke-linejoin:round"/><path d="M551,163.47s4.69-16.69,9.45-23.51,6.79-11.07,7.8-22.56.75-12.68,4.49-23.32,5.85-17.46,5.76-18.73-2.89.26-4.93,2.22-10,10.9-15.71,28.78-5,30.9-5,30.9-2.06,15.57-1.87,18.55a46.25,46.25,0,0,1-.4,7.32" style="fill:none;stroke:#fefefe;stroke-linecap:round;stroke-linejoin:round"/><path d="M527.23,178.72s2.69-16.68,5.91-24.17,10.37-14.48,13-18.15S554,122.82,554,122.82" style="fill:none;stroke:#fefefe;stroke-linecap:round;stroke-linejoin:round"/><path d="M552.84,136.05s-2.52,3.58-2.78,6.73-2.51,22.91-2.51,22.91" style="fill:none;stroke:#fefefe;stroke-linecap:round;stroke-linejoin:round"/><path d="M539.2,171.05s.84-9.45,3.81-16.94a49.4,49.4,0,0,1,7.25-12.53" style="fill:none;stroke:#fefefe;stroke-linecap:round;stroke-linejoin:round"/><path d="M554.75,118.37s.91,6,2.36,5.77,6.19-15.5,11.21-18.48,11.58-1.85,16.51,0l4.94,1.84" style="fill:none;stroke:#fefefe;stroke-linecap:round;stroke-linejoin:round"/><path d="M576.92,75.17s1.41-1.87,5.41-2.12,7.49-.35,8.51.5,1,2.29,1,5.36-1.16,26.64-1.42,29.45-1.17,12.42-1.08,18.55a235,235,0,0,1-1.51,25.53c-.84,6.3-1.09,8.35-1.09,8.35" style="fill:none;stroke:#fefefe;stroke-linecap:round;stroke-linejoin:round"/><path d="M594.76,77s1.27-1.2,2.55,1.1,1.47,21.53.38,28.51-1.88,13.29-2.93,16.26a20.5,20.5,0,0,1-1.85,4.17" style="fill:none;stroke:#fefefe;stroke-linecap:round;stroke-linejoin:round"/><path d="M615.32,124.84s-12.47.21-16.92,1.22-5.5,1.78-5.5,1.78" style="fill:none;stroke:#fefefe;stroke-linecap:round;stroke-linejoin:round"/><path d="M606.71,155.65s8.74-21.71,9-21.79,14.56-.78,14.56-.78" style="fill:none;stroke:#fefefe;stroke-linecap:round;stroke-linejoin:round"/><path d="M640,123.19s-19.49.54-23.83,1.65-7.83,3-12.42,8.78-5.69,7.49-4.84,9.19,2,3.06,5.25,3.23,6.49,0,6.49,0" style="fill:none;stroke:#fefefe;stroke-linecap:round;stroke-linejoin:round"/><line x1="592.91" y1="137.97" x2="600.59" y2="137.67" style="fill:none;stroke:#fefefe;stroke-linecap:round;stroke-linejoin:round"/><line x1="592.86" y1="135.08" x2="603.28" y2="134.15" style="fill:none;stroke:#fefefe;stroke-linecap:round;stroke-linejoin:round"/><line x1="591.87" y1="151" x2="608.41" y2="156.11" style="fill:none;stroke:#fefefe;stroke-linecap:round;stroke-linejoin:round"/><path d="M600.87,170.21V166.3l11.19-14.82,16.84-16.41s1.61-3.17,7.05-8.08,11.74-9.51,26.37-11.31,42.64-2.94,42.89-2.94a6.25,6.25,0,0,1,3.24.68c1.19.76,1.11,2,.68,3.4s-4.75,16.09-7.47,21.28-9.51,15.5-9.51,15.5l-8.12,23" style="fill:none;stroke:#fefefe;stroke-linecap:round;stroke-linejoin:round"/><line x1="610.45" y1="155.65" x2="692.15" y2="153.6" style="fill:none;stroke:#fefefe;stroke-linecap:round;stroke-linejoin:round"/><path d="M614.16,152.37c2.82-2.22,6-4.84,9.74-4.89l11-.07c13,0,31.32-.15,44.15-.14h5.51A21,21,0,0,0,695,144.7a31.54,31.54,0,0,0,4.63-3,22.64,22.64,0,0,1-9.51,5.67c-3.08,1-7.83.78-11.07.93-12.77.12-31.19-.27-44.15-.36l-11-.13c-3.7-.17-7,2.91-9.74,4.59" style="fill:#fefefe"/><path d="M634.35,143.45s2.46-5.61,3.23-5.78,3.4-.27,3.58,1.18-1.7,5.52-1.7,5.52-.82,1.74-4.08,1.38C634,145.6,634.35,143.45,634.35,143.45Z" style="fill:none;stroke:#fefefe;stroke-linecap:round;stroke-linejoin:round"/><path d="M687.37,144.37c.09-.12,2.3-4.55,3.32-4.81s4.34-.09,4.34,1.36-2.08,4.25-2.08,4.25a5.18,5.18,0,0,1-3.7.63C687.38,145.27,687.37,144.37,687.37,144.37Z" style="fill:none;stroke:#fefefe;stroke-linecap:round;stroke-linejoin:round"/><line x1="628.9" y1="135.08" x2="702.6" y2="135.08" style="fill:none;stroke:#fefefe;stroke-linecap:round;stroke-linejoin:round"/><path d="M709.29,116.19l6.05-.4s1.53-.43,1.88,1.53-1.36,5.79-1.36,5.79-3.65,10.64-5.43,13.37a13.14,13.14,0,0,1-7.06,5.79,12.61,12.61,0,0,1-4.54.77" style="fill:none;stroke:#fefefe;stroke-linecap:round;stroke-linejoin:round"/><path d="M724,190.82a10.69,10.69,0,0,1-4.68,3.27c-1.83.45-4.23.16-5.4-1.48a.05.05,0,0,1,.07-.07,9.54,9.54,0,0,0,5.18.64c1.72-.23,3.35-1.41,4.76-2.43,0,0,.11,0,.07.07" style="fill:#fefefe"/><path d="M350.26,221.05c-2.27,1.62-5.57,2.49-8.1,1.1,2.09-.48,4-.17,6.07-.65a20.21,20.21,0,0,0,2-.54,0,0,0,0,1,0,.09" style="fill:#fefefe"/><ellipse cx="618.63" cy="284.7" rx="78.03" ry="77.1" style="fill:none;stroke:#fefefe;stroke-linecap:round;stroke-linejoin:round"/><ellipse cx="621.59" cy="285.9" rx="74.81" ry="75.9" style="fill:none;stroke:#fefefe;stroke-linecap:round;stroke-linejoin:round"/><path d="M218.29,219.78c42.71-1.56,78.57,31.05,80.09,72.83s-31.87,76.92-74.58,78.47S145.24,340,143.71,298.25,175.58,221.34,218.29,219.78Z" style="fill:none;stroke:#fefefe;stroke-linecap:round;stroke-linejoin:round"/><path d="M283.49,291.74c1.25,34.28-26.33,63.2-61.47,64.48s-64.75-25.56-66-59.83,26.33-63.21,61.47-64.49S282.24,257.47,283.49,291.74Z" style="fill:none;stroke:#fefefe;stroke-linecap:round;stroke-linejoin:round"/><path d="M179.76,311.48l-7.4,16.87a50.22,50.22,0,0,0,9.9,11,81.5,81.5,0,0,0,11.27,7.74s10.77-6.36,14-8a6.68,6.68,0,0,0,3.91-4.81c.48-1.31,1.47-17,1.47-17l-15.07-11.88Zm28.89,9.29c.13,1.68-3.68,12.71-4.82,13.91s-6.55,4.66-6.55,4.66a38.67,38.67,0,0,1-6.62-4.29c-3.8-3-9.31-9.5-9.31-9.5s2.31-8.64,2.81-9.18,12.29-6.16,13.35-6.07S208.51,319.09,208.65,320.77Z" style="fill:none;stroke:#fefefe;stroke-linecap:round;stroke-linejoin:round"/><path d="M166.58,270c-2,.46-5.16,9.91-5.78,14.6a102.78,102.78,0,0,0-.56,12.17c0,1.2,3.64,3.14,7.13,4.82s10.18,4.54,10.18,4.54,18.17-4.05,19.39-6.43,2.92-16.95,2.87-18.38S185,268.37,183.9,268,168.54,269.5,166.58,270Zm17,6c1.32.21,8.64,5.64,10,7s1.65,1.37,1.34,3.56-2.57,12.3-2.57,12.3l-2.09.55c-2.08.55-9.63,3.13-12.28,2.71s-6.68-4.28-6.68-4.28a40.46,40.46,0,0,1-.31-8.4c.28-5.05,2.54-11.13,3.33-11.16S182.21,275.73,183.54,275.94Z" style="fill:none;stroke:#fefefe;stroke-linecap:round;stroke-linejoin:round"/><path d="M235.47,310.74c-2,.25-17.77,6.32-18,7s-.67,3.25-1.57,7.25a94.21,94.21,0,0,0-1.32,11.63s7.11,11.49,8.86,13.67,3,2.74,3.79,2.71a114.64,114.64,0,0,0,17.4-4.51c6.58-2.44,9.21-4.88,9.21-4.88a6.54,6.54,0,0,0,.43-2.77c-.07-1.73-1.62-15-1.68-16.63s-2.52-3.87-4-5.2-10.2-7.3-10.2-7.3A3.21,3.21,0,0,0,235.47,310.74Zm-.55,6.33c1.14.13,9.81,8.62,10.38,9.63s.87,9.21.36,9.84-8.86,4.82-12.78,5.92-5.31,1.32-5.93.92-6.73-6.32-6.73-6.32.07-14.09.56-14.8S233.77,316.94,234.92,317.07Z" style="fill:none;stroke:#fefefe;stroke-linecap:round;stroke-linejoin:round"/><path d="M246.44,286.14c-2.92,1.15-3.74,2.09-4.55,3.4s-2.8,15-2.8,15a15,15,0,0,0,.11,3,5.05,5.05,0,0,0,1.14,2s10.59,8.48,12.76,9.95a6.32,6.32,0,0,0,4.1,1.21s16.69-1.92,17.53-2.28,2.44-3.46,4.29-10.2a65.83,65.83,0,0,0,2-16.54c0-2.33-1.64-3.44-3.66-4.59s-14.13-6.08-15.25-6S249.36,285,246.44,286.14Zm23.19,8.79s-1.79,10.24-2.64,13.84-1.38,5.23-1.38,5.23-8.24,1.8-9.83,1.54-9-5.69-10.06-6.43a10.19,10.19,0,0,1-2.37-1.79c-.15-.38,1.21-11.52,1.77-12.51s.59-1.77,1.24-2.12,12.31-3.76,13-3.79S269.63,294.93,269.63,294.93Z" style="fill:none;stroke:#fefefe;stroke-linecap:round;stroke-linejoin:round"/><path d="M234.13,247.66c-3.85,2.73-5.25,4.21-5.48,5.06s-1.71,8.75-2.14,11.49-.56,7.93-.56,7.93a74.05,74.05,0,0,0,8,7.8c4.15,3.34,6.79,5.12,7.64,5.09s17.74-6.63,19.2-8,8.54-16.46,8.15-17.94-6.72-8.82-11.59-12.2-10.12-6.36-10.82-6.46S238,244.92,234.13,247.66ZM250,259.18c2.52,2.11,7.09,6.37,7.51,6.92s.23,1,.06,1.67-2.51,6.84-2.51,6.84a4.1,4.1,0,0,1-1.14,1.27c-.7.48-11.28,5-11.28,5a4.93,4.93,0,0,1-1.77.06,5.15,5.15,0,0,1-1.56-1.23s-7.61-6.13-8-6.64-1.23-1.12-1.19-2,2.75-10.8,3.11-11.91.54-1.19,1.19-1.6,5.93-3.46,6.51-3.74S247.52,257.07,250,259.18Z" style="fill:none;stroke:#fefefe;stroke-linecap:round;stroke-linejoin:round"/><path d="M207.19,236.09c-3.91,1.12-11.65,3.75-16.23,6.32s-4.84,2.84-5.07,3.62,2.22,18.72,2.22,18.72,7.67,7.81,10.61,10.62,3.47,3.1,4.66,3.06,15.12-5,16.23-5.73,2.76-.82,3.44-3.76,2.53-15.19,2.53-15.19a4.94,4.94,0,0,0-.42-3.49c-1-1.45-9.59-13.77-10.14-14.46S211.1,235,207.19,236.09ZM219,255.74s-1,13.13-1.25,13.66-2.4,1.64-6.62,3.1a76.72,76.72,0,0,1-7.43,2.16,6.35,6.35,0,0,1-2-1.49c-1.37-1.3-8.28-8.11-8.28-8.11a6.56,6.56,0,0,1-.08-2.13c.16-1.18.53-7.41.53-7.41a22,22,0,0,1,5.86-3.27A122.65,122.65,0,0,1,212,248.1C212.58,248.08,219,255.74,219,255.74Z" style="fill:none;stroke:#fefefe;stroke-linecap:round;stroke-linejoin:round"/><path d="M219,288a6.09,6.09,0,1,1-6,6.31A6.14,6.14,0,0,1,219,288Z" style="fill:none;stroke:#fefefe;stroke-linecap:round;stroke-linejoin:round"/><path d="M218.94,282.19a12,12,0,1,1-11.76,12.44A12.1,12.1,0,0,1,218.94,282.19Z" style="fill:none;stroke:#fefefe;stroke-linecap:round;stroke-linejoin:round"/><path d="M193.73,265.33a45.77,45.77,0,0,1,11.51-6.69A39.56,39.56,0,0,1,219,256.28" style="fill:none;stroke:#fefefe;stroke-linecap:round;stroke-linejoin:round"/><path d="M233.39,258.91a46.34,46.34,0,0,1,12.46,7.45,60.18,60.18,0,0,1,8.3,9.38" style="fill:none;stroke:#fefefe;stroke-linecap:round;stroke-linejoin:round"/><path d="M259.19,288.92a46.88,46.88,0,0,1,.58,13.81,41,41,0,0,1-3.94,12.81" style="fill:none;stroke:#fefefe;stroke-linecap:round;stroke-linejoin:round"/><path d="M245.7,328.83a60.84,60.84,0,0,1-10.54,6.28,42.7,42.7,0,0,1-14.06,2.8" style="fill:none;stroke:#fefefe;stroke-linecap:round;stroke-linejoin:round"/><path d="M198,332.27l1.43.73,4,2.08" style="fill:none;stroke:#fefefe;stroke-linecap:round;stroke-linejoin:round"/><path d="M198.1,310.58c.44,2.66,1.27,8.13,1.58,13,.43,6.73-.58,8.77-3,9.54s-9.58-6.3-11.06-8.32c-.9-1.23-2.09-3.11-2.88-4.39" style="fill:none;stroke:#fefefe;stroke-linecap:round;stroke-linejoin:round"/><path d="M193.36,294c-1.63-4.07-4.55-11.23-5.84-13.56-1.84-3.33-6.81-3.56-8.85-1.67s-3.21,10.49-3.14,12.3a12.15,12.15,0,0,0,1,5.75,4.83,4.83,0,0,1-.61,4.54" style="fill:none;stroke:#fefefe;stroke-linecap:round;stroke-linejoin:round"/><path d="M618.93,348.05c-33.43-1.43-59.43-30.48-58-64.75s29.86-61,63.29-59.55,59.43,30.48,58,64.75S652.35,349.49,618.93,348.05Z" style="fill:none;stroke:#fefefe;stroke-linecap:round;stroke-linejoin:round"/><path d="M607.75,245.66l-15.83-8.5a48.78,48.78,0,0,0-11.5,8.78,80.09,80.09,0,0,0-8.4,10.35s5.36,11,6.74,14.25a6.56,6.56,0,0,0,4.38,4.18c1.24.56,16.45,2.74,16.45,2.74l12.71-13.74ZM596.49,273c-1.65,0-12.08-4.56-13.17-5.76a63.81,63.81,0,0,1-4-6.73,38,38,0,0,1,4.68-6.1c3.18-3.47,10-8.33,10-8.33s8.22,2.92,8.7,3.45S607.7,262,607.53,263,598.13,273,596.49,273Z" style="fill:none;stroke:#fefefe;stroke-linecap:round;stroke-linejoin:round"/><path d="M649.14,236.05c-.3-1.94-9.24-5.79-13.76-6.75a98.15,98.15,0,0,0-11.78-1.48c-1.18-.09-3.34,3.29-5.25,6.56s-5.2,9.55-5.2,9.55,2.53,18,4.75,19.35,16.27,4.15,17.66,4.21,13.71-13.44,14.13-14.45S649.44,238,649.14,236.05Zm-7.12,16c-.31,1.27-6.15,8-7.59,9.18s-1.46,1.5-3.56,1-11.77-3.45-11.77-3.45l-.37-2.07c-.37-2.07-2.3-9.61-1.69-12.15s4.68-6.17,4.68-6.17a39.79,39.79,0,0,1,8.19.35c4.89.67,10.63,3.33,10.6,4.1S642.33,250.81,642,252.08Z" style="fill:none;stroke:#fefefe;stroke-linecap:round;stroke-linejoin:round"/><path d="M604.16,299.89c-.08-2-4.77-17.77-5.37-18.05s-3.11-.9-6.94-2.09a92.35,92.35,0,0,0-11.2-2.18s-11.72,6-14,7.55-2.9,2.71-2.93,3.48a110.61,110.61,0,0,0,3,17.27c1.87,6.59,4,9.34,4,9.34a6.39,6.39,0,0,0,2.66.62c1.69.07,14.72-.41,16.3-.34s4-2.15,5.36-3.46,7.9-9.36,7.9-9.36A3.12,3.12,0,0,0,604.16,299.89Zm-6.11-1c-.21,1.11-9.14,8.88-10.17,9.36s-9,.13-9.59-.41-4-9-4.77-12.89-.88-5.26-.43-5.84,6.66-6.06,6.66-6.06,13.69,1.17,14.34,1.7S598.27,297.76,598.05,298.86Z" style="fill:none;stroke:#fefefe;stroke-linecap:round;stroke-linejoin:round"/><path d="M627.23,312.46c-.89-2.93-1.73-3.8-2.94-4.68S610,303.9,610,303.9a14.2,14.2,0,0,0-3-.13,5,5,0,0,0-2,1s-9.06,9.65-10.66,11.64a6.19,6.19,0,0,0-1.49,3.89s.58,16.38.86,17.23,3.17,2.64,9.59,5a64.17,64.17,0,0,0,15.93,3.18c2.27.15,3.47-1.34,4.75-3.21s7-13.27,7-14.36S628.12,315.39,627.23,312.46ZM616.9,334.33s-9.82-2.53-13.26-3.64-5-1.75-5-1.75-1.11-8.14-.73-9.67,6.22-8.29,7-9.28,1.54-2.06,1.93-2.17,11.1,2.07,12,2.69,1.67.71,2,1.36,2.71,12.27,2.69,12.91S616.9,334.33,616.9,334.33Z" style="fill:none;stroke:#fefefe;stroke-linecap:round;stroke-linejoin:round"/><path d="M665.61,303.46c-2.36-3.95-3.69-5.42-4.5-5.72s-8.38-2.34-11-3-7.66-1.16-7.66-1.16a72.09,72.09,0,0,0-8.21,7.18c-3.57,3.77-5.5,6.2-5.54,7s5.08,17.76,6.34,19.29,15.34,9.58,16.81,9.32,9.09-5.86,12.76-10.33,7-9.35,7.12-10S668,307.42,665.61,303.46Zm-12.43,14.59c-2.25,2.28-6.74,6.4-7.32,6.76s-.94.15-1.63-.07-6.45-3-6.45-3a4,4,0,0,1-1.15-1.2c-.41-.73-4-11.35-4-11.35a4.88,4.88,0,0,1,.08-1.73,5.23,5.23,0,0,1,1.32-1.43s6.55-6.92,7.07-7.22,1.18-1.11,2-1,10.28,3.52,11.34,3.94,1.11.63,1.46,1.29,2.91,6,3.14,6.62S655.42,315.76,653.18,318.05Z" style="fill:none;stroke:#fefefe;stroke-linecap:round;stroke-linejoin:round"/><path d="M678.94,278.16c-.79-3.89-2.75-11.62-4.89-16.27s-2.38-4.92-3.13-5.21-18.37.71-18.37.71-8.2,6.85-11.15,9.5-3.29,3.14-3.33,4.29,3.66,15.1,4.31,16.23.58,2.75,3.39,3.63,14.58,3.64,14.58,3.64a4.81,4.81,0,0,0,3.42-.14c1.49-.82,14.13-8.26,14.85-8.74S679.74,282.05,678.94,278.16Zm-20,10s-12.69-2-13.19-2.26-1.41-2.46-2.5-6.69a74.33,74.33,0,0,1-1.52-7.39A5.88,5.88,0,0,1,643.3,270c1.38-1.23,8.53-7.43,8.53-7.43a6.35,6.35,0,0,1,2.08.09c1.13.24,7.17,1.09,7.17,1.09a21.76,21.76,0,0,1,2.72,5.95,119.64,119.64,0,0,1,3.09,12.21C666.87,282.48,658.92,288.12,658.92,288.12Z" style="fill:none;stroke:#fefefe;stroke-linecap:round;stroke-linejoin:round"/><path d="M627.51,285.62a5.94,5.94,0,1,1-5.67-6.28A6,6,0,0,1,627.51,285.62Z" style="fill:none;stroke:#fefefe;stroke-linecap:round;stroke-linejoin:round"/><path d="M633.21,286A11.71,11.71,0,1,1,622,273.62,11.8,11.8,0,0,1,633.21,286Z" style="fill:none;stroke:#fefefe;stroke-linecap:round;stroke-linejoin:round"/><path d="M651.55,262.81a44.7,44.7,0,0,1,5.62,11.71A38.3,38.3,0,0,1,658.39,288" style="fill:none;stroke:#fefefe;stroke-linecap:round;stroke-linejoin:round"/><path d="M654.72,301.87a44.93,44.93,0,0,1-8.2,11.54,59,59,0,0,1-9.77,7.35" style="fill:none;stroke:#fefefe;stroke-linecap:round;stroke-linejoin:round"/><path d="M623.55,324.64a45.56,45.56,0,0,1-13.48-.5,40.12,40.12,0,0,1-12.15-4.82" style="fill:none;stroke:#fefefe;stroke-linecap:round;stroke-linejoin:round"/><path d="M585.78,308.44a59.92,59.92,0,0,1-5.29-10.73,41.56,41.56,0,0,1-1.63-13.9" style="fill:none;stroke:#fefefe;stroke-linecap:round;stroke-linejoin:round"/><path d="M586.13,261.78l-.83,1.33c-.83,1.34-2.33,3.71-2.33,3.71" style="fill:none;stroke:#fefefe;stroke-linecap:round;stroke-linejoin:round"/><path d="M607.21,263.56c-2.63.22-8,.61-12.75.54-6.57-.11-8.48-1.25-9.05-3.61s6.87-8.82,9-10.11c1.27-.78,3.19-1.79,4.49-2.46" style="fill:none;stroke:#fefefe;stroke-linecap:round;stroke-linejoin:round"/><path d="M623.73,260.24c4.09-1.27,11.28-3.56,13.65-4.63,3.37-1.53,4-6.35,2.3-8.48s-9.95-3.93-11.72-4a11.88,11.88,0,0,0-5.67.53,4.7,4.7,0,0,1-4.36-.93" style="fill:none;stroke:#fefefe;stroke-linecap:round;stroke-linejoin:round"/><polyline points="526.4 319.44 539.28 319.44 551.97 324.8" style="fill:none;stroke:#fefefe;stroke-linecap:round;stroke-linejoin:round"/><path d="M449.48,310.82a4.77,4.77,0,0,0-1.69-2.38,41.35,41.35,0,0,0-5.42-2.13s-3.59-11.23-5.26-18.12-2.32-25.66-2.32-25.66l3.51-1" style="fill:none;stroke:#fefefe;stroke-linecap:round;stroke-linejoin:round"/><path d="M366.88,317.73s48.85,1,49.19.71,3-.22,4.93-1.26,21.13-10.43,21.13-10.43" style="fill:none;stroke:#fefefe;stroke-linecap:round;stroke-linejoin:round"/><path d="M436.22,333.15s-13.58.84-35,1.2-65.19,0-65.19,0-2.89,1.61-3.4-.52-2.08-35.15-10.62-58.56a135.19,135.19,0,0,0-20.84-37.42" style="fill:none;stroke:#fefefe;stroke-linecap:round;stroke-linejoin:round"/><path d="M340.17,273.62s-11.2-.55-14.56-3.82c-2.95-2.88-2.79-7-3.3-9.41S319.62,235,319.62,235" style="fill:none;stroke:#fefefe;stroke-linecap:round;stroke-linejoin:round"/><path d="M339.32,275.1a61.48,61.48,0,0,1-12.75-2.46c-5.74-1.85-5.53-8-6.95-17.52s-1.78-19.89-1.78-19.89" style="fill:none;stroke:#fefefe;stroke-linecap:round;stroke-linejoin:round"/><polyline points="295.13 319.44 308.59 327.13 313.36 327.13 331.93 327.13" style="fill:none;stroke:#fefefe;stroke-linecap:round;stroke-linejoin:round"/><path d="M331.14,319.44s-15.23.16-17.61-1-16-7.66-16-7.66" style="fill:none;stroke:#fefefe;stroke-linecap:round;stroke-linejoin:round"/></g></svg>