<svg width="327" height="190" viewBox="0 0 327 190" fill="none" stroke="#fff" stroke-width="1px"  xmlns="http://www.w3.org/2000/svg">
<path d="M179.189 189.782C178.162 189.782 177.217 189.659 176.272 189.411C176.149 189.37 162.017 187.105 154.787 184.511C151.09 183.193 148.256 177.345 147.188 168.943C145.996 159.718 147.105 149.011 150.227 138.797C156.677 117.753 163.866 102.227 191.76 109.434C191.801 109.434 198.373 110.71 203.344 119.853C206.384 125.001 208.233 131.879 208.643 139.786C208.767 141.186 208.849 142.627 208.89 144.11C208.767 145.922 208.602 147.693 208.397 149.464C208.233 151.194 208.027 152.882 207.74 154.529C206.138 164.413 202.399 173.474 197.264 179.981C192.252 186.323 186.378 189.782 180.668 189.7C180.627 189.7 180.627 189.7 180.586 189.7C180.175 189.782 179.682 189.782 179.189 189.782ZM179.682 107.869C173.027 107.786 167.769 109.598 163.537 113.346C157.581 118.618 154.007 127.348 150.515 138.839C147.393 149.052 146.325 159.718 147.475 168.902C148.543 177.221 151.296 182.987 154.911 184.264C162.1 186.858 176.19 189.123 176.354 189.164C177.71 189.494 179.189 189.576 180.75 189.453C180.75 189.453 180.791 189.453 180.832 189.453C186.46 189.535 192.294 186.117 197.264 179.816C202.399 173.309 206.097 164.331 207.699 154.447C207.945 152.841 208.192 151.152 208.356 149.423C208.561 147.652 208.726 145.881 208.849 144.069C208.808 142.627 208.685 141.145 208.602 139.745C208.192 131.879 206.384 125.001 203.344 119.935C198.415 110.916 191.965 109.64 191.883 109.64C187.282 108.528 183.256 107.91 179.682 107.869Z" />
<path d="M193.074 163.957C193.074 163.957 191.02 168.981 188.021 171.658L188.72 174.953C188.72 174.953 191.061 173.306 193.608 169.723C196.155 166.14 196.607 164.822 196.525 164.739C196.443 164.657 193.074 163.957 193.074 163.957Z" />
<path d="M203.919 136.367C203.426 136.408 200.304 138.302 200.304 138.302C201.865 144.727 199.811 154.569 199.811 154.569L200.14 153.458C200.345 152.14 201.044 148.063 201.167 149.051C201.29 149.998 200.099 154.775 200.386 154.94C200.674 155.105 202.974 156.134 203.139 155.97C203.262 155.805 204.289 156.464 204.946 146.868C205.562 137.231 204.33 136.325 203.919 136.367Z" />
<path d="M191.636 117.836C191.143 117.753 190.445 120.513 190.404 120.76C190.404 120.76 193.814 121.913 197.387 128.585C197.387 128.585 197.346 128.832 197.922 128.791C198.497 128.749 200.838 127.72 201.167 126.567C201.126 126.608 198.538 119.318 191.636 117.836Z" />
<path d="M176.19 125.329C173.068 128.954 173.15 130.313 173.191 131.548C173.766 129.736 175.245 127.924 177.792 125C181.407 120.882 183.009 121.335 183.009 121.335C182.845 121.582 182.681 121.746 182.681 121.746L183.749 120.84C184.981 119.729 184.447 118.658 184.447 118.658C182.311 118.534 179.271 121.746 176.19 125.329Z" />
<path d="M181.654 177.798C182.968 179.404 181.202 178.457 181.202 178.457C176.437 177.345 172.452 172.279 172.452 172.279C172.452 172.279 172.452 173.062 174.383 174.833C176.313 176.604 181.695 181.01 182.311 181.051C182.968 181.134 183.133 180.022 183.133 180.022C183.133 179.198 181.489 177.633 181.654 177.798Z" />
<path d="M180.545 152.595C180.71 152.512 180.751 152.43 180.751 152.43C180.71 152.43 180.668 152.512 180.545 152.595Z" />
<path d="M179.97 146.951C178.203 146.127 171.384 142.709 169.576 142.091C168.96 141.885 168.714 142.297 168.426 143.656C168.138 145.015 167.522 149.216 167.399 151.769C167.276 154.322 167.563 163.383 168.755 163.712C168.755 163.712 173.356 158.894 175.163 157.288C176.765 155.887 179.682 153.211 180.504 152.552C179.23 153.458 172.329 158.111 171.343 158.935C171.343 158.935 172.452 157.494 173.561 156.34C174.67 155.187 177.053 153.087 176.847 149.916C176.642 146.745 171.753 144.191 171.753 144.191C171.753 144.191 179.846 147.321 180.462 147.527C180.545 147.568 181.736 147.774 179.97 146.951ZM173.807 148.804C174.218 150.369 173.725 152.099 172.822 153.416C171.055 156.011 168.221 158.317 168.221 158.317C168.221 158.317 166.988 151.234 169.042 143.821C169.042 143.821 173.438 147.239 173.807 148.804Z" />
<path d="M198.417 154.491C198.417 154.491 198.373 154.491 198.373 154.447C198.417 154.491 198.417 154.491 198.417 154.491Z" />
<path d="M197.018 140.32C197.018 140.32 196.443 140.65 195.662 141.226C196.114 140.938 196.566 140.65 197.018 140.32Z" />
<path d="M185.885 144.766C184.529 144.601 183.215 146.496 182.927 148.925C182.64 151.355 183.543 153.497 184.899 153.661C186.255 153.826 187.61 151.973 187.857 149.502C188.103 147.031 187.241 144.931 185.885 144.766Z" />
<path d="M185.68 145.181C184.324 145.016 183.05 146.705 182.804 148.888C182.558 151.07 183.42 153.006 184.776 153.129C186.09 153.294 187.405 151.606 187.652 149.423C187.898 147.24 186.994 145.346 185.68 145.181Z" />
<path d="M185.803 145.386C184.57 145.262 183.379 146.827 183.133 148.969C182.886 151.069 183.708 152.922 184.94 153.046C186.173 153.169 187.405 151.604 187.652 149.463C187.857 147.363 187.035 145.509 185.803 145.386Z" />
<path d="M184.57 139.908C184.406 136.902 184.283 120.676 184.283 120.676L182.434 125.618C182.434 125.618 182.106 125.412 182.311 129.654C182.516 133.896 181.736 138.508 180.504 139.496C179.271 140.526 176.888 138.055 176.888 138.055C178.285 140.65 181.489 145.55 183.133 145.18C184.776 144.85 184.735 142.915 184.57 139.908ZM183.954 142.956C183.831 144.068 183.215 144.891 182.599 144.85C181.982 144.768 181.572 143.821 181.654 142.709C181.777 141.597 182.393 140.773 183.009 140.814C183.667 140.897 184.078 141.844 183.954 142.956Z" />
<path d="M195.416 131.301C194.923 131.795 187.61 142.585 187.2 135.131C187.2 135.131 185.721 140.361 186.419 142.915C186.337 142.585 186.337 142.256 186.337 141.844C186.46 140.732 187.076 139.908 187.693 139.95C188.309 140.032 188.761 140.979 188.637 142.091C188.514 143.203 187.898 144.027 187.282 143.986C186.994 143.944 186.748 143.738 186.583 143.368C186.748 143.697 186.912 143.944 187.159 144.109C187.159 144.109 188.144 144.645 189.952 141.721C191.76 138.797 197.141 132.619 198.209 131.26C198.209 131.26 195.909 130.807 195.416 131.301Z" />
<path d="M196.443 153.621C195.292 153.127 191.554 151.109 191.349 147.937C191.184 145.013 193.978 142.501 195.703 141.225C188.596 146.002 188.596 147.237 188.596 148.638C188.596 148.638 188.596 149.914 189.295 150.532C190.116 151.479 197.634 154.197 198.373 154.444C198.209 154.444 197.798 154.238 196.443 153.621ZM190.322 148.473C190.24 149.338 189.747 150.038 189.295 149.997C188.802 149.955 188.514 149.173 188.596 148.308C188.679 147.402 189.13 146.743 189.623 146.784C190.116 146.826 190.445 147.608 190.322 148.473Z" />
<path d="M188.103 153.373C188.103 153.373 187.159 153.043 186.625 153.949C186.625 153.949 185.146 155.144 186.501 162.392C186.501 162.392 186.583 158.15 189.089 158.15L196.114 164.163C196.114 164.122 189.418 154.197 188.103 153.373ZM188.391 155.597C188.309 156.503 187.816 157.162 187.364 157.121C186.871 157.079 186.583 156.297 186.666 155.432C186.748 154.526 187.241 153.867 187.693 153.908C188.186 153.949 188.473 154.691 188.391 155.597Z" />
<path d="M183.256 154.446C182.681 153.91 180.462 154.816 176.806 161.447C173.15 168.118 172.534 171.948 172.534 171.948C172.534 171.948 176.765 162.559 177.874 161.158C177.874 161.158 179.641 159.47 180.668 160.417C181.695 161.364 181.12 174.419 181.12 174.419C181.12 174.419 183.133 161.117 183.543 159.264C183.831 157.37 184.078 155.228 183.256 154.446ZM182.188 158.564C181.531 158.482 181.12 157.534 181.243 156.422C181.366 155.31 181.982 154.487 182.599 154.528C183.215 154.61 183.667 155.558 183.543 156.669C183.42 157.781 182.804 158.605 182.188 158.564Z" />
<path d="M180.627 148.061C180.134 148.02 179.641 148.514 179.394 149.296C179.6 148.761 179.928 148.432 180.257 148.473C180.75 148.514 181.038 149.296 180.955 150.161C180.873 151.067 180.38 151.726 179.928 151.685C179.641 151.644 179.435 151.397 179.312 151.026C179.435 151.644 179.764 152.056 180.175 152.097C180.832 152.179 181.407 151.314 181.531 150.203C181.654 149.091 181.243 148.143 180.627 148.061Z" />
<path d="M309.783 151.808C309.66 151.808 296.555 151.066 291.79 149.007C289.571 148.06 291.667 141.841 294.542 133.193C296.185 128.333 298.034 122.774 299.349 117.379C301.937 106.753 304.319 100.164 308.961 97.8578C311.508 96.5812 314.671 96.7459 318.533 98.352C318.656 98.3932 321.45 99.2993 323.422 105.477C324.654 108.936 325.311 113.755 325.229 119.026C325.229 120.014 325.229 120.838 325.229 121.662C325.106 123.35 324.942 124.998 324.736 126.686C324.695 126.974 324.654 127.304 324.613 127.592C323.298 137.558 320.792 144.518 317.218 148.307C315.288 150.696 313.275 151.849 311.344 151.643C310.769 151.725 310.276 151.767 309.783 151.808ZM312.782 97.2401C311.385 97.2401 310.153 97.4872 309.002 98.0638C304.484 100.329 302.019 107.165 299.554 117.42C298.239 122.856 296.391 128.375 294.748 133.234C291.995 141.43 289.859 147.895 291.831 148.719C296.596 150.737 309.619 151.478 309.742 151.478C310.235 151.437 310.728 151.396 311.221 151.314C313.028 151.52 315 150.408 316.89 148.06C320.464 144.312 322.929 137.353 324.243 127.469C324.284 127.18 324.325 126.851 324.366 126.563C324.572 124.874 324.736 123.268 324.859 121.579C324.859 120.797 324.859 119.932 324.859 118.944C324.9 113.713 324.243 108.936 323.052 105.477C321.121 99.464 318.369 98.5168 318.328 98.5168C316.315 97.7343 314.466 97.2813 312.782 97.2401Z" />
<path d="M317.794 104.488C315.37 111.86 315.206 118.985 315.206 118.985C315.575 113.507 317.794 104.488 317.794 104.488Z" />
<path d="M316.109 130.722C315.74 130.557 315.493 130.887 315.493 130.887C316.849 132.493 317.465 134.305 317.629 134.552C318.04 134.675 319.026 135.005 319.026 135.005C318.944 134.634 318.287 133.522 318.287 133.522C318.287 133.522 316.479 130.928 316.109 130.722Z" />
<path d="M317.588 134.635C317.588 134.635 316.561 137.971 315.164 139.7L315.37 141.883C315.37 141.883 316.438 140.812 317.67 138.465C318.862 136.117 319.108 135.253 319.067 135.211C319.067 135.129 317.588 134.635 317.588 134.635Z" />
<path d="M323.093 116.434C322.887 116.434 321.45 117.669 321.45 117.669C321.984 121.952 320.833 128.5 320.833 128.5L320.998 127.759C321.121 126.853 321.532 124.176 321.573 124.835C321.614 125.494 320.957 128.624 321.08 128.747C321.203 128.871 322.189 129.571 322.271 129.447C322.353 129.324 322.764 129.777 323.298 123.394C323.791 117.01 323.257 116.434 323.093 116.434Z" />
<path d="M318.122 103.995C317.917 103.913 317.547 105.725 317.506 105.931C317.506 105.931 318.985 106.754 320.382 111.202C320.382 111.202 320.382 111.367 320.628 111.367C320.875 111.367 321.943 110.667 322.107 109.925C322.107 109.925 321.162 105.024 318.122 103.995Z" />
<path d="M311.139 108.773C309.701 111.12 309.66 112.026 309.66 112.85C309.947 111.656 310.646 110.461 311.837 108.567C313.521 105.849 314.22 106.178 314.22 106.178C314.137 106.343 314.055 106.467 314.055 106.467L314.548 105.89C315.123 105.19 314.918 104.449 314.918 104.449C314.014 104.325 312.617 106.425 311.139 108.773Z" />
<path d="M312.207 143.695C312.741 144.766 312.001 144.107 312.001 144.107C309.947 143.283 308.304 139.906 308.304 139.906C308.304 139.906 308.263 140.4 309.085 141.636C309.906 142.83 312.124 145.837 312.412 145.878C312.7 145.919 312.782 145.219 312.782 145.219C312.823 144.642 312.166 143.572 312.207 143.695Z" />
<path d="M312.371 126.934C312.454 126.85 312.454 126.809 312.454 126.85C312.454 126.85 312.413 126.85 312.371 126.934Z" />
<path d="M312.248 123.185C311.508 122.608 308.551 120.261 307.811 119.849C307.524 119.684 307.441 119.972 307.277 120.878C307.113 121.784 306.743 124.585 306.62 126.273C306.497 127.962 306.414 133.974 306.907 134.222C306.907 134.222 309.085 131.05 309.906 130.021C310.646 129.115 312.001 127.385 312.371 126.932C311.796 127.509 308.633 130.515 308.181 131.05C308.181 131.05 308.715 130.103 309.208 129.362C309.701 128.621 310.81 127.262 310.81 125.12C310.81 123.02 308.715 121.249 308.715 121.249C308.715 121.249 312.207 123.432 312.453 123.596C312.494 123.596 313.028 123.761 312.248 123.185ZM309.495 124.338C309.619 125.408 309.372 126.52 308.92 127.385C308.099 129.074 306.743 130.597 306.743 130.597C306.743 130.597 306.373 125.903 307.482 120.961C307.524 120.961 309.372 123.267 309.495 124.338Z" />
<path d="M319.642 112.972C319.686 112.928 319.686 112.928 319.642 112.972C319.686 112.972 319.686 112.972 319.642 112.972Z" />
<path d="M319.314 119.563C319.519 119.357 319.724 119.192 319.93 118.986C319.93 118.986 319.683 119.192 319.314 119.563Z" />
<path d="M313.686 128.087C313.398 127.676 312.864 128.417 312.864 128.417C313.11 128.211 313.439 128.252 313.439 128.252C313.85 128.417 313.562 130.394 313.562 130.394C313.316 131.67 312.248 140.854 312.125 141.06C312.001 141.307 312.248 139.66 312.453 136.242C312.617 132.824 312.371 132.165 312.042 131.959C311.714 131.753 310.974 132.618 310.974 132.618C311.139 132.494 311.18 132.618 311.18 132.618C311.673 133.771 310.563 142.625 310.563 142.625C310.563 142.625 311.426 142.955 312.042 143.325C312.659 143.696 312.905 144.973 312.905 144.973C312.987 144.396 313.069 141.06 313.069 139.742C313.11 138.424 313.48 133.153 313.809 130.806C314.179 128.458 313.686 128.087 313.686 128.087Z" />
<path d="M309.331 136.364C311.385 130.392 312.7 128.58 312.7 128.58C310.769 130.557 309.126 135.787 308.961 137.064C308.756 138.382 309.331 136.364 309.331 136.364Z" />
<path d="M317.095 130.023C316.684 129.282 315.945 127.305 315.534 127.346C315.164 127.388 315 127.882 315 127.882C315.123 127.635 315.288 127.47 315.575 127.552C315.863 127.676 317.218 131.135 317.67 132.041C318.122 132.988 319.108 134.924 319.108 134.924C319.724 135.13 320.546 136.16 320.546 136.16C320.464 135.707 319.971 134.759 319.478 134.059C319.026 133.4 317.506 130.765 317.095 130.023Z" />
<path d="M314.877 122.197C314.343 122.074 313.768 123.144 313.603 124.545C313.439 125.945 313.768 127.18 314.302 127.263C314.836 127.386 315.411 126.316 315.575 124.915C315.74 123.556 315.411 122.321 314.877 122.197Z"  stroke="white" stroke-width="0.3016" stroke-miterlimit="10"/>
<path d="M314.836 105.766L313.891 109.06C313.891 109.06 313.727 108.937 313.727 111.737C313.727 114.538 313.234 117.585 312.659 118.244C312.083 118.903 311.098 117.256 311.098 117.256C311.673 118.985 312.946 122.28 313.686 122.074C314.425 121.827 314.466 120.55 314.466 118.574C314.507 116.556 314.836 105.766 314.836 105.766ZM314.137 120.592C314.055 121.333 313.768 121.868 313.48 121.827C313.193 121.786 313.069 121.127 313.11 120.386C313.193 119.644 313.48 119.109 313.768 119.15C314.055 119.191 314.22 119.85 314.137 120.592Z" />
<path d="M319.478 112.973C319.231 113.302 315.74 120.386 315.74 115.402C315.74 115.402 314.959 118.862 315.206 120.55C315.164 120.344 315.164 120.097 315.206 119.85C315.288 119.109 315.575 118.574 315.863 118.615C316.15 118.656 316.315 119.315 316.233 120.056C316.15 120.797 315.863 121.333 315.575 121.292C315.452 121.25 315.329 121.127 315.288 120.88C315.329 121.086 315.411 121.25 315.534 121.374C315.534 121.374 315.945 121.745 316.808 119.809C317.67 117.915 320.217 113.837 320.71 112.973C320.669 112.973 319.683 112.643 319.478 112.973Z" />
<path d="M319.355 127.797C318.862 127.427 317.26 126.067 317.26 123.967C317.26 122.032 318.533 120.384 319.355 119.561C316.109 122.649 316.068 123.473 316.027 124.379C316.027 124.379 315.986 125.203 316.274 125.656C316.602 126.315 319.848 128.168 320.176 128.374C320.094 128.374 319.93 128.25 319.355 127.797ZM317.054 124.338C316.972 125.079 316.684 125.614 316.397 125.573C316.109 125.532 315.986 124.873 316.027 124.132C316.109 123.391 316.397 122.855 316.684 122.896C316.972 122.979 317.136 123.596 317.054 124.338Z" />
<path d="M315.37 127.59C315.082 127.549 314.795 128.084 314.713 128.826C314.63 129.567 314.795 130.185 315.041 130.267C315.329 130.308 315.616 129.773 315.699 129.032C315.822 128.29 315.657 127.631 315.37 127.59Z" />
<path d="M313.234 128.25C312.946 128.209 312.659 128.744 312.576 129.486C312.494 130.227 312.659 130.845 312.946 130.927C313.234 130.968 313.521 130.433 313.603 129.692C313.686 128.95 313.521 128.291 313.234 128.25Z" />
<path d="M312.494 123.92C312.207 123.879 311.919 124.414 311.837 125.156C311.755 125.897 311.919 126.515 312.207 126.597C312.453 126.638 312.782 126.103 312.864 125.362C312.946 124.62 312.782 123.961 312.494 123.92Z" />
<path d="M318.163 137.353C318.163 137.353 318.985 135.747 319.108 135.211C319.108 135.211 318.081 134.717 317.629 134.635L318.163 137.353Z" />
<path d="M188.596 116.554C188.596 116.554 184.283 135.416 185.762 142.953C185.762 142.953 186.378 127.591 191.39 117.502C191.39 117.502 191.924 115.731 188.596 116.554Z" />
<path d="M188.268 145.425C190.856 143.572 202.235 136.118 203.385 135.953C204.535 135.788 204.864 136.653 204.864 136.653C204.371 133.729 203.755 132.658 203.755 132.658C196.936 134.923 188.268 145.425 188.268 145.425Z" />
<path d="M169.905 136.035C169.905 136.035 169.042 137.477 168.179 142.789C168.179 142.789 168.878 141.06 170.357 141.842C171.836 142.624 179.107 145.796 182.681 146.331C182.681 146.372 170.685 138.63 169.905 136.035Z" />
<path d="M169.33 169.435C169.33 169.435 178.285 158.11 182.886 152.262C182.886 152.303 171.466 161.775 169.33 169.435Z" />
<path d="M185.104 154.732C183.461 158.315 184.201 182.655 184.201 182.655C184.201 182.655 185.926 182.408 186.748 181.872C187.569 181.337 187.035 179.072 187.035 179.072C184.653 169.105 185.104 154.732 185.104 154.732Z" />
<path d="M151.583 186.568C150.803 186.568 150.268 186.445 150.227 186.445C149.776 186.404 102.903 183.397 71.641 179.032H71.5999L70.614 178.208C69.6691 178.043 48.4717 174.419 36.805 172.072C25.1793 169.766 13.5125 165.524 12.8552 165.277L11.0887 165.441H11.0477C10.9655 165.441 4.39267 163.465 4.47483 158.234C4.51591 156.093 6.24128 155.187 6.69316 154.981C6.32344 153.704 2.74946 141.473 0.49005 129.035C-1.6872 117.133 3.85862 109.185 7.92556 103.378C8.37745 102.719 8.82933 102.102 9.24014 101.484C13.1838 95.6358 22.3036 88.5935 28.0138 85.9166L28.2192 85.8343C34.0526 83.075 49.5809 75.7856 78.83 78.5448C79.0354 78.5448 100.356 76.8563 106.723 77.3093C106.682 76.4033 106.518 71.6261 110.215 70.5965C114.118 69.4845 114.652 69.9376 114.734 70.0199V70.0611L115.063 71.0907C116.952 69.5669 137.164 53.5878 148.009 50.5815C160.703 47.0809 202.769 41.7271 251.778 47.6575C251.819 47.6575 256.584 48.1105 263.65 51.3639C270.141 54.3291 280 60.3419 290.023 71.9967C291.174 72.2438 307.565 75.7444 311.18 78.2566C313.768 80.0686 316.233 83.981 318.04 86.8227C318.821 88.0993 319.519 89.1701 320.094 89.8702C320.258 90.0349 320.423 90.2409 320.587 90.488C322.723 93.0001 327.16 98.2716 326.996 113.468C326.79 129.118 324.284 134.883 323.216 136.654L322.805 137.313L322.97 136.572C322.97 136.49 324.9 128.006 325.517 118.863C326.092 110.421 325.599 99.6718 320.217 96.336C320.217 96.336 318.738 95.4299 316.52 96.2536C313.562 97.3655 309.126 101.566 304.894 115.198C301.772 127.841 301.074 135.46 300.622 139.99C300.376 142.749 300.211 144.232 299.718 145.097C299.677 145.426 299.061 146.909 291.091 148.391C282.834 149.956 214.436 168.489 201.701 174.502L201.044 174.79L201.537 174.296C201.619 174.213 210.492 164.824 208.972 130.147C208.561 120.552 203.591 111.656 196.566 107.991C191.965 105.561 187.035 105.767 182.763 108.485C169.946 116.68 161.278 128.253 157.868 160.499C157.827 161.405 157.293 182.779 155.65 184.88C154.664 186.321 152.857 186.609 151.583 186.568ZM71.7231 178.785C102.985 183.15 149.776 186.156 150.269 186.198C150.31 186.198 153.925 186.898 155.568 184.797C157.129 182.738 157.704 160.746 157.704 160.541C161.155 128.171 169.823 116.557 182.722 108.32C187.076 105.561 192.047 105.355 196.771 107.826C203.878 111.533 208.931 120.51 209.342 130.189C210.122 148.35 208.068 159.429 206.179 165.524C204.618 170.63 202.933 173.143 202.194 174.049C216.161 167.789 282.958 149.668 291.133 148.144C299.431 146.579 299.554 145.056 299.554 145.056V145.014L299.595 144.973C300.088 144.191 300.252 142.626 300.458 139.949C300.869 135.378 301.567 127.759 304.73 115.115C309.044 101.319 313.521 97.1185 316.52 96.0065C318.862 95.1417 320.341 96.0477 320.423 96.0889C324.818 98.807 326.667 106.467 325.845 118.822C325.352 126.317 323.956 133.36 323.463 135.748C324.654 133.36 326.585 127.265 326.79 113.468C326.996 98.3539 322.559 93.1237 320.464 90.6527C320.258 90.4468 320.094 90.2409 319.971 90.0349C319.396 89.3348 318.738 88.2641 317.917 86.9874C316.109 84.1457 313.686 80.2745 311.098 78.5037C307.482 75.9915 290.147 72.285 289.982 72.2438H289.941L289.9 72.2026C279.918 60.5478 270.099 54.5762 263.609 51.611C256.584 48.3988 251.86 47.9457 251.778 47.9457C202.81 42.0154 160.785 47.3692 148.091 50.8697C136.794 53.9997 115.309 71.2966 115.063 71.4613L114.94 71.5849L114.488 70.2258C114.405 70.1847 113.748 69.8964 110.256 70.8848C106.395 71.9967 106.929 77.4329 106.97 77.5153V77.68H106.806C100.644 77.1858 78.9943 78.9155 78.7889 78.9155C49.5809 76.1562 34.0937 83.4456 28.2603 86.2049L28.0549 86.2873C22.3447 88.9642 13.266 95.9653 9.36337 101.772C8.95257 102.39 8.54177 103.008 8.04881 103.667C4.02295 109.432 -1.52288 117.339 0.654368 129.118C3.03702 142.173 6.85748 155.022 6.89856 155.146L6.93964 155.269L6.8164 155.31C6.73424 155.351 4.68023 156.093 4.68023 158.358C4.59807 163.259 10.6369 165.194 11.0477 165.318L12.8141 165.153H12.8552C12.9784 165.194 24.8917 169.56 36.805 171.948C48.6771 174.337 70.4086 178.043 70.614 178.085H70.6551L71.7231 178.785Z" />
<path d="M15.2789 162.146C15.1968 162.311 15.32 162.269 15.1968 162.311C15.0325 162.311 14.7449 162.228 14.7449 162.228C14.7449 162.228 10.3904 163.999 10.2672 164.081C10.1028 164.164 9.93851 164.123 9.69203 163.999C9.44555 163.876 6.15913 162.187 4.9678 160.375C4.9678 160.375 6.07697 163.711 10.8834 165.276L12.6909 165.111L17.7848 162.146L17.4151 160.91C17.4151 160.91 15.4022 161.981 15.2789 162.146Z" />
<path d="M231.443 87.7695C223.966 87.6872 216.49 87.0694 209.013 85.9163H208.931L208.972 85.8339C209.013 85.7515 213.039 77.4325 218.379 68.7017C223.309 60.6298 230.334 50.5811 236.044 48.3984C236.824 48.1101 239.864 47.1217 245.575 47.4512C251.531 47.7807 258.145 49.3456 265.252 52.1873C269.114 53.711 273.961 57.1292 279.712 62.2771C284.436 66.519 288.421 70.7609 289.9 72.367L290.598 73.1083L289.12 76.856H289.078C286.244 78.2562 277.987 81.592 266.854 84.1042C258.679 85.9575 250.176 87.1106 241.549 87.5636C238.18 87.7283 234.812 87.8107 231.443 87.7695ZM209.095 85.7927C219.899 87.44 230.827 88.0166 241.549 87.44C250.134 86.987 258.638 85.8339 266.813 83.9807C277.905 81.4685 286.162 78.1738 288.955 76.7324L290.393 73.0671L289.736 72.4082C286.244 68.5782 274.125 55.8526 265.129 52.2284C258.063 49.428 251.449 47.8218 245.492 47.4924C239.823 47.2041 236.824 48.1513 236.044 48.4396C230.375 50.5811 223.35 60.6298 218.421 68.6605C213.409 77.0207 209.506 84.9279 209.095 85.7927Z" />
<path d="M251.367 47.7777C251.367 47.7777 250.792 47.6955 249.847 47.5723C250.381 47.6133 250.874 47.6955 251.367 47.7777Z" />
<path d="M111.119 173.388C103.601 173.305 96.3713 172.605 92.7973 171.658C91.9757 171.411 91.4416 171.04 91.2773 170.505C90.7844 168.94 93.0849 166.098 96.0016 162.557L96.2891 162.227C97.275 161.033 98.0966 159.921 98.9182 158.85C101.424 155.555 103.396 152.92 106.6 151.767C110.955 150.16 131.577 144.477 136.548 144.559C136.63 144.559 136.712 144.559 136.753 144.559C138.684 144.683 140.04 145.26 140.82 146.372C141.642 147.566 141.765 149.296 141.108 151.519C140.943 152.096 140.738 152.878 140.533 153.785C139.341 158.768 137.123 168.034 131.865 170.999C129.071 172.564 122.17 173.47 112.886 173.47C112.31 173.388 111.735 173.388 111.119 173.388ZM136.548 144.642C131.618 144.559 110.996 150.243 106.641 151.849C103.478 153.002 101.506 155.597 99.0004 158.891C98.1788 159.962 97.3572 161.074 96.3713 162.268L96.0837 162.598C93.2081 166.139 90.9076 168.899 91.4006 170.423C91.5649 170.917 92.0168 171.287 92.8384 171.493C96.6588 172.523 104.875 173.264 112.927 173.264C122.211 173.264 129.112 172.399 131.865 170.834C137.082 167.869 139.3 158.644 140.491 153.702C140.697 152.796 140.902 152.014 141.067 151.437C141.683 149.254 141.601 147.566 140.779 146.413C140.04 145.383 138.725 144.765 136.835 144.683C136.712 144.642 136.63 144.642 136.548 144.642Z" />
<path d="M65.3146 116.843C48.8825 116.637 22.7144 112.642 22.7144 112.642C22.7144 112.642 16.1005 112.189 15.3611 108.4C14.6216 104.611 15.2789 102.676 18.7707 98.5573C18.7707 98.5573 20.455 96.6217 26.2063 93.08C29.2051 91.2267 45.7604 81.631 77.7208 78.707C77.7208 78.707 59.4812 79.6542 41.2416 86.0376C37.0514 87.5202 32.8202 89.2911 28.8354 91.3914C28.8354 91.3914 28.4657 91.5562 27.8495 91.8445C24.4809 93.4918 13.7179 99.381 14.7038 107.082C15.6486 112.601 20.7837 112.56 25.4668 113.26C30.191 113.96 60.3028 117.955 68.5189 117.007C76.6938 116.101 84.9099 114.66 98.1788 106.753C111.448 98.8456 130.92 87.5202 162.551 82.7018C162.551 82.7018 131.289 85.1728 96.5767 107.453C96.6177 107.494 81.7467 117.049 65.3146 116.843Z" />
<path d="M294.296 86.1618C294.172 86.0795 285.299 81.2199 281.89 79.9844L281.807 80.1903C285.094 81.3846 293.474 85.9559 294.131 86.3266C296.309 95.9634 294.624 105.641 288.339 119.685C285.833 125.245 281.232 130.145 274.618 134.14C269.155 137.476 263.362 139.535 259.953 140.771C259.295 141.018 258.72 141.224 258.227 141.388C255.721 142.336 248.861 144.436 239.947 146.948C232.388 149.09 225.774 150.902 225.199 150.943C225.076 150.943 224.952 150.902 224.87 150.819C224.295 150.16 224.747 147.689 224.747 147.648C226.39 136.982 228.485 121.456 229.06 108.236C229.43 100.329 229.06 96.9107 229.06 96.8695C228.814 95.1398 228.033 93.4925 226.678 92.0099C225.569 90.8155 224.172 89.7036 222.405 88.7152C219.407 87.0267 216.531 86.2442 216.49 86.2442L216.449 86.4501C216.49 86.4501 219.365 87.2326 222.323 88.9211C224.049 89.9095 225.486 90.9803 226.554 92.1746C227.869 93.616 228.691 95.2221 228.896 96.9107C228.896 96.9518 229.348 100.329 228.896 108.236C228.157 121.497 226.226 136.982 224.583 147.648C224.583 147.772 224.131 150.243 224.747 150.984C224.87 151.108 224.993 151.19 225.158 151.19C225.158 151.19 225.199 151.19 225.24 151.19C225.815 151.149 232.47 149.378 240.029 147.195C248.984 144.642 255.804 142.583 258.351 141.594C258.844 141.43 259.419 141.224 260.035 140.977C263.486 139.741 269.237 137.682 274.742 134.305C281.355 130.269 285.998 125.368 288.545 119.767C294.871 105.641 296.555 95.9634 294.337 86.2442L294.296 86.1618Z" />
<path d="M52.8262 159.758C40.2968 159.593 31.0948 157.534 25.3436 155.681C18.0313 153.333 14.4573 150.821 14.4162 150.821C7.51476 145.714 3.98187 136.942 2.95486 132.536C2.2565 129.529 2.17434 127.717 2.70838 127.223C2.83162 127.141 2.99594 127.017 3.28351 127.099C3.85863 127.264 4.39267 127.388 4.96779 127.552C9.65093 128.829 14.9914 130.312 29.9035 132.494C41.1595 134.142 79.5695 138.219 83.7596 138.59C86.0601 138.795 87.3747 139.949 88.032 140.855C88.7714 141.843 88.9768 142.79 88.9768 142.831C89.4287 144.314 88.9357 146.291 87.6623 148.226C85.6904 151.109 78.9943 158.028 59.2347 159.675C56.9753 159.758 54.8803 159.799 52.8262 159.758ZM3.0781 127.305C2.99594 127.305 2.91378 127.347 2.8727 127.388C2.62622 127.635 2.33866 128.623 3.20134 132.453C4.18726 136.819 7.72017 145.549 14.5806 150.574C14.7038 150.656 27.0689 159.14 52.8673 159.469C54.9213 159.511 57.0164 159.469 59.2347 159.387C78.9122 157.74 85.5672 150.903 87.4979 148.02C88.7714 146.167 89.2233 144.273 88.8125 142.831C88.8125 142.79 88.6071 141.884 87.9087 140.937C86.9639 139.66 85.5672 138.919 83.8007 138.795C79.6105 138.425 41.1595 134.348 29.9446 132.7C14.9914 130.518 9.69201 129.035 4.96779 127.758C4.39267 127.594 3.85863 127.47 3.28351 127.305C3.16026 127.347 3.11918 127.305 3.0781 127.305Z" />
<path d="M13.9673 146.663C13.9673 146.663 13.9673 146.619 13.9233 146.619C13.9233 146.663 13.9673 146.663 13.9673 146.663Z" />
<path d="M13.9233 146.62C13.5125 146.084 10.3082 141.472 7.96666 128.746C7.96666 128.746 9.03475 140.195 13.9233 146.62Z" />
<path d="M19.3869 149.049C18.9761 148.514 15.5665 142.378 14.1697 130.188C14.1697 130.188 14.5395 142.666 19.3869 149.049Z" />
<path d="M23.1663 136.653C22.7966 134.841 22.5501 133.112 22.4269 131.588C22.4269 131.588 22.5501 133.647 23.002 136.612C23.0842 136.653 23.1252 136.653 23.1663 136.653Z" />
<path d="M33.231 138.301C33.2721 138.301 33.2721 138.301 33.3131 138.301C33.3542 138.301 33.3542 138.301 33.3953 138.301C33.4364 138.301 33.5185 138.301 33.5596 138.301C33.3131 136.736 33.0667 135.13 32.8613 133.4C32.8613 133.4 32.9023 135.377 33.231 138.26C33.231 138.301 33.231 138.301 33.231 138.301Z" />
<path d="M45.1442 139.909C45.1853 139.909 45.2264 139.909 45.2675 139.909C44.9388 138.303 44.6513 136.574 44.3637 134.803C44.3637 134.803 44.528 136.862 44.9799 139.909C45.021 139.951 45.1031 139.909 45.1442 139.909Z" />
<path d="M63.0963 156.794C62.8087 156.217 59.8099 147.94 58.0023 136.367C58.0434 136.367 58.4953 146.992 63.0963 156.794Z" />
<path d="M77.31 153.208C77.0635 152.591 74.6398 143.777 73.8593 138.012C73.9004 138.012 73.736 144.189 77.31 153.208Z" />
<path d="M88.8536 142.872C25.2203 138.795 8.37746 132.412 5.3786 131.012C25.2203 140.896 88.8536 142.872 88.8536 142.872Z" />
<path d="M5.37859 131.012C5.17319 130.93 5.00887 130.807 4.84455 130.725C4.80347 130.725 4.96779 130.807 5.37859 131.012Z" />
<path d="M49.7041 144.6C49.7041 144.641 49.7041 144.641 49.6631 144.682C49.7041 144.806 49.7041 144.97 49.7452 145.094C69.5459 147.029 87.9498 147.112 87.9498 147.112C72.6269 146.7 60.0564 145.753 49.7041 144.6Z" />
<path d="M16.2648 139.205C16.2238 139.04 16.1416 138.834 16.1005 138.628C16.1005 138.628 16.1005 138.628 16.1005 138.587C8.91148 136.528 6.32343 134.922 6.32343 134.922C8.82932 136.61 12.239 138.052 16.2648 139.287C16.3059 139.287 16.3059 139.246 16.2648 139.205Z" />
<path d="M17.2918 143.162C11.4995 141.309 9.07581 139.867 9.07581 139.867C11.3763 141.35 14.2519 142.668 17.4972 143.821C17.4562 143.574 17.374 143.368 17.2918 143.162Z" />
<path d="M50.5668 149.461C50.6079 149.626 50.6079 149.749 50.6079 149.914C68.601 151.52 84.8277 151.232 84.8277 151.232C71.3123 151.108 60.0153 150.408 50.5668 149.461Z" />
<path d="M50.8544 154.199C50.8133 154.24 50.7722 154.282 50.7311 154.323C54.0997 154.652 57.7559 154.899 61.7406 155.105C58.4131 154.941 54.7159 154.652 50.8544 154.199Z" />
<path d="M18.9351 147.526C16.9221 146.784 14.9914 145.961 13.1838 145.096C13.1838 145.096 14.6216 146.455 19.0994 148.184C19.0172 147.979 18.9761 147.773 18.9351 147.526Z" />
<path d="M76.5706 155.598C71.1891 155.515 66.2595 155.35 61.7406 155.145C70.4907 155.68 76.5706 155.598 76.5706 155.598Z" />
<path d="M112.105 172.645C102.862 172.521 96.248 171.451 95.0978 170.586C94.6459 170.256 94.4405 169.886 94.4816 169.515C94.5637 168.609 95.8372 167.95 95.8783 167.909C96.0837 167.909 114.981 168.609 120.732 165.397C126.237 162.308 129.4 147.317 129.646 146.041L125.579 146.617L125.538 146.494C131.331 144.97 135.11 144.64 136.137 144.558C136.219 144.558 136.301 144.558 136.424 144.517C137.739 144.393 140.491 144.146 141.395 147.317C142.34 150.694 137.205 164.408 136.958 165.026C133.795 171.863 128.414 171.904 128.208 171.863C122.375 172.521 116.87 172.727 112.105 172.645ZM95.9194 168.032C95.7961 168.115 94.6459 168.774 94.6048 169.515C94.5637 169.845 94.7691 170.174 95.1799 170.462C96.9464 171.739 111.242 173.592 128.208 171.739C128.373 171.739 133.713 171.739 136.835 164.944C136.876 164.82 142.217 150.653 141.272 147.317C140.409 144.229 137.739 144.476 136.466 144.599C136.342 144.599 136.26 144.599 136.178 144.64C135.233 144.682 131.865 145.011 126.647 146.288L129.852 145.835V145.917C129.811 146.082 126.606 162.226 120.855 165.438C115.104 168.691 96.5767 168.032 95.9194 168.032Z" />
<path d="M16.2243 136.281L16.1829 136.323L16.1416 136.364C16.1829 136.364 16.1829 136.323 16.2243 136.281Z" />
<path d="M15.9773 136.61C15.9773 136.569 16.0185 136.528 16.0598 136.486C16.0185 136.569 16.0185 136.569 15.9773 136.61Z" />
<path d="M51.7581 152.877C51.6349 152.218 49.7041 142.087 49.7041 142.087C49.7041 142.087 49.1701 140.481 47.4858 140.151C45.7604 139.822 17.5383 135.621 17.5383 135.621C17.5383 135.621 16.9632 135.621 16.347 136.239C16.4702 136.115 16.6346 135.992 16.881 135.951L47.2804 140.604C47.2804 140.604 48.5128 141.222 48.7182 142.293C48.9236 143.322 50.8955 152.794 51.0187 153.7C51.0187 153.7 50.8544 154.359 50.4847 154.771C50.7722 154.648 51.0598 154.524 51.2652 154.442C51.7171 154.236 51.8814 153.495 51.7581 152.877Z" />
<path d="M15.854 137.391C15.854 137.761 15.9773 138.173 16.0595 138.585C16.1005 138.791 16.2238 139.409 16.4292 140.273C16.1416 138.914 15.9362 137.802 15.854 137.391Z" />
<path d="M11.9514 164.328L12.773 165.317C31.9575 173.388 71.1069 178.495 71.1069 178.495L70.4496 177.26C30.4375 171.741 11.9514 164.328 11.9514 164.328Z" />
<path d="M227.828 87.3137C220.557 87.2313 216.325 86.7371 216.243 86.6959H216.161L216.531 86.037C216.572 85.9546 220.968 74.8352 225.24 66.6397C227.54 62.2331 229.512 59.1032 231.525 56.8793C233.661 54.4495 235.88 53.0493 238.221 52.5139C249.107 50.0841 259.912 51.4019 269.524 56.3439C278.233 60.8741 287.189 70.1403 287.435 70.5109C288.134 71.6229 289.202 76.4001 289.243 76.606V76.6472L289.202 76.6884C289.161 76.7296 285.381 79.1182 281.807 80.3125C277.946 81.6304 274.084 82.7423 259.46 85.2133C246.396 87.0666 235.428 87.4372 227.828 87.3137ZM216.325 86.6136C217.763 86.7783 234.935 88.5492 259.419 85.131C274.002 82.66 277.864 81.548 281.725 80.2714C285.135 79.1182 288.668 76.9355 289.079 76.6884C288.955 76.1942 287.928 71.6641 287.312 70.6757C286.901 70.0167 277.864 60.8741 269.442 56.5498C259.87 51.6079 249.107 50.29 238.221 52.7198C233.743 53.7082 229.882 57.9089 225.281 66.8044C221.009 74.9999 216.613 86.0782 216.572 86.2017L216.325 86.6136Z" />
<path d="M200.099 83.4031C199.852 83.3619 181.161 80.232 173.068 81.5087C172.945 81.4675 161.36 79.326 141.518 78.8318C121.718 78.3376 113.789 77.7198 113.748 77.7198H113.625L113.707 77.6375C113.748 77.5963 118.719 71.9542 126.73 65.6532C136.178 58.199 144.353 53.6277 148.461 51.9804C148.543 51.9804 157.663 50.539 171.753 49.7153C184.735 48.9328 204.659 48.521 225.979 50.8272L226.39 50.8684L226.267 50.9508C226.144 51.0332 218.955 56.0987 200.099 83.4031ZM178.819 81.0969C187.528 81.2204 199.277 83.156 200.058 83.2796C217.517 57.9519 224.993 51.7745 226.02 50.9508H225.897C204.577 48.6033 184.653 49.0564 171.671 49.8388C157.786 50.6625 148.707 52.0627 148.42 52.1039C144.312 53.7513 136.178 58.3226 126.73 65.7356C119.294 71.5836 114.488 76.855 113.83 77.6375C114.898 77.7199 123.032 78.2552 141.477 78.7494C161.031 79.2436 172.616 81.344 173.027 81.4263C174.629 81.1792 176.642 81.0557 178.819 81.0969Z" />
<path d="M241.508 52.97L254.119 53.5878C260.733 54.8645 269.36 59.1063 269.36 59.1063L278.315 78.2977L278.028 78.5448C277.165 79.1213 264.389 81.7983 264.389 81.7983C273.098 80.5216 277.864 79.0802 277.864 79.0802L278.48 78.8742L278.521 79.2037L279.301 78.586L269.031 57.2943C257.693 50.3343 241.508 52.97 241.508 52.97Z" />
<path d="M102.369 121.005C97.5626 120.964 96.4123 118.699 96.3302 118.575C96.0426 118.04 96.1659 117.216 96.6999 116.145C99.1236 111.121 110.38 101.361 118.021 99.7956C127.387 97.7776 145.75 97.2011 152.651 96.9952C153.925 96.954 154.828 96.9128 155.239 96.9128C156.8 96.8304 157.375 97.1187 157.581 97.3658C157.745 97.5717 157.704 97.7365 157.704 97.7365C152.446 103.379 141.929 110.091 141.847 110.174C130.057 118.204 105.286 120.799 105.039 120.799C104.053 120.964 103.191 121.046 102.369 121.005ZM155.239 97.0775C154.828 97.1187 153.925 97.1187 152.651 97.1599C145.75 97.3658 127.387 97.9012 118.021 99.9192C110.421 101.484 99.2469 111.203 96.8231 116.187C96.3302 117.216 96.2069 117.999 96.4534 118.493C96.9875 119.564 99.4523 121.376 104.998 120.675C105.245 120.634 129.934 118.081 141.724 110.05C141.847 109.968 152.323 103.296 157.54 97.6541C157.54 97.6129 157.54 97.5305 157.458 97.407C157.334 97.2834 156.841 96.9952 155.239 97.0775Z" />
<path d="M104.012 120.51C103.642 120.51 103.273 120.51 102.903 120.469C100.027 120.263 98.1377 119.398 97.3983 117.998C97.234 117.669 96.9053 116.351 99.6577 113.139C102.328 110.009 106.888 106.302 113.173 102.102C113.255 102.06 122.129 97.0772 154.541 97.489C155.157 97.489 155.773 97.489 156.431 97.5302H156.472L156.513 97.5714C156.513 97.5714 156.923 98.3127 155.979 99.0128C155.855 99.0952 155.65 99.3011 155.321 99.6306C153.021 101.896 146.078 108.732 132.481 114.457C132.44 114.498 126.524 117.381 107.093 120.346C107.011 120.346 105.696 120.51 104.012 120.51ZM113.255 102.225C106.97 106.426 102.451 110.091 99.7809 113.221C97.6448 115.733 97.234 117.298 97.5215 117.916C99.2058 121.252 106.929 120.222 107.011 120.222C126.401 117.257 132.316 114.374 132.358 114.333C145.955 108.608 152.898 101.772 155.157 99.5482C155.486 99.2187 155.732 99.0128 155.855 98.8893C156.595 98.3539 156.431 97.8185 156.389 97.6949C155.773 97.6949 155.157 97.6538 154.541 97.6538C122.293 97.2419 113.42 102.143 113.255 102.225Z" />
<path d="M104.135 119.641C102.78 119.641 101.712 119.476 100.89 119.27C98.3431 118.529 98.795 116.676 98.795 116.676C100.644 113.093 107.504 107.039 110.462 105.021C113.42 103.003 116.008 101.438 120.198 100.738C124.224 100.079 133.754 99.2142 141.067 98.5965C148.749 97.9787 156.143 97.4434 156.595 97.4434C157.006 97.4845 157.047 97.9376 157.047 98.1847V98.2258C156.718 98.8436 153.185 102.179 153.021 102.344C152.939 102.427 144.723 108.151 138.971 111.24C133.754 114.04 132.563 114.37 125.908 116.141C125.168 116.346 124.347 116.552 123.484 116.799C114.57 118.776 108.161 119.723 104.135 119.641ZM156.554 97.6493C155.239 97.6493 127.469 99.7084 120.198 100.903C116.049 101.603 113.461 103.168 110.503 105.145C107.545 107.121 100.726 113.175 98.8772 116.717C98.8772 116.758 98.4664 118.447 100.849 119.147C104.094 120.094 111.489 119.312 123.402 116.676C124.265 116.429 125.086 116.223 125.826 116.017C132.44 114.246 133.631 113.917 138.848 111.116C144.599 108.027 152.774 102.303 152.857 102.262C152.898 102.221 156.472 98.8848 156.841 98.2258C156.924 98.1023 156.924 97.6493 156.554 97.6493C156.595 97.6493 156.595 97.6493 156.554 97.6493Z" />
<path d="M139.711 110.954C137.739 110.007 136.466 107.618 136.507 105.065C136.548 101.605 138.848 98.846 141.642 98.8872C144.435 98.9284 146.653 101.77 146.612 105.188C146.612 105.765 146.53 106.3 146.407 106.794V106.836H146.366L139.711 110.954ZM141.642 98.9695C138.93 98.9283 136.671 101.646 136.63 105.023C136.589 107.536 137.821 109.842 139.711 110.789L146.325 106.712C146.448 106.218 146.489 105.682 146.53 105.147C146.53 101.811 144.353 99.0107 141.642 98.9695Z" />
<path d="M140.163 110.62C138.109 110.291 136.589 107.985 136.63 105.225C136.671 102.26 138.52 99.8715 140.738 99.9126C142.956 99.9538 144.764 102.384 144.723 105.308C144.723 106.296 144.476 107.284 144.065 108.149L140.163 110.62ZM140.738 100.077C138.602 100.036 136.794 102.384 136.753 105.266C136.712 107.943 138.191 110.167 140.163 110.497L143.983 108.108C144.394 107.284 144.599 106.296 144.599 105.349C144.599 102.466 142.874 100.119 140.738 100.077Z" />
<path d="M140.122 110.504C138.314 110.216 137 108.116 137.041 105.645C137.082 102.968 138.684 100.826 140.615 100.826C142.545 100.867 144.106 103.05 144.065 105.727C144.065 106.633 143.86 107.539 143.49 108.28L140.122 110.504ZM140.574 100.95C138.725 100.909 137.164 103.009 137.123 105.645C137.082 108.033 138.355 110.092 140.04 110.381L143.326 108.239C143.655 107.498 143.86 106.633 143.86 105.768C143.942 103.132 142.463 100.991 140.574 100.95Z" />
<path d="M104.177 120.182C98.9593 120.099 98.3431 118.74 98.302 118.576C97.1107 117.381 98.8772 115.199 98.9593 115.075C100.685 112.686 106.97 106.838 111.407 104.12C115.925 101.361 119.253 100.99 119.294 100.99L119.623 100.949L119.335 101.114C116.994 102.391 115.556 105.026 115.556 105.068V105.109L111.982 105.479L110.914 106.138C102.41 113.263 100.726 115.569 100.397 116.146C99.9863 116.846 100.52 117.299 100.52 117.34C100.931 119.07 107.915 119.935 107.956 119.935L108.572 120.017L107.956 120.058C106.477 120.141 105.245 120.182 104.177 120.182ZM118.965 101.155C118.021 101.32 115.145 101.979 111.489 104.244C107.052 106.962 100.767 112.769 99.0415 115.157C99.0415 115.199 97.275 117.381 98.3842 118.493C98.3842 118.493 99.0004 120.511 107.34 119.935C105.655 119.688 100.767 118.823 100.356 117.34C100.274 117.258 99.7809 116.722 100.233 116.022C100.644 115.322 102.492 112.934 110.79 105.974L111.9 105.315L115.432 104.985C115.597 104.697 116.911 102.432 118.965 101.155Z" />
<path d="M116.336 118.161C114.857 118.161 110.996 115.69 110.339 112.313C109.722 108.977 111.817 105.353 111.817 105.312V105.27L116.049 104.076V104.2C115.391 109.348 116.049 113.013 118.021 115.196C119.705 117.09 121.8 117.049 121.841 117.09V117.255C121.8 117.255 117.774 118.12 116.377 118.202C116.377 118.161 116.377 118.161 116.336 118.161ZM111.982 105.435C111.776 105.765 109.928 109.183 110.503 112.272C111.119 115.566 115.022 118.078 116.377 117.996C117.486 117.955 120.198 117.42 121.348 117.172C120.609 117.049 119.171 116.678 117.938 115.278C115.967 113.095 115.309 109.389 115.925 104.241L111.982 105.435Z" />
<path d="M121.102 117.382C117.528 117.341 114.652 113.552 114.693 108.939C114.734 104.327 117.733 100.579 121.307 100.661C124.881 100.703 127.757 104.492 127.715 109.145C127.674 113.717 124.676 117.423 121.102 117.382ZM121.307 100.785C117.815 100.744 114.898 104.409 114.857 108.939C114.816 113.469 117.61 117.217 121.102 117.258C124.593 117.299 127.51 113.634 127.551 109.104C127.633 104.574 124.799 100.826 121.307 100.785Z" />
<path d="M119.869 116.14C117.158 116.099 114.981 113.093 115.022 109.428C115.063 105.762 117.322 102.797 120.033 102.838C122.745 102.879 124.922 105.886 124.881 109.551C124.84 113.216 122.58 116.182 119.869 116.14ZM120.033 103.003C117.404 102.962 115.227 105.845 115.186 109.428C115.145 113.011 117.24 115.935 119.869 115.976C122.498 116.017 124.676 113.134 124.717 109.551C124.758 105.968 122.663 103.003 120.033 103.003Z" />
<path d="M119.623 115.484C117.199 115.443 115.268 112.766 115.309 109.512C115.35 106.259 117.363 103.623 119.746 103.623C122.17 103.664 124.1 106.341 124.059 109.595C124.018 112.848 122.046 115.484 119.623 115.484ZM119.787 103.747C117.445 103.705 115.515 106.3 115.474 109.471C115.432 112.642 117.281 115.278 119.623 115.319C121.964 115.36 123.895 112.766 123.936 109.595C123.977 106.424 122.087 103.788 119.787 103.747Z" />
<path d="M143.614 99.3805C143.572 99.3805 142.34 98.9686 142.052 98.9275L141.477 98.8451L148.625 98.5156C148.666 98.5156 149.611 98.598 150.022 98.8451L150.186 98.9275L143.614 99.3805ZM142.504 98.8863C142.956 99.0098 143.531 99.2157 143.655 99.2569L149.817 98.8039C149.365 98.6392 148.666 98.598 148.666 98.598L142.504 98.8863Z" />
<path d="M145.01 100.206L143.819 99.4646L150.433 99.0527L150.638 99.9588L145.01 100.206ZM144.23 99.5469L145.051 100.082L150.474 99.794L150.351 99.1351L144.23 99.5469Z" />
<path d="M145.996 101.769L145.175 100.41L150.803 99.875L150.474 101.646L145.996 101.769ZM145.421 100.493L146.078 101.646L150.392 101.522L150.679 99.9985L145.421 100.493Z" />
<path d="M147.064 103.704C146.448 103.704 146.448 103.622 146.448 103.581C146.407 103.334 146.119 102.181 146.119 102.181V102.098H146.202C147.557 101.934 150.638 101.563 150.72 101.975C150.803 102.345 151.131 103.375 151.131 103.375L151.172 103.457H151.09C151.09 103.457 149.94 103.581 148.831 103.622C147.968 103.704 147.434 103.704 147.064 103.704ZM146.571 103.54C146.777 103.663 148.954 103.54 151.008 103.334C150.926 103.087 150.679 102.304 150.597 101.975C150.515 101.769 148.297 101.934 146.284 102.181C146.325 102.428 146.53 103.293 146.571 103.54Z" />
<path d="M146.407 106.797L146.53 106.55C146.818 106.014 146.736 104.243 146.736 104.243V104.161H146.818L150.433 103.955L146.407 106.797ZM146.859 104.285C146.859 104.573 146.941 105.767 146.736 106.385L150.022 104.12L146.859 104.285Z" />
<path d="M151.337 103.336C150.392 103.171 149.693 102.142 149.693 100.906C149.693 99.5473 150.556 98.4766 151.583 98.4766C152.61 98.4766 153.432 99.5885 153.391 100.948C153.391 101.401 153.267 101.854 153.103 102.224L151.337 103.336ZM151.583 98.6001C150.638 98.6001 149.858 99.6297 149.817 100.906C149.817 102.101 150.433 103.089 151.296 103.213L152.98 102.142C153.144 101.771 153.267 101.359 153.267 100.906C153.267 99.6709 152.528 98.6001 151.583 98.6001Z" />
<path d="M151.296 103.291C150.474 103.168 149.858 102.179 149.858 101.067C149.858 99.832 150.597 98.8848 151.501 98.8848C152.364 98.8848 153.103 99.9143 153.062 101.109C153.062 101.52 152.98 101.932 152.815 102.262L151.296 103.291ZM151.501 98.9671C150.679 98.9671 149.981 99.8732 149.981 101.026C149.981 102.097 150.515 102.962 151.254 103.127L152.692 102.179C152.857 101.85 152.939 101.479 152.939 101.067C152.98 99.9555 152.323 99.0083 151.501 98.9671Z" />
<path d="M103.725 110.133L103.93 109.969C105.204 108.898 109.188 105.727 109.229 105.686L109.312 105.768L107.463 107.415C108.202 107.127 110.051 106.221 111.078 105.727L111.119 105.85C111.119 105.85 109.312 106.88 107.956 107.621C107.463 107.909 107.463 107.992 107.463 107.992C107.504 108.033 107.709 108.033 108.079 108.033C108.285 108.033 108.326 108.033 108.367 108.074C108.367 108.074 108.367 108.115 108.326 108.157C108.285 108.198 108.243 108.239 108.161 108.28C107.956 108.404 107.627 108.651 107.299 108.774C107.134 108.815 106.888 108.98 106.559 109.145C106.066 109.392 105.491 109.68 105.121 109.804C104.546 109.969 104.012 110.092 103.971 110.092L103.725 110.133ZM107.586 107.127C106.436 108.033 104.998 109.227 104.177 109.886C104.382 109.845 104.711 109.763 105.039 109.68C105.409 109.598 105.943 109.31 106.436 109.021C106.765 108.857 107.011 108.733 107.175 108.651C107.504 108.527 107.792 108.321 107.997 108.198C107.997 108.198 107.997 108.198 108.038 108.198C107.668 108.198 107.34 108.198 107.299 108.074C107.258 107.992 107.34 107.868 107.833 107.58C108.367 107.292 108.983 106.962 109.517 106.633C108.49 107.127 107.34 107.621 107.175 107.662L106.97 107.704L107.586 107.127Z" />
<path d="M98.0145 117.462V117.05C98.0145 115.856 99.2879 114.538 100.315 113.509L100.356 113.467C101.342 112.438 103.889 110.132 103.93 110.132H103.971C104.012 110.132 105.368 109.802 105.655 109.761C105.861 109.761 106.929 109.184 107.586 108.814L108.12 108.525L107.668 108.937C107.627 108.978 102.205 113.632 100.972 114.826C100.52 115.279 100.068 116.021 100.52 117.174C100.561 117.256 100.561 117.297 100.52 117.297C100.52 117.297 100.479 117.297 100.438 117.256C100.438 117.215 100.397 117.174 100.356 117.133C99.4933 115.897 99.1647 115.65 99.0004 115.65C98.7539 115.65 98.3431 116.556 98.1788 117.133L98.0145 117.462ZM98.9593 115.444C99.2879 115.444 99.7809 116.103 100.233 116.762C99.9452 115.732 100.397 115.032 100.808 114.62C101.835 113.632 105.738 110.255 107.052 109.143C106.518 109.431 105.738 109.843 105.573 109.843C105.327 109.884 104.094 110.173 103.93 110.214C103.725 110.379 101.342 112.561 100.397 113.55L100.356 113.591C99.6577 114.291 98.8771 115.115 98.4253 115.938C98.6307 115.691 98.795 115.485 98.9593 115.444Z" />
<path d="M112.228 115.897C112.064 115.65 110.749 114.003 110.831 113.385V113.344L112.023 113.262L112.064 113.303C112.228 113.468 113.83 114.909 113.789 115.527V115.568L112.228 115.897ZM110.996 113.468C110.996 113.962 111.9 115.197 112.31 115.733L113.666 115.444C113.625 114.95 112.475 113.838 112.023 113.426L110.996 113.468Z" />
<path d="M116.213 118.201C115.391 118.201 113.173 117.501 112.721 116.43L112.68 116.307H112.803C112.886 116.307 114.364 116.348 115.309 117.171L117.363 117.048C117.486 117.048 117.569 117.048 117.651 117.048C117.815 117.048 117.897 117.048 117.938 117.007C117.938 117.007 117.938 117.007 117.938 116.966C117.938 116.966 117.938 116.924 117.938 116.883C117.938 116.76 117.281 116.059 116.706 115.483L116.788 115.359C116.829 115.359 119.335 117.048 120.075 117.089C120.896 117.089 121.143 117.13 121.143 117.171L121.553 117.254L121.143 117.336C121.102 117.336 117.035 117.995 116.459 118.119C116.377 118.201 116.295 118.201 116.213 118.201ZM112.927 116.471C113.502 117.501 115.884 118.16 116.377 118.036C116.829 117.913 119.294 117.542 120.485 117.336C120.362 117.336 120.198 117.336 120.033 117.336C119.458 117.336 118.062 116.513 117.281 115.977C117.651 116.348 118.062 116.801 118.062 116.966C118.062 117.007 118.062 117.007 118.062 117.007C118.062 117.213 117.979 117.213 117.651 117.213C117.569 117.213 117.486 117.213 117.363 117.213L115.268 117.336L115.227 117.295C114.488 116.636 113.296 116.512 112.927 116.471Z" />
<path d="M103.889 120.139C99.8631 120.098 98.7539 118.862 98.2609 118.285L98.2199 118.244C97.6037 117.544 98.7128 116.02 98.7539 115.938L98.8361 115.814L98.8771 115.938C99.1236 117.503 100.931 119.439 108.161 119.644C108.613 119.644 108.613 119.644 108.613 119.727C108.613 119.809 108.613 119.809 107.792 119.892C107.545 119.933 107.216 119.933 106.806 119.974C105.696 120.139 104.752 120.18 103.889 120.139ZM98.795 116.144C98.5485 116.515 97.8501 117.627 98.302 118.162L98.3431 118.203C98.9593 118.903 100.397 120.468 106.765 119.892C107.134 119.85 107.463 119.809 107.709 119.809C103.848 119.644 99.3701 118.862 98.795 116.144Z" />
<path d="M109.681 116.594C106.354 113.176 107.75 108.564 107.75 108.523L111.776 105.393L111.653 105.64C110.297 108.317 110.544 110.746 110.544 110.788V110.829L109.147 112.476C107.792 114.082 109.722 116.512 109.763 116.512L109.681 116.594ZM107.874 108.605C107.792 108.893 106.765 112.682 109.147 115.812C108.654 114.947 108.12 113.464 109.065 112.394L110.462 110.788C110.462 110.54 110.339 108.317 111.489 105.846L107.874 108.605Z" />
<path d="M107.792 118.37C103.971 116.269 104.464 111.575 104.464 111.533V111.492L107.627 108.609L107.586 108.815C106.97 111.822 107.75 113.551 107.792 113.551V113.593L106.888 114.54C105.696 116.599 107.792 118.246 107.833 118.246L107.792 118.37ZM104.587 111.616C104.546 111.945 104.259 115.899 107.381 117.999C106.806 117.381 105.943 116.022 106.847 114.499L107.668 113.593C107.545 113.304 106.929 111.657 107.463 108.98L104.587 111.616Z" />
<path d="M104.916 119.234L104.711 119.11C103.519 118.493 102.698 117.175 102.246 116.228C101.753 115.198 101.547 114.292 101.547 114.292V114.251L101.588 114.21L104.382 111.656L104.341 111.821C104.176 113.18 104.834 115.033 104.875 115.033V115.074L104.834 115.116C104.423 115.363 104.176 115.692 104.053 116.145C103.766 117.381 104.793 118.987 104.793 119.028L104.916 119.234ZM101.671 114.292C101.753 114.663 102.574 117.669 104.546 118.904C104.259 118.41 103.642 117.175 103.889 116.145C104.012 115.692 104.259 115.322 104.669 115.074C104.546 114.786 104.053 113.262 104.135 112.027L101.671 114.292Z" />
<path d="M104.3 119.026L103.889 118.985C102.821 118.862 100.972 118.45 100.356 117.173C99.7398 115.855 101.219 114.537 101.26 114.537L101.342 114.455L101.383 114.537C102.533 118.162 103.971 118.862 103.971 118.862L104.3 119.026ZM101.26 114.661C100.972 114.949 99.9863 116.02 100.479 117.091C101.013 118.203 102.574 118.615 103.642 118.779C103.149 118.491 102.164 117.42 101.26 114.661Z" />
<path d="M114.2 116.512L114.118 116.43C113.912 116.224 113.009 116.182 112.68 116.182H112.598L112.68 115.729L113.912 115.524L113.954 115.482C113.789 114.947 112.721 113.588 112.557 113.423L111.817 113.258L112.516 113.135C112.557 112.023 111.817 110.623 111.776 110.623V110.582V110.54C111.982 109.14 111.982 105.392 111.982 105.351V105.269H112.064L115.597 104.939L115.556 105.063C114.364 108.728 114.775 110.17 115.35 112.352C115.884 114.288 116.542 114.947 116.788 115.153C116.829 115.194 116.87 115.235 116.87 115.276C116.87 115.318 116.87 115.359 116.87 115.4C116.829 115.482 116.706 115.524 116.583 115.524C116.542 115.524 116.501 115.524 116.501 115.565C116.459 115.565 116.049 115.647 115.145 115.729C114.857 115.771 114.57 115.771 114.488 115.812C114.447 115.853 114.282 116.224 114.2 116.512ZM112.762 116.018C113.05 116.018 113.789 116.059 114.118 116.265C114.364 115.606 114.447 115.565 114.488 115.565C114.529 115.565 114.734 115.524 115.145 115.482C115.638 115.441 116.377 115.359 116.459 115.318C116.501 115.318 116.501 115.318 116.542 115.276C116.583 115.276 116.665 115.235 116.706 115.235L116.665 115.194C116.418 114.988 115.72 114.288 115.186 112.311C114.611 110.129 114.2 108.646 115.35 105.022L112.105 105.31C112.105 105.804 112.105 109.099 111.9 110.458C112.023 110.664 112.721 112.023 112.639 113.094V113.135H112.557H112.598C112.639 113.217 113.912 114.741 114.036 115.318V115.359L113.954 115.524L112.762 115.729V116.018Z" />
<path d="M115.474 105.189L115.35 105.148C115.35 105.148 116.008 103.46 115.925 102.718C115.925 102.677 115.925 102.677 115.884 102.636C115.391 102.348 112.269 103.83 111.119 104.407L111.037 104.283C115.227 101.483 119.212 100.947 119.253 100.947L119.705 100.906L119.294 101.071C116.665 102.224 115.474 105.148 115.474 105.189ZM115.761 102.471C115.843 102.471 115.925 102.471 115.967 102.512C116.049 102.554 116.049 102.595 116.09 102.677C116.131 103.089 115.967 103.748 115.802 104.283C116.295 103.377 117.322 101.977 118.883 101.153C117.856 101.359 115.104 102.018 112.105 103.83C113.214 103.295 115.063 102.471 115.761 102.471Z" />
<path d="M122.909 111.203C122.293 111.203 121.841 110.379 121.841 109.308C121.841 108.238 122.334 107.455 122.95 107.455C123.566 107.455 124.059 108.32 124.018 109.35C124.018 110.379 123.525 111.203 122.909 111.203ZM122.95 107.62C122.416 107.62 122.005 108.361 121.964 109.35C121.964 110.297 122.375 111.079 122.909 111.079C123.443 111.079 123.854 110.297 123.895 109.391C123.895 108.402 123.443 107.62 122.95 107.62Z" />
<path d="M142.751 107.248C142.135 107.248 141.683 106.383 141.683 105.394C141.683 104.365 142.176 103.541 142.792 103.541C143.408 103.541 143.86 104.365 143.86 105.435C143.819 106.465 143.326 107.248 142.751 107.248ZM142.792 103.665C142.258 103.665 141.806 104.447 141.806 105.394C141.806 106.341 142.217 107.124 142.751 107.124C143.285 107.124 143.737 106.341 143.737 105.394C143.737 104.447 143.326 103.665 142.792 103.665Z" />
<path d="M151.131 102.964C150.515 102.964 150.063 102.141 150.063 101.111C150.063 100.081 150.556 99.2578 151.172 99.2578C151.788 99.2578 152.24 100.123 152.24 101.152C152.24 102.141 151.747 102.964 151.131 102.964ZM151.213 99.3814C150.679 99.3814 150.227 100.164 150.227 101.111C150.227 102.058 150.638 102.841 151.172 102.841C151.706 102.841 152.158 102.058 152.158 101.111C152.158 100.164 151.747 99.3814 151.213 99.3814Z" />
<path d="M122.58 107.659C122.58 107.659 120.773 105.971 119.335 105.971C119.253 105.971 119.171 105.971 119.089 105.971C118.513 106.053 118.062 106.136 117.774 106.218C117.404 106.3 117.199 106.342 117.076 106.259C116.994 106.177 116.994 106.094 116.994 106.012C116.994 105.518 116.994 105.188 117.651 104.488L117.733 104.571C117.486 104.859 117.322 105.106 117.363 105.23C117.363 105.271 117.363 105.312 117.404 105.312C117.486 105.353 117.528 105.436 117.569 105.477C117.692 105.6 117.733 105.683 118.596 105.641C119.787 105.6 121.019 105.683 122.663 107.536L122.58 107.659ZM119.335 105.806C120.157 105.806 121.06 106.342 121.718 106.795C120.526 105.765 119.582 105.724 118.596 105.765C117.733 105.806 117.61 105.724 117.486 105.559C117.445 105.518 117.404 105.477 117.363 105.436C117.322 105.394 117.281 105.353 117.281 105.271C117.158 105.518 117.158 105.724 117.158 106.012C117.158 106.094 117.158 106.136 117.199 106.177C117.281 106.218 117.486 106.177 117.774 106.094C118.103 106.012 118.513 105.93 119.13 105.847C119.171 105.847 119.253 105.806 119.335 105.806Z" />
<path d="M117.733 104.57L117.651 104.487C117.692 104.446 117.733 104.405 117.733 104.405L117.775 104.363L117.857 104.446C117.857 104.446 117.857 104.446 117.816 104.487C117.816 104.487 117.816 104.487 117.775 104.528C117.775 104.528 117.775 104.57 117.733 104.57Z" />
<path d="M118.596 114.661L118.226 114.537C118.226 114.537 117.281 114.249 117.569 113.178C117.61 112.972 117.979 112.972 118.555 112.972C119.006 112.972 119.623 112.972 120.075 112.849C121.06 112.56 121.8 111.984 122.129 111.572C122.498 111.119 122.622 110.995 122.622 110.954L122.868 110.707L122.745 111.037C122.704 111.119 121.923 112.972 120.403 113.219C119.951 113.302 119.582 113.343 119.253 113.384C118.472 113.466 118.144 113.507 118.103 113.796C118.021 114.208 118.267 114.414 118.267 114.414L118.596 114.661ZM118.39 113.137C118.062 113.137 117.733 113.137 117.692 113.219C117.569 113.796 117.774 114.084 118.021 114.249C117.979 114.125 117.938 113.96 117.979 113.755C118.062 113.384 118.513 113.343 119.253 113.26C119.582 113.219 119.951 113.178 120.403 113.096C121.307 112.931 121.964 112.19 122.293 111.613C122.293 111.654 122.252 111.654 122.252 111.695C121.882 112.148 121.143 112.725 120.116 113.013C119.623 113.137 119.048 113.137 118.555 113.137C118.472 113.137 118.431 113.137 118.39 113.137Z" />
<path d="M116.911 111.61C116.542 111.61 116.172 111.116 116.172 111.034C116.172 111.034 116.172 111.034 116.172 110.993C115.967 110.457 115.515 109.016 116.049 107.533L116.172 107.574C116.131 107.698 116.049 108.069 116.172 108.274C116.213 108.357 116.295 108.398 116.418 108.398C116.624 108.398 116.87 108.316 117.158 108.233C117.774 108.027 118.637 107.78 119.787 107.986C121.389 108.274 121.512 108.233 121.636 108.192C121.759 108.11 122.17 107.945 122.211 107.945L122.416 107.863L122.293 108.027C122.293 108.027 121.636 109.181 122.17 110.498L122.046 110.54C122.005 110.457 121.841 110.128 121.06 110.087C120.116 110.087 118.801 110.251 118.267 110.498C117.979 110.622 117.733 110.91 117.528 111.116C117.322 111.322 117.158 111.528 116.994 111.569C116.952 111.61 116.952 111.61 116.911 111.61ZM115.967 108.233C115.761 109.428 116.09 110.498 116.295 110.91C116.295 110.951 116.295 110.951 116.295 110.951C116.336 111.034 116.624 111.404 116.911 111.446H116.952C117.076 111.404 117.24 111.24 117.404 111.034C117.61 110.787 117.856 110.498 118.185 110.375C118.801 110.087 120.198 109.922 121.06 109.922C121.471 109.922 121.718 110.045 121.923 110.128C121.636 109.181 121.923 108.398 122.087 108.027C121.964 108.069 121.8 108.151 121.718 108.192C121.553 108.316 121.43 108.316 119.746 108.027C118.637 107.821 117.815 108.11 117.199 108.274C116.911 108.357 116.624 108.439 116.418 108.439C116.254 108.439 116.131 108.398 116.049 108.274C116.008 108.316 116.008 108.274 115.967 108.233Z" />
<path d="M122.211 110.791L122.087 110.585L122.129 110.544L122.046 110.585C122.046 110.585 122.005 110.544 122.005 110.503V110.256L122.129 110.462C122.129 110.503 122.17 110.503 122.17 110.544L122.211 110.791Z" />
<path d="M122.539 110.831C122.046 110.831 121.636 110.131 121.636 109.266C121.636 108.401 122.087 107.701 122.58 107.742C123.114 107.742 123.484 108.442 123.484 109.307C123.484 110.172 123.073 110.831 122.539 110.831ZM122.58 107.866C122.17 107.866 121.8 108.483 121.8 109.266C121.8 110.048 122.129 110.666 122.539 110.666C122.95 110.666 123.32 110.048 123.32 109.266C123.361 108.524 123.032 107.866 122.58 107.866Z" />
<path d="M124.84 116.019L125.004 115.854C128.126 112.271 127.633 107.618 127.633 107.576V107.494H127.715C128.989 107.37 136.548 106.094 136.63 106.094H136.712V106.176C137.082 110.583 139.3 110.83 139.341 110.83L139.588 110.871L139.382 110.995C139.341 110.995 136.959 112.271 133.549 113.63C130.139 114.989 125.21 116.019 125.127 116.019H124.84ZM127.757 107.618C127.798 108.235 128.044 112.436 125.251 115.772C126.237 115.566 130.427 114.619 133.426 113.424C136.301 112.271 138.437 111.2 139.054 110.912C138.478 110.747 136.876 109.924 136.507 106.217C135.726 106.382 129.153 107.453 127.757 107.618Z" />
<path d="M121.841 117.339L121.923 117.215C121.923 117.215 122.827 115.897 123.607 114.003C124.306 112.232 125.004 109.638 124.388 107.084L124.511 107.043C124.511 107.043 124.922 108.073 127.428 107.578H127.51V107.661C127.51 107.702 128.414 112.232 124.963 115.774C124.963 115.774 123.854 117.133 121.964 117.38L121.841 117.339ZM124.634 107.372C125.497 111.738 122.704 116.309 122.17 117.133C123.895 116.845 124.922 115.609 124.922 115.609C128.085 112.356 127.51 108.278 127.428 107.702C125.703 108.031 124.963 107.661 124.634 107.372Z" />
<path d="M143.819 108.359L143.942 108.153C143.942 108.112 145.257 106.012 144.024 102.635L144.148 102.594C144.148 102.594 144.887 103.829 145.75 103.665C146.489 103.5 146.489 103.541 146.489 103.582C146.489 103.623 146.489 103.623 146.448 103.665C146.489 103.953 146.777 105.435 146.407 106.836V106.877H146.366L143.819 108.359ZM144.271 102.964C145.092 105.6 144.435 107.412 144.148 107.989L146.284 106.712C146.653 105.353 146.407 103.87 146.325 103.623C146.243 103.623 146.078 103.665 145.75 103.747C145.133 103.87 144.599 103.376 144.271 102.964Z" />
<path d="M156.595 98.434L156.513 98.3516C156.677 98.1869 156.8 98.0633 156.8 98.0633L156.965 97.8574L156.923 98.1045C156.841 98.1869 156.759 98.2693 156.595 98.434Z" />
<path d="M152.98 102.266L153.103 102.019C153.103 102.019 153.514 100.948 153.144 99.9598L153.103 99.9187L153.144 99.8775C153.185 99.8775 155.65 98.9302 156.472 98.3125L156.554 98.3949C155.855 99.2185 153.842 101.442 153.144 102.06L152.98 102.266ZM153.308 100.001C153.555 100.701 153.432 101.484 153.308 101.854C154.007 101.154 155.404 99.5892 156.225 98.7243C155.239 99.2185 153.637 99.8775 153.308 100.001Z" />
<path d="M112.516 118.78C112.475 118.78 107.093 117.009 107.627 109.02H107.75C107.668 110.214 107.586 116.309 112.557 118.656L112.516 118.78ZM108.079 113.138C108.367 114.373 108.942 115.609 109.846 116.68C108.942 115.609 108.408 114.332 108.079 113.138Z" />
<path d="M107.751 109.017H107.627C107.627 108.852 107.627 108.77 107.627 108.77H107.751V108.811C107.792 108.852 107.792 108.934 107.751 109.017Z" />
<path d="M108.983 119.231C108.942 119.19 104.382 117.089 104.423 112.395H104.546C104.587 113.877 105.204 116.719 109.024 119.107L108.983 119.231ZM105.368 115.689C105.738 116.348 106.189 116.925 106.682 117.419C106.148 116.842 105.696 116.266 105.368 115.689Z" />
<path d="M104.423 112.396C104.423 111.861 104.464 111.572 104.505 111.531L104.628 111.572C104.587 111.861 104.587 112.149 104.587 112.396H104.423Z" />
<path d="M104.876 119.233C104.876 119.233 104.793 119.233 104.711 119.192L104.752 119.068C104.793 119.11 104.834 119.11 104.917 119.11L104.876 119.233Z" />
<path d="M104.3 118.945C103.56 118.492 102.205 117.256 101.383 114.291L101.506 114.25C101.506 114.291 102.698 117.709 104.382 118.821L104.3 118.945Z" />
<path d="M104.711 119.189H104.669C104.505 119.106 104.423 119.065 104.3 118.983L104.382 118.859C104.546 118.942 104.628 119.024 104.752 119.065H104.793L104.711 119.189Z" />
<path d="M138.109 99.051V98.9278C138.643 98.8867 138.971 98.8867 138.971 98.8867V99.01C138.766 99.01 138.561 99.051 138.355 99.051H138.109Z" />
<path d="M127.633 107.951V107.539C127.633 107.498 127.551 102.226 122.129 100.661L121.841 100.579L122.129 100.538C122.211 100.538 132.193 99.3847 138.109 98.9316V99.0552C135.89 99.2199 128.455 99.92 126.812 101.897C126.565 102.185 126.483 102.515 126.524 102.803C126.647 103.05 128.085 106.427 127.757 107.498L127.633 107.951ZM122.416 100.62C125.497 101.609 126.771 103.791 127.346 105.439C126.976 104.203 126.401 102.885 126.401 102.885C126.36 102.515 126.483 102.185 126.73 101.856C127.14 101.32 128.619 100.208 133.549 99.467C128.784 99.8789 123.69 100.455 122.416 100.62Z" />
<path d="M136.466 105.477L135.439 101.029L138.068 100.576L137.986 100.7C136.301 103.377 136.589 105.395 136.589 105.436L136.466 105.477ZM135.603 101.153L136.466 104.859C136.507 104.077 136.712 102.553 137.821 100.782L135.603 101.153Z" />
<path d="M137.451 109.557L135.849 106.221L136.301 106.139L137.616 109.516L137.451 109.557ZM136.014 106.303L136.917 108.157L136.178 106.262L136.014 106.303Z" />
<path d="M138.273 111.202L134.987 106.342L135.521 106.301V106.342L138.396 111.16L138.273 111.202ZM135.192 106.424L137.205 109.39L135.439 106.383L135.192 106.424Z" />
<path d="M143.778 99.3402L141.806 98.7637L147.27 98.9696V99.0931L143.778 99.3402ZM142.833 98.9284L143.819 99.2167L146.16 99.052L142.833 98.9284Z" />
<path d="M99.4933 117.422L99.4112 117.299C111.201 110.421 136.26 105.026 136.507 104.985L150.885 103.791C151.172 103.75 151.254 103.75 151.254 103.832C151.254 103.914 151.254 103.955 148.625 104.367C146.16 104.779 141.97 105.397 136.219 106.262H136.096C136.055 106.262 135.973 106.262 135.931 106.303C118.021 109.062 99.6987 117.34 99.4933 117.422ZM150.104 103.997L136.548 105.15C136.301 105.191 113.132 110.215 100.89 116.681C105.573 114.663 120.896 108.486 135.931 106.221C135.973 106.221 136.055 106.221 136.096 106.179H136.219C144.887 104.861 148.584 104.244 150.104 103.997Z" />
<path d="M129.852 114.992L129.811 114.868L130.632 114.621L130.673 114.745C130.673 114.786 130.304 114.909 129.852 114.992Z" />
<path d="M125.333 116.265L128.332 111.776C128.373 111.735 128.414 111.653 128.455 111.611L128.578 111.694L128.455 111.858C127.592 113.217 127.305 114.123 127.633 114.618C128.003 115.153 129.153 114.988 129.811 114.865L129.852 115.03L125.333 116.265ZM127.551 113.259L125.703 116.059L128.784 115.194C128.249 115.194 127.757 115.112 127.51 114.741C127.264 114.412 127.305 113.918 127.551 113.259Z" />
<path d="M128.373 114.703C128.044 114.703 127.798 114.621 127.674 114.456C127.346 114.003 127.921 113.097 128.373 112.397C128.537 112.15 128.66 111.902 128.742 111.779C129.03 111.038 135.932 109.596 136.712 109.473C137.903 109.596 138.396 111.12 138.437 111.161V111.244L138.396 111.285C138.355 111.326 133.713 113.385 129.852 114.497C129.194 114.621 128.701 114.703 128.373 114.703ZM136.671 109.596C133.631 110.214 129.03 111.326 128.825 111.82C128.784 111.985 128.619 112.191 128.455 112.479C128.085 113.097 127.469 114.003 127.757 114.373C127.88 114.579 128.373 114.703 129.728 114.332C133.343 113.303 137.657 111.408 138.191 111.161C138.109 110.832 137.657 109.679 136.671 109.596Z" />
<path d="M8.7472 110.831L8.70612 110.748C8.66504 110.666 6.15915 104.406 11.6228 97.9405C14.4574 94.5635 16.6757 92.7514 17.9902 91.8042C19.4691 90.7746 20.2497 90.5275 20.2497 90.5275L20.414 90.4863L20.3318 90.6511C20.3318 90.6923 18.6475 93.6574 18.8119 95.14V95.1812C18.5243 95.7578 11.705 109.142 8.7472 110.79V110.831ZM20.1675 90.7334C19.8389 90.857 19.1405 91.1864 18.1135 91.9277C16.7578 92.875 14.5806 94.687 11.7871 98.0229C8.95261 101.359 8.3364 104.612 8.29532 106.754C8.25424 108.772 8.7472 110.213 8.87044 110.584C11.7461 108.772 18.4832 95.6754 18.7708 95.0988C18.6065 93.781 19.8389 91.3924 20.1675 90.7334Z" />
<path d="M14.1287 103.006L14.0876 102.841C13.8822 101.977 13.8822 101.318 13.8822 101.276C13.7179 98.6407 14.3752 96.5815 15.9362 95.0165C17.4973 93.4516 18.8529 93.8634 18.9351 93.8634L19.0583 93.9046L18.9762 93.987C18.8529 94.1517 18.8529 94.7283 18.9351 95.0577V95.0989V95.1401L14.1287 103.006ZM18.4421 93.9458C17.9491 93.9458 17.0043 94.1105 16.0184 95.0989C14.4984 96.6227 13.8411 98.6407 14.0054 101.276C14.0054 101.276 14.0054 101.853 14.1698 102.635L18.7297 95.0989C18.7297 94.9342 18.6475 94.3164 18.7708 94.0282C18.7297 93.987 18.6064 93.9458 18.4421 93.9458Z" />
<path d="M14.2109 102.757L14.1698 102.51C14.1698 102.386 13.8822 99.3799 14.2109 97.9797C14.5395 96.703 15.4022 95.5911 16.4703 95.1792C17.4562 94.7674 18.3189 95.5087 18.36 95.5087L18.4011 95.5499L18.36 95.5911C18.36 95.5911 17.9081 96.5795 17.374 97.4443C16.84 98.3092 14.3752 102.51 14.3341 102.551L14.2109 102.757ZM17.1276 95.2204C16.9633 95.2204 16.7578 95.2616 16.5524 95.344C15.7308 95.6734 14.7449 96.5795 14.3752 98.0621C14.1287 99.2152 14.252 101.563 14.3341 102.304C14.8271 101.439 16.7989 98.1444 17.2508 97.4031C17.7027 96.6618 18.1135 95.8382 18.2367 95.6323C18.0724 95.5499 17.6616 95.2616 17.1276 95.2204Z" />
<path d="M9.44558 110.298L9.4045 110.174C8.54181 108.445 8.87046 105.191 10.1029 102.803C11.2942 100.496 14.4984 96.9546 14.5395 96.9134L14.8682 96.584L14.6628 96.9958C13.5947 99.3433 14.0876 101.485 14.252 102.267C14.293 102.556 14.3341 102.638 14.293 102.679C14.252 102.761 13.6358 103.915 13.1428 104.944C12.239 106.715 12.0747 107.086 12.0336 107.127C11.9515 107.209 10.2261 109.351 9.52774 110.133L9.44558 110.298ZM14.3752 97.3665C13.5536 98.2725 11.212 100.991 10.2261 102.885C9.03478 105.191 8.70613 108.28 9.48666 110.01C9.93854 109.433 11.8693 107.127 11.9104 107.045C11.9515 106.962 12.4855 105.891 12.9785 104.903C13.7179 103.462 14.0466 102.72 14.1287 102.597C14.1287 102.556 14.0876 102.432 14.0876 102.308C13.9644 101.567 13.5125 99.5904 14.3752 97.3665Z" />
<path d="M19.7981 91.4324L19.7156 91.3086C19.7156 91.3086 19.7156 91.3086 19.7569 91.3086L19.7981 91.4324Z" />
<path d="M8.91154 110.256C8.91154 110.256 8.87045 109.845 8.87045 109.145H9.03478C9.03478 109.35 9.03477 109.556 9.07585 109.721C9.07585 109.886 9.07586 110.051 9.11694 110.215L8.91154 110.256Z" />
<path d="M8.82937 109.139C8.66505 104.279 10.0618 101.314 10.0618 101.314C13.1017 95.013 19.4691 91.5124 19.7156 91.3477L19.7978 91.4712C19.4281 91.6771 13.4714 96.3308 10.9655 100.532C9.15801 103.579 8.95261 107.244 8.99369 109.139H8.82937ZM10.2261 101.355C10.2261 101.396 9.8153 102.261 9.44558 103.867C9.73314 102.714 10.185 101.561 10.8423 100.449C12.7731 97.1957 16.6757 93.7363 18.6065 92.1713C16.5935 93.5304 12.4444 96.6603 10.2261 101.355Z" />
<path d="M14.4984 102.347L14.4574 102.223C14.4574 102.182 14.2109 101.606 14.3752 99.464C14.5395 97.199 15.4844 96.3341 16.306 95.7987C17.2097 95.2222 18.0724 95.8399 18.0724 95.8399L18.1135 95.8811L17.9902 96.2106L17.9081 96.1694C17.4973 95.9223 17.0043 95.8399 15.813 97.2401C14.7038 98.558 15.1146 101.358 15.1146 101.358V101.4L14.4984 102.347ZM17.1686 95.6752C16.9222 95.6752 16.6757 95.7164 16.3881 95.9223C15.5665 96.4577 14.6628 97.2813 14.5395 99.464C14.4163 100.988 14.5395 101.688 14.5806 101.976L14.9914 101.358C14.9503 101.029 14.6217 98.4344 15.6898 97.1578C16.7578 95.8811 17.374 95.7575 17.9081 96.0458L17.9492 95.9635C17.8259 95.8811 17.5384 95.7164 17.1686 95.6752Z" />
<path d="M18.8118 93.9448L18.1135 93.9036L18.1545 93.7801C18.4421 93.2447 19.2226 92.7505 19.2637 92.7505L19.428 92.627L19.0994 93.5742C18.9351 93.7389 18.8118 93.9036 18.8118 93.9448ZM18.3599 93.7801H18.7297C18.7707 93.7389 18.8529 93.5742 18.9762 93.4918L19.1405 92.9976C18.9351 93.1623 18.5653 93.4918 18.3599 93.7801Z" />
<path d="M9.5688 109.68C9.52772 109.68 9.48664 109.68 9.44556 109.639C9.03476 109.474 8.91152 108.527 9.03476 106.756C9.24016 103.585 12.0747 99.961 12.1158 99.9198L12.4444 99.4668L12.239 100.002C10.2261 104.697 10.3493 105.644 10.5958 105.809C11.0888 106.097 13.0195 103.997 14.1287 102.597L14.2519 102.679C14.1287 102.885 11.0066 108.198 10.2672 109.104C10.0618 109.515 9.81528 109.68 9.5688 109.68ZM11.9104 100.538C11.1298 101.65 9.40448 104.326 9.24016 106.797C9.07584 109.021 9.3634 109.474 9.52772 109.557C9.69204 109.598 9.93852 109.433 10.2261 109.062C10.7601 108.362 12.732 105.068 13.6768 103.503C12.7731 104.574 11.1298 106.303 10.5547 105.974C10.2261 105.768 10.0207 104.944 11.9104 100.538Z" />
<path d="M9.24018 110.257L9.1991 110.216C9.1991 110.216 9.1991 110.216 9.1991 110.175V110.134C9.28126 109.022 10.5547 99.2615 15.32 94.5254L15.4433 94.6489C15.4022 94.6901 11.6639 98.8084 9.36342 110.216V110.257H9.24018ZM14.3752 95.8844C11.5407 99.5909 10.2261 105.109 9.69206 108.075C10.8423 103.256 12.198 99.9616 13.1839 97.9848C13.6358 97.1199 14.0055 96.4198 14.3752 95.8844Z" />
<path d="M232.552 90.3234C231.813 90.3234 230.745 90.0351 229.553 88.882L229.512 88.8408L235.797 82.4986C235.51 82.2103 234.031 80.6454 235.017 77.9685C236.167 74.7974 238.632 72.9853 242.781 72.3264C245.041 71.9557 248.615 71.6674 251.86 71.8734C255.804 72.1616 258.268 73.1912 259.09 74.9209C259.09 74.9209 259.501 75.5387 259.46 76.4447C259.419 77.2683 258.967 78.545 257.159 79.8629C253.585 82.4986 244.219 84.9696 238.221 84.8872L233.62 90.1587C233.579 90.1175 233.209 90.3234 232.552 90.3234ZM229.677 88.7996C231.731 90.7764 233.374 90.0763 233.538 89.9939L238.139 84.7225H238.18C244.137 84.8049 253.462 82.3339 257.036 79.6982C258.802 78.4215 259.254 77.186 259.295 76.3623C259.336 75.4975 258.967 74.9209 258.967 74.9209C256.995 71.0085 246.643 71.7498 242.781 72.3675C238.673 73.0265 236.249 74.7973 235.099 77.9273C234.072 80.8101 235.88 82.3751 235.88 82.3751L235.921 82.4162L235.88 82.4574L229.677 88.7996Z" />
<path d="M237.071 82.4141L230.498 89.4564C230.498 89.4564 230.498 89.5387 230.786 89.6623L237.4 82.62C237.4 82.5788 237.235 82.4141 237.071 82.4141Z" />
<path d="M289.941 92.6692C288.544 91.9691 283.985 93.5753 283.451 93.8636C282.875 94.1518 282.465 94.5225 282.424 95.0579C282.382 97.3229 283.204 97.57 283.204 97.57C285.874 98.3937 290.188 96.2522 290.188 96.2522C291.091 95.5109 290.886 93.4517 289.941 92.6692ZM289.161 96.4169C288.544 96.9523 284.683 97.9819 283.286 97.4053C283.286 97.4053 282.588 97.1582 282.711 96.5405C282.711 96.5405 287.066 96.5816 289.037 95.8815C289.037 95.8815 289.777 95.8815 289.161 96.4169ZM289.284 93.3693C289.243 93.5753 289.202 93.9047 289.284 94.193C289.284 94.193 289.202 94.2754 288.996 94.3989C288.791 94.4813 282.547 95.6344 282.547 95.6344C282.547 95.6344 282.506 94.5225 283.492 94.1107C284.478 93.6988 288.421 92.9575 288.873 92.9987C289.325 93.0399 289.736 93.2046 289.818 93.9047C289.859 93.9047 289.325 93.2046 289.284 93.3693Z" />
</svg>
