<svg fill="none" stroke="#fff" stroke-width="1px" xmlns="http://www.w3.org/2000/svg">
<path d="M436.193 352.434C433.693 352.434 431.393 352.133 429.093 351.532C428.793 351.431 394.393 345.918 376.793 339.602C367.793 336.394 360.893 322.158 358.293 301.707C355.393 279.251 358.093 253.186 365.693 228.324C381.393 177.096 398.893 139.301 466.793 156.845C466.893 156.845 482.893 159.953 494.993 182.208C502.393 194.74 506.893 211.482 507.893 230.73C508.193 234.138 508.393 237.647 508.493 241.256C508.193 245.667 507.793 249.978 507.293 254.289C506.893 258.499 506.393 262.609 505.693 266.619C501.793 290.68 492.693 312.735 480.193 328.574C467.993 344.013 453.693 352.434 439.793 352.233C439.693 352.233 439.693 352.233 439.593 352.233C438.593 352.434 437.393 352.434 436.193 352.434ZM437.393 153.035C421.193 152.835 408.393 157.246 398.093 166.369C383.593 179.201 374.893 200.454 366.393 228.424C358.793 253.286 356.193 279.251 358.993 301.607C361.593 321.858 368.293 335.893 377.093 339C394.593 345.316 428.893 350.83 429.293 350.93C432.593 351.732 436.193 351.933 439.993 351.632C439.993 351.632 440.093 351.632 440.193 351.632C453.893 351.832 468.093 343.512 480.193 328.173C492.693 312.334 501.693 290.479 505.593 266.419C506.193 262.509 506.793 258.399 507.193 254.188C507.693 249.878 508.093 245.567 508.393 241.156C508.293 237.647 507.993 234.038 507.793 230.629C506.793 211.482 502.393 194.74 494.993 182.409C482.993 160.454 467.293 157.346 467.093 157.346C455.893 154.639 446.093 153.136 437.393 153.035Z" fill="none" stroke="#fff"/>
<path d="M469.993 289.577C469.993 289.577 464.993 301.807 457.693 308.324L459.393 316.344C459.393 316.344 465.093 312.334 471.293 303.612C477.493 294.89 478.593 291.682 478.393 291.482C478.193 291.281 469.993 289.577 469.993 289.577Z" fill="none" stroke="#fff"/>
<path d="M496.393 222.409C495.193 222.509 487.593 227.121 487.593 227.121C491.393 242.76 486.393 266.72 486.393 266.72L487.193 264.013C487.693 260.805 489.393 250.88 489.693 253.286C489.993 255.592 487.093 267.221 487.793 267.622C488.493 268.023 494.093 270.529 494.493 270.128C494.793 269.727 497.293 271.331 498.893 247.973C500.393 224.514 497.393 222.309 496.393 222.409Z" fill="none" stroke="#fff"/>
<path d="M466.493 177.296C465.293 177.096 463.593 183.812 463.493 184.414C463.493 184.414 471.793 187.221 480.493 203.462C480.493 203.462 480.393 204.063 481.793 203.963C483.193 203.863 488.893 201.356 489.693 198.549C489.593 198.65 483.293 180.905 466.493 177.296Z" />
<path d="M428.893 195.542C421.293 204.364 421.493 207.672 421.593 210.68C422.993 206.269 426.593 201.858 432.793 194.74C441.593 184.715 445.493 185.817 445.493 185.817C445.093 186.419 444.693 186.82 444.693 186.82L447.293 184.614C450.293 181.908 448.993 179.301 448.993 179.301C443.793 179 436.393 186.82 428.893 195.542Z" />
<path d="M442.193 323.261C445.393 327.171 441.093 324.865 441.093 324.865C429.493 322.158 419.793 309.827 419.793 309.827C419.793 309.827 419.793 311.732 424.493 316.043C429.193 320.354 442.293 331.081 443.793 331.181C445.393 331.381 445.793 328.674 445.793 328.674C445.793 326.669 441.793 322.86 442.193 323.261Z" />
<path d="M439.493 261.907C439.893 261.707 439.993 261.507 439.993 261.507C439.893 261.507 439.793 261.707 439.493 261.907Z" />
<path d="M438.093 248.173C433.793 246.168 417.193 237.848 412.793 236.344C411.293 235.842 410.693 236.845 409.993 240.153C409.293 243.462 407.793 253.687 407.493 259.903C407.193 266.118 407.893 288.173 410.793 288.975C410.793 288.975 421.993 277.246 426.393 273.336C430.293 269.928 437.393 263.411 439.393 261.807C436.293 264.013 419.493 275.341 417.093 277.346C417.093 277.346 419.793 273.837 422.493 271.03C425.193 268.223 430.993 263.111 430.493 255.391C429.993 247.672 418.093 241.457 418.093 241.457C418.093 241.457 437.793 249.076 439.293 249.577C439.493 249.677 442.393 250.178 438.093 248.173ZM423.093 252.685C424.093 256.494 422.893 260.705 420.693 263.913C416.393 270.228 409.493 275.842 409.493 275.842C409.493 275.842 406.493 258.599 411.493 240.554C411.493 240.554 422.193 248.875 423.093 252.685Z" />
<path d="M482.993 266.519C482.993 266.519 482.893 266.519 482.893 266.419C482.993 266.519 482.993 266.519 482.993 266.519Z" />
<path d="M479.593 232.033C479.593 232.033 478.193 232.835 476.293 234.238C477.393 233.537 478.493 232.835 479.593 232.033Z" />
<path d="M452.493 242.86C449.193 242.459 445.993 247.071 445.293 252.985C444.593 258.9 446.793 264.113 450.093 264.514C453.393 264.915 456.693 260.404 457.293 254.389C457.893 248.374 455.793 243.261 452.493 242.86Z" />
<path d="M451.993 243.862C448.693 243.461 445.593 247.572 444.993 252.885C444.393 258.198 446.493 262.91 449.793 263.211C452.993 263.612 456.193 259.502 456.793 254.188C457.393 248.875 455.193 244.263 451.993 243.862Z" />
<path d="M452.293 244.364C449.293 244.063 446.393 247.873 445.793 253.086C445.193 258.198 447.193 262.71 450.193 263.01C453.193 263.311 456.193 259.502 456.793 254.289C457.293 249.176 455.293 244.665 452.293 244.364Z" />
<path d="M449.293 231.03C448.893 223.712 448.593 184.213 448.593 184.213L444.093 196.243C444.093 196.243 443.293 195.742 443.793 206.068C444.293 216.394 442.393 227.622 439.393 230.028C436.393 232.534 430.593 226.519 430.593 226.519C433.993 232.835 441.793 244.765 445.793 243.863C449.793 243.06 449.693 238.349 449.293 231.03ZM447.793 238.449C447.493 241.156 445.993 243.161 444.493 243.06C442.993 242.86 441.993 240.554 442.193 237.847C442.493 235.141 443.993 233.136 445.493 233.236C447.093 233.436 448.093 235.742 447.793 238.449Z" />
<path d="M475.693 210.078C474.493 211.281 456.693 237.547 455.693 219.401C455.693 219.401 452.093 232.133 453.793 238.349C453.593 237.547 453.593 236.745 453.593 235.742C453.893 233.035 455.393 231.03 456.893 231.131C458.393 231.331 459.493 233.637 459.193 236.344C458.893 239.051 457.393 241.056 455.893 240.955C455.193 240.855 454.593 240.354 454.193 239.452C454.593 240.254 454.993 240.855 455.593 241.256C455.593 241.256 457.993 242.559 462.393 235.441C466.793 228.324 479.893 213.286 482.493 209.978C482.493 209.978 476.893 208.875 475.693 210.078Z" />
<path d="M478.193 264.414C475.393 263.211 466.293 258.299 465.793 250.579C465.393 243.462 472.193 237.346 476.393 234.239C459.093 245.868 459.093 248.875 459.093 252.284C459.093 252.284 459.093 255.391 460.793 256.895C462.793 259.201 481.093 265.817 482.893 266.419C482.493 266.419 481.493 265.918 478.193 264.414ZM463.293 251.883C463.093 253.988 461.893 255.692 460.793 255.592C459.593 255.492 458.893 253.587 459.093 251.482C459.293 249.276 460.393 247.672 461.593 247.772C462.793 247.873 463.593 249.777 463.293 251.883Z" />
<path d="M457.893 263.812C457.893 263.812 455.593 263.01 454.293 265.216C454.293 265.216 450.693 268.123 453.993 285.767C453.993 285.767 454.193 275.441 460.293 275.441L477.393 290.078C477.393 289.978 461.093 265.817 457.893 263.812ZM458.593 269.226C458.393 271.431 457.193 273.035 456.093 272.935C454.893 272.835 454.193 270.93 454.393 268.825C454.593 266.619 455.793 265.015 456.893 265.116C458.093 265.216 458.793 267.02 458.593 269.226Z" />
<path d="M446.093 266.419C444.693 265.116 439.293 267.321 430.393 283.462C421.493 299.702 419.993 309.025 419.993 309.025C419.993 309.025 430.293 286.168 432.993 282.76C432.993 282.76 437.293 278.65 439.793 280.955C442.293 283.261 440.893 315.041 440.893 315.041C440.893 315.041 445.793 282.66 446.793 278.148C447.493 273.537 448.093 268.324 446.093 266.419ZM443.493 276.444C441.893 276.244 440.893 273.938 441.193 271.231C441.493 268.524 442.993 266.519 444.493 266.619C445.993 266.82 447.093 269.126 446.793 271.833C446.493 274.539 444.993 276.544 443.493 276.444Z" />
<path d="M439.693 250.88C438.493 250.78 437.293 251.983 436.693 253.888C437.193 252.584 437.993 251.782 438.793 251.883C439.993 251.983 440.693 253.888 440.493 255.993C440.293 258.198 439.093 259.802 437.993 259.702C437.293 259.602 436.793 259 436.493 258.098C436.793 259.602 437.593 260.604 438.593 260.705C440.193 260.905 441.593 258.8 441.893 256.093C442.193 253.386 441.193 251.081 439.693 250.88Z" />
<path d="M754.093 260.003C753.793 260.003 721.893 258.198 710.293 253.186C704.893 250.88 709.993 235.742 716.993 214.69C720.993 202.86 725.493 189.326 728.693 176.193C734.993 150.329 740.793 134.289 752.093 128.675C758.293 125.567 765.993 125.968 775.393 129.878C775.693 129.978 782.493 132.183 787.293 147.221C790.293 155.642 791.893 167.371 791.693 180.203C791.693 182.609 791.693 184.614 791.693 186.619C791.393 190.73 790.993 194.74 790.493 198.85C790.393 199.552 790.293 200.354 790.193 201.056C786.993 225.316 780.893 242.259 772.193 251.482C767.493 257.296 762.593 260.103 757.893 259.602C756.493 259.802 755.293 259.903 754.093 260.003ZM761.393 127.171C757.993 127.171 754.993 127.772 752.193 129.176C741.193 134.69 735.193 151.331 729.193 176.294C725.993 189.527 721.493 202.96 717.493 214.79C710.793 234.74 705.593 250.479 710.393 252.484C721.993 257.396 753.693 259.201 753.993 259.201C755.193 259.101 756.393 259 757.593 258.8C761.993 259.301 766.793 256.594 771.393 250.88C780.093 241.757 786.093 224.815 789.293 200.755C789.393 200.053 789.493 199.251 789.593 198.549C790.093 194.439 790.493 190.529 790.793 186.419C790.793 184.514 790.793 182.409 790.793 180.003C790.893 167.271 789.293 155.642 786.393 147.221C781.693 132.584 774.993 130.279 774.893 130.279C769.993 128.374 765.493 127.271 761.393 127.171Z" />
<path d="M773.593 144.815C767.693 162.76 767.293 180.103 767.293 180.103C768.193 166.77 773.593 144.815 773.593 144.815Z" />
<path d="M769.493 208.675C768.593 208.274 767.993 209.076 767.993 209.076C771.293 212.985 772.793 217.396 773.193 217.998C774.193 218.299 776.593 219.101 776.593 219.101C776.393 218.198 774.793 215.492 774.793 215.492C774.793 215.492 770.393 209.176 769.493 208.675Z" />
<path d="M773.093 218.198C773.093 218.198 770.593 226.319 767.193 230.529L767.693 235.842C767.693 235.842 770.293 233.236 773.293 227.522C776.193 221.807 776.793 219.702 776.693 219.602C776.693 219.401 773.093 218.198 773.093 218.198Z" />
<path d="M786.493 173.888C785.993 173.888 782.493 176.895 782.493 176.895C783.793 187.321 780.993 203.261 780.993 203.261L781.393 201.457C781.693 199.251 782.693 192.735 782.793 194.339C782.893 195.943 781.293 203.562 781.593 203.863C781.893 204.163 784.293 205.868 784.493 205.567C784.693 205.266 785.693 206.369 786.993 190.83C788.193 175.291 786.893 173.888 786.493 173.888Z" />
<path d="M774.393 143.612C773.893 143.411 772.993 147.822 772.893 148.324C772.893 148.324 776.493 150.329 779.893 161.156C779.893 161.156 779.893 161.557 780.493 161.557C781.093 161.557 783.693 159.852 784.093 158.048C784.093 158.048 781.793 146.118 774.393 143.612Z" />
<path d="M757.393 155.241C753.893 160.955 753.793 163.161 753.793 165.166C754.493 162.259 756.193 159.351 759.093 154.74C763.193 148.123 764.893 148.925 764.893 148.925C764.693 149.326 764.493 149.627 764.493 149.627L765.693 148.224C767.093 146.519 766.593 144.715 766.593 144.715C764.393 144.414 760.993 149.527 757.393 155.241Z" />
<path d="M759.993 240.254C761.293 242.86 759.493 241.256 759.493 241.256C754.493 239.251 750.493 231.031 750.493 231.031C750.493 231.031 750.393 232.234 752.393 235.241C754.393 238.148 759.793 245.467 760.493 245.567C761.193 245.667 761.393 243.963 761.393 243.963C761.493 242.559 759.893 239.953 759.993 240.254Z" />
<path d="M760.393 199.451C760.593 199.251 760.593 199.151 760.593 199.251C760.593 199.251 760.493 199.251 760.393 199.451Z" />
<path d="M760.093 190.329C758.293 188.925 751.093 183.211 749.293 182.208C748.593 181.807 748.393 182.509 747.993 184.715C747.593 186.92 746.693 193.737 746.393 197.847C746.093 201.958 745.893 216.594 747.093 217.196C747.093 217.196 752.393 209.477 754.393 206.97C756.193 204.765 759.493 200.554 760.393 199.451C758.993 200.855 751.293 208.173 750.193 209.477C750.193 209.477 751.493 207.171 752.693 205.366C753.893 203.562 756.593 200.253 756.593 195.04C756.593 189.928 751.493 185.617 751.493 185.617C751.493 185.617 759.993 190.93 760.593 191.331C760.693 191.331 761.993 191.732 760.093 190.329ZM753.393 193.136C753.693 195.742 753.093 198.449 751.993 200.554C749.993 204.665 746.693 208.374 746.693 208.374C746.693 208.374 745.793 196.945 748.493 184.915C748.593 184.915 753.093 190.529 753.393 193.136Z" />
<path d="M778.093 165.466C778.193 165.366 778.193 165.366 778.093 165.466C778.193 165.466 778.193 165.466 778.093 165.466Z" />
<path d="M777.293 181.507C777.793 181.005 778.293 180.604 778.793 180.103C778.793 180.103 778.193 180.604 777.293 181.507Z" />
<path d="M763.593 202.259C762.893 201.256 761.593 203.061 761.593 203.061C762.193 202.559 762.993 202.66 762.993 202.66C763.993 203.061 763.293 207.873 763.293 207.873C762.693 210.98 760.093 233.336 759.793 233.837C759.493 234.439 760.093 230.429 760.593 222.108C760.993 213.787 760.393 212.183 759.593 211.682C758.793 211.181 756.993 213.286 756.993 213.286C757.393 212.985 757.493 213.286 757.493 213.286C758.693 216.093 755.993 237.647 755.993 237.647C755.993 237.647 758.093 238.449 759.593 239.351C761.093 240.254 761.693 243.361 761.693 243.361C761.893 241.958 762.093 233.837 762.093 230.629C762.193 227.421 763.093 214.589 763.893 208.875C764.793 203.161 763.593 202.259 763.593 202.259Z" />
<path d="M752.993 222.409C757.993 207.872 761.193 203.461 761.193 203.461C756.493 208.273 752.493 221.005 752.093 224.113C751.593 227.321 752.993 222.409 752.993 222.409Z" />
<path d="M771.893 206.97C770.893 205.166 769.093 200.354 768.093 200.454C767.193 200.554 766.793 201.757 766.793 201.757C767.093 201.156 767.493 200.755 768.193 200.955C768.893 201.256 772.193 209.677 773.293 211.883C774.393 214.188 776.793 218.9 776.793 218.9C778.293 219.401 780.293 221.908 780.293 221.908C780.093 220.805 778.893 218.499 777.693 216.795C776.593 215.191 772.893 208.775 771.893 206.97Z" />
<path d="M766.493 187.923C765.193 187.622 763.793 190.228 763.393 193.637C762.993 197.045 763.793 200.053 765.093 200.253C766.393 200.554 767.793 197.948 768.193 194.539C768.593 191.231 767.793 188.223 766.493 187.923Z"  stroke="white" stroke-width="0.3016" stroke-miterlimit="10"/>
<path d="M766.393 147.923L764.093 155.943C764.093 155.943 763.693 155.642 763.693 162.459C763.693 169.276 762.493 176.695 761.093 178.299C759.693 179.903 757.293 175.893 757.293 175.893C758.693 180.103 761.793 188.123 763.593 187.622C765.393 187.02 765.493 183.913 765.493 179.101C765.593 174.188 766.393 147.923 766.393 147.923ZM764.693 184.013C764.493 185.817 763.793 187.121 763.093 187.02C762.393 186.92 762.093 185.316 762.193 183.512C762.393 181.707 763.093 180.404 763.793 180.504C764.493 180.604 764.893 182.208 764.693 184.013Z" />
<path d="M777.693 165.467C777.093 166.269 768.593 183.512 768.593 171.381C768.593 171.381 766.693 179.802 767.293 183.913C767.193 183.411 767.193 182.81 767.293 182.208C767.493 180.404 768.193 179.101 768.893 179.201C769.593 179.301 769.993 180.905 769.793 182.71C769.593 184.514 768.893 185.817 768.193 185.717C767.893 185.617 767.593 185.316 767.493 184.715C767.593 185.216 767.793 185.617 768.093 185.918C768.093 185.918 769.093 186.82 771.193 182.108C773.293 177.497 779.493 167.572 780.693 165.467C780.593 165.467 778.193 164.665 777.693 165.467Z" />
<path d="M777.393 201.557C776.193 200.654 772.293 197.346 772.293 192.233C772.293 187.522 775.393 183.512 777.393 181.507C769.493 189.025 769.393 191.03 769.293 193.236C769.293 193.236 769.193 195.241 769.893 196.344C770.693 197.948 778.593 202.459 779.393 202.96C779.193 202.96 778.793 202.659 777.393 201.557ZM771.793 193.136C771.593 194.94 770.893 196.243 770.193 196.143C769.493 196.043 769.193 194.439 769.293 192.634C769.493 190.83 770.193 189.527 770.893 189.627C771.593 189.827 771.993 191.331 771.793 193.136Z" />
<path d="M767.693 201.055C766.993 200.955 766.293 202.258 766.093 204.063C765.893 205.867 766.293 207.371 766.893 207.572C767.593 207.672 768.293 206.369 768.493 204.564C768.793 202.76 768.393 201.156 767.693 201.055Z" />
<path d="M762.493 202.659C761.793 202.559 761.093 203.862 760.893 205.667C760.693 207.471 761.093 208.975 761.793 209.176C762.493 209.276 763.193 207.973 763.393 206.168C763.593 204.364 763.193 202.76 762.493 202.659Z" />
<path d="M760.693 192.133C759.993 192.033 759.293 193.336 759.093 195.141C758.893 196.945 759.293 198.449 759.993 198.649C760.593 198.75 761.393 197.446 761.593 195.642C761.793 193.837 761.393 192.233 760.693 192.133Z" />
<path d="M774.493 224.815C774.493 224.815 776.493 220.905 776.793 219.602C776.793 219.602 774.293 218.399 773.193 218.198L774.493 224.815Z" />
<path d="M459.093 174.188C459.093 174.188 448.593 220.103 452.193 238.449C452.193 238.449 453.693 201.055 465.893 176.494C465.893 176.494 467.193 172.183 459.093 174.188Z" />
<path d="M458.293 244.464C464.593 239.953 492.293 221.807 495.093 221.406C497.893 221.005 498.693 223.111 498.693 223.111C497.493 215.993 495.993 213.386 495.993 213.386C479.393 218.9 458.293 244.464 458.293 244.464Z" />
<path d="M413.593 221.607C413.593 221.607 411.493 225.115 409.393 238.048C409.393 238.048 411.093 233.837 414.693 235.742C418.293 237.647 435.993 245.366 444.693 246.669C444.693 246.77 415.493 227.922 413.593 221.607Z" />
<path d="M412.193 302.91C412.193 302.91 433.993 275.341 445.193 261.105C445.193 261.206 417.393 284.263 412.193 302.91Z" />
<path d="M450.593 267.121C446.593 275.842 448.393 335.091 448.393 335.091C448.393 335.091 452.593 334.489 454.593 333.186C456.593 331.883 455.293 326.369 455.293 326.369C449.493 302.108 450.593 267.121 450.593 267.121Z" />
<path d="M368.993 344.614C367.093 344.614 365.793 344.314 365.693 344.314C364.593 344.213 250.493 336.895 174.393 326.268H174.293L171.893 324.263C169.593 323.862 117.993 315.04 89.5929 309.326C61.2929 303.712 32.8929 293.386 31.2929 292.785L26.9929 293.186H26.8929C26.6929 293.186 10.6929 288.374 10.8929 275.642C10.9929 270.429 15.1929 268.223 16.2929 267.722C15.3929 264.614 6.69291 234.84 1.19291 204.564C-4.10709 175.592 9.3929 156.243 19.2929 142.108C20.3929 140.504 21.4929 139 22.4929 137.497C32.0929 123.261 54.2929 106.118 68.1929 99.6018L68.6929 99.4013C82.8929 92.6845 120.693 74.9401 191.893 81.6569C192.393 81.6569 244.293 77.5466 259.793 78.6494C259.693 76.4439 259.293 64.8148 268.293 62.3085C277.793 59.6018 279.093 60.7045 279.293 60.905V61.0053L280.093 63.5116C284.693 59.8023 333.893 20.905 360.293 13.5867C391.193 5.06543 493.593 -7.96715 612.893 6.46894C612.993 6.46894 624.593 7.57169 641.793 15.4915C657.593 22.7095 681.593 37.3461 705.993 65.7171C708.793 66.3186 748.693 74.8399 757.493 80.9552C763.793 85.3662 769.793 94.89 774.193 101.807C776.093 104.915 777.793 107.522 779.193 109.226C779.593 109.627 779.993 110.128 780.393 110.73C785.593 116.845 796.393 129.677 795.993 166.669C795.493 204.765 789.393 218.8 786.793 223.111L785.793 224.715L786.193 222.91C786.193 222.71 790.893 202.058 792.393 179.802C793.793 159.251 792.593 133.085 779.493 124.965C779.493 124.965 775.893 122.76 770.493 124.765C763.293 127.471 752.493 137.697 742.193 170.88C734.593 201.657 732.893 220.203 731.793 231.231C731.193 237.948 730.793 241.557 729.593 243.662C729.493 244.464 727.993 248.073 708.593 251.682C688.493 255.491 521.993 300.604 490.993 315.241L489.393 315.943L490.593 314.74C490.793 314.539 512.393 291.682 508.693 207.271C507.693 183.913 495.593 162.258 478.493 153.336C467.293 147.421 455.293 147.923 444.893 154.539C413.693 174.489 392.593 202.659 384.293 281.156C384.193 283.361 382.893 335.391 378.893 340.504C376.493 344.013 372.093 344.715 368.993 344.614ZM174.593 325.667C250.693 336.294 364.593 343.612 365.793 343.712C365.893 343.712 374.693 345.416 378.693 340.304C382.493 335.291 383.893 281.757 383.893 281.256C392.293 202.459 413.393 174.188 444.793 154.138C455.393 147.421 467.493 146.92 478.993 152.935C496.293 161.958 508.593 183.812 509.593 207.371C511.493 251.582 506.493 278.549 501.893 293.386C498.093 305.817 493.993 311.933 492.193 314.138C526.193 298.9 688.793 254.79 708.693 251.08C728.893 247.271 729.193 243.562 729.193 243.562V243.461L729.293 243.361C730.493 241.456 730.893 237.647 731.393 231.131C732.393 220.003 734.093 201.456 741.793 170.679C752.293 137.096 763.193 126.87 770.493 124.163C776.193 122.058 779.793 124.263 779.993 124.364C790.693 130.98 795.193 149.627 793.193 179.702C791.993 197.948 788.593 215.091 787.393 220.905C790.293 215.091 794.993 200.253 795.493 166.669C795.993 129.877 785.193 117.146 780.093 111.131C779.593 110.629 779.193 110.128 778.893 109.627C777.493 107.923 775.893 105.316 773.893 102.208C769.493 95.291 763.593 85.8675 757.293 81.5567C748.493 75.4414 706.293 66.4188 705.893 66.3186H705.793L705.693 66.2183C681.393 37.8474 657.493 23.311 641.693 16.093C624.593 8.27345 613.093 7.1707 612.893 7.1707C493.693 -7.26539 391.393 5.7672 360.493 14.2885C332.993 21.9075 280.693 64.0128 280.093 64.4138L279.793 64.7146L278.693 61.4063C278.493 61.306 276.893 60.6043 268.393 63.0103C258.993 65.7171 260.293 78.9501 260.393 79.1506V79.5517H259.993C244.993 78.3487 192.293 82.5592 191.793 82.5592C120.693 75.8424 82.9929 93.5867 68.7929 100.304L68.2929 100.504C54.3929 107.02 32.2929 124.063 22.7929 138.198C21.7929 139.702 20.7929 141.206 19.5929 142.81C9.7929 156.845 -3.7071 176.093 1.5929 204.765C7.3929 236.544 16.6929 267.822 16.7929 268.123L16.8929 268.424L16.5929 268.524C16.3929 268.624 11.3929 270.429 11.3929 275.943C11.1929 287.872 25.8929 292.584 26.8929 292.885L31.1929 292.484H31.2929C31.5929 292.584 60.5929 303.211 89.5929 309.025C118.493 314.84 171.393 323.862 171.893 323.963H171.993L174.593 325.667Z" />
<path d="M37.1929 285.166C36.9929 285.567 37.2929 285.467 36.9929 285.567C36.5929 285.567 35.8929 285.366 35.8929 285.366C35.8929 285.366 25.2929 289.677 24.9929 289.878C24.5929 290.078 24.1929 289.978 23.5929 289.677C22.9929 289.376 14.9929 285.266 12.0929 280.855C12.0929 280.855 14.7929 288.975 26.4929 292.785L30.8929 292.384L43.2929 285.166L42.3929 282.158C42.3929 282.158 37.4929 284.765 37.1929 285.166Z" />
<path d="M563.393 104.113C545.193 103.912 526.993 102.409 508.793 99.6017H508.593L508.693 99.4012C508.793 99.2007 518.593 78.9501 531.593 57.6969C543.593 38.0478 560.693 13.5867 574.593 8.27338C576.493 7.57163 583.893 5.16559 597.793 5.9676C612.293 6.7696 628.393 10.5791 645.693 17.4964C655.093 21.2057 666.893 29.5265 680.893 42.0578C692.393 52.3836 702.093 62.7095 705.693 66.6192L707.393 68.4238L703.793 77.5466H703.693C696.793 80.9551 676.693 89.0754 649.593 95.1907C629.693 99.7019 608.993 102.509 587.993 103.612C579.793 104.013 571.593 104.213 563.393 104.113ZM508.993 99.3009C535.293 103.311 561.893 104.714 587.993 103.311C608.893 102.208 629.593 99.4012 649.493 94.8899C676.493 88.7746 696.593 80.7546 703.393 77.2458L706.893 68.3235L705.293 66.7195C696.793 57.3962 667.293 26.4187 645.393 17.5967C628.193 10.7796 612.093 6.86986 597.593 6.06785C583.793 5.3661 576.493 7.67188 574.593 8.37364C560.793 13.5867 543.693 38.0478 531.693 57.5967C519.493 77.9475 509.993 97.1957 508.993 99.3009Z" />
<path d="M611.893 6.76855C611.893 6.76855 610.493 6.56855 608.193 6.26855C609.493 6.36855 610.693 6.56855 611.893 6.76855Z" />
<path d="M270.493 312.534C252.193 312.334 234.593 310.629 225.893 308.324C223.893 307.722 222.593 306.82 222.193 305.516C220.993 301.707 226.593 294.79 233.693 286.168L234.393 285.366C236.793 282.459 238.793 279.752 240.793 277.146C246.893 269.126 251.693 262.709 259.493 259.902C270.093 255.993 320.293 242.158 332.393 242.359C332.593 242.359 332.793 242.359 332.893 242.359C337.593 242.659 340.893 244.063 342.793 246.77C344.793 249.677 345.093 253.887 343.493 259.301C343.093 260.704 342.593 262.609 342.093 264.815C339.193 276.945 333.793 299.501 320.993 306.719C314.193 310.529 297.393 312.735 274.793 312.735C273.393 312.534 271.993 312.534 270.493 312.534ZM332.393 242.559C320.393 242.359 270.193 256.193 259.593 260.103C251.893 262.91 247.093 269.226 240.993 277.246C238.993 279.852 236.993 282.559 234.593 285.466L233.893 286.268C226.893 294.89 221.293 301.607 222.493 305.316C222.893 306.519 223.993 307.421 225.993 307.923C235.293 310.429 255.293 312.233 274.893 312.233C297.493 312.233 314.293 310.128 320.993 306.319C333.693 299.1 339.093 276.644 341.993 264.614C342.493 262.409 342.993 260.504 343.393 259.1C344.893 253.787 344.693 249.677 342.693 246.87C340.893 244.364 337.693 242.86 333.093 242.659C332.793 242.559 332.593 242.559 332.393 242.559Z" />
<path d="M158.993 174.89C118.993 174.389 55.2929 164.664 55.2929 164.664C55.2929 164.664 39.1929 163.562 37.3929 154.339C35.5929 145.115 37.1929 140.404 45.6929 130.379C45.6929 130.379 49.7929 125.667 63.7929 117.045C71.0929 112.534 111.393 89.1757 189.193 82.0579C189.193 82.0579 144.793 84.3636 100.393 99.9025C90.1929 103.511 79.8929 107.822 70.1929 112.935C70.1929 112.935 69.2929 113.336 67.7929 114.038C59.5929 118.048 33.3929 132.384 35.7929 151.131C38.0929 164.564 50.5929 164.464 61.9929 166.168C73.4929 167.872 146.793 177.597 166.793 175.291C186.693 173.085 206.693 169.577 238.993 150.329C271.293 131.08 318.693 103.511 395.693 91.7822C395.693 91.7822 319.593 97.7972 235.093 152.033C235.193 152.133 198.993 175.391 158.993 174.89Z" />
<path d="M716.393 100.203C716.093 100.003 694.493 88.1733 686.193 85.1658L685.993 85.667C693.993 88.5743 714.393 99.7021 715.993 100.604C721.293 124.063 717.193 147.622 701.893 181.807C695.793 195.341 684.593 207.271 668.493 216.995C655.193 225.116 641.093 230.128 632.793 233.136C631.193 233.737 629.793 234.238 628.593 234.639C622.493 236.945 605.793 242.058 584.093 248.173C565.693 253.386 549.593 257.797 548.193 257.898C547.893 257.898 547.593 257.797 547.393 257.597C545.993 255.993 547.093 249.978 547.093 249.878C551.093 223.913 556.193 186.118 557.593 153.938C558.493 134.69 557.593 126.369 557.593 126.269C556.993 122.058 555.093 118.048 551.793 114.439C549.093 111.532 545.693 108.825 541.393 106.419C534.093 102.309 527.093 100.404 526.993 100.404L526.893 100.905C526.993 100.905 533.993 102.81 541.193 106.92C545.393 109.326 548.893 111.933 551.493 114.84C554.693 118.349 556.693 122.259 557.193 126.369C557.193 126.469 558.293 134.69 557.193 153.938C555.393 186.218 550.693 223.913 546.693 249.878C546.693 250.178 545.593 256.193 547.093 257.998C547.393 258.299 547.693 258.499 548.093 258.499C548.093 258.499 548.193 258.499 548.293 258.499C549.693 258.399 565.893 254.088 584.293 248.775C606.093 242.559 622.693 237.547 628.893 235.141C630.093 234.74 631.493 234.238 632.993 233.637C641.393 230.629 655.393 225.617 668.793 217.396C684.893 207.572 696.193 195.642 702.393 182.008C717.793 147.622 721.893 124.063 716.493 100.404L716.393 100.203Z" />
<path d="M128.593 279.351C98.0929 278.95 75.6929 273.938 61.6929 269.426C43.8929 263.712 35.1929 257.597 35.0929 257.597C18.2929 245.166 9.69293 223.812 7.19293 213.086C5.49293 205.767 5.29292 201.356 6.59292 200.153C6.89292 199.953 7.29293 199.652 7.99293 199.853C9.39293 200.254 10.6929 200.554 12.0929 200.955C23.4929 204.063 36.4929 207.672 72.7929 212.985C100.193 216.995 193.693 226.92 203.893 227.822C209.493 228.324 212.693 231.131 214.293 233.336C216.093 235.742 216.593 238.048 216.593 238.148C217.693 241.757 216.493 246.569 213.393 251.281C208.593 258.299 192.293 275.141 144.193 279.151C138.693 279.351 133.593 279.451 128.593 279.351ZM7.49293 200.354C7.29293 200.354 7.09293 200.454 6.99293 200.554C6.39293 201.156 5.69292 203.562 7.79292 212.885C10.1929 223.512 18.7929 244.765 35.4929 256.995C35.7929 257.196 65.8929 277.847 128.693 278.649C133.693 278.75 138.793 278.649 144.193 278.449C192.093 274.439 208.293 257.797 212.993 250.78C216.093 246.269 217.193 241.657 216.193 238.148C216.193 238.048 215.693 235.842 213.993 233.537C211.693 230.429 208.293 228.624 203.993 228.324C193.793 227.421 100.193 217.497 72.8929 213.487C36.4929 208.173 23.5929 204.564 12.0929 201.456C10.6929 201.055 9.39293 200.755 7.99293 200.354C7.69293 200.454 7.59293 200.354 7.49293 200.354Z" />
<path d="M33.993 247.471C33.993 247.471 33.9929 247.371 33.8929 247.371C33.8929 247.471 33.993 247.471 33.993 247.471Z" />
<path d="M33.8929 247.371C32.8929 246.068 25.0929 234.84 19.3929 203.863C19.3929 203.863 21.9929 231.732 33.8929 247.371Z" />
<path d="M47.1929 253.286C46.1929 251.983 37.8929 237.046 34.4929 207.371C34.4929 207.371 35.3929 237.747 47.1929 253.286Z" />
<path d="M56.3929 223.111C55.4929 218.7 54.8929 214.489 54.5929 210.78C54.5929 210.78 54.8929 215.792 55.9929 223.01C56.1929 223.111 56.2929 223.111 56.3929 223.111Z" />
<path d="M80.8929 227.121C80.9929 227.121 80.9929 227.121 81.0929 227.121C81.1929 227.121 81.1929 227.121 81.2929 227.121C81.3929 227.121 81.5929 227.121 81.6929 227.121C81.0929 223.311 80.4929 219.401 79.9929 215.191C79.9929 215.191 80.0929 220.003 80.8929 227.02C80.8929 227.121 80.8929 227.121 80.8929 227.121Z" />
<path d="M109.893 231.03C109.993 231.03 110.093 231.03 110.193 231.03C109.393 227.121 108.693 222.91 107.993 218.599C107.993 218.599 108.393 223.612 109.493 231.03C109.593 231.131 109.793 231.03 109.893 231.03Z" />
<path d="M153.593 272.133C152.893 270.73 145.593 250.579 141.193 222.409C141.293 222.409 142.393 248.274 153.593 272.133Z" />
<path d="M188.193 263.411C187.593 261.908 181.693 240.454 179.793 226.419C179.893 226.419 179.493 241.457 188.193 263.411Z" />
<path d="M216.293 238.248C61.3929 228.324 20.3929 212.785 13.0929 209.376C61.3929 233.436 216.293 238.248 216.293 238.248Z" />
<path d="M13.0929 209.375C12.5929 209.175 12.1929 208.875 11.7929 208.675C11.6929 208.675 12.0929 208.875 13.0929 209.375Z" />
<path d="M120.993 242.459C120.993 242.559 120.993 242.559 120.893 242.659C120.993 242.96 120.993 243.361 121.093 243.662C169.293 248.374 214.093 248.574 214.093 248.574C176.793 247.572 146.193 245.266 120.993 242.459Z" />
<path d="M39.5929 229.326C39.4929 228.925 39.2929 228.424 39.1929 227.923C39.1929 227.923 39.1929 227.923 39.1929 227.822C21.6929 222.81 15.3929 218.9 15.3929 218.9C21.4929 223.01 29.7929 226.519 39.5929 229.527C39.6929 229.527 39.6929 229.426 39.5929 229.326Z" />
<path d="M42.0929 238.95C27.9929 234.439 22.0929 230.93 22.0929 230.93C27.6929 234.539 34.6929 237.747 42.5929 240.554C42.4929 239.953 42.2929 239.451 42.0929 238.95Z" />
<path d="M123.093 254.289C123.193 254.69 123.193 254.99 123.193 255.391C166.993 259.301 206.493 258.599 206.493 258.599C173.593 258.299 146.093 256.594 123.093 254.289Z" />
<path d="M123.793 265.817C123.693 265.918 123.593 266.018 123.493 266.118C131.693 266.92 140.593 267.522 150.293 268.023C142.193 267.622 133.193 266.92 123.793 265.817Z" />
<path d="M46.0929 249.577C41.1929 247.772 36.4929 245.767 32.0929 243.662C32.0929 243.662 35.5929 246.97 46.4929 251.181C46.2929 250.68 46.1929 250.178 46.0929 249.577Z" />
<path d="M186.393 269.226C173.293 269.025 161.293 268.624 150.293 268.123C171.593 269.426 186.393 269.226 186.393 269.226Z" />
<path d="M272.893 310.73C250.393 310.429 234.293 307.822 231.493 305.717C230.393 304.915 229.893 304.013 229.993 303.111C230.193 300.905 233.293 299.301 233.393 299.201C233.893 299.201 279.893 300.905 293.893 293.085C307.293 285.567 314.993 249.075 315.593 245.968L305.693 247.371L305.593 247.07C319.693 243.361 328.893 242.559 331.393 242.359C331.593 242.359 331.793 242.359 332.093 242.258C335.293 241.958 341.993 241.356 344.193 249.075C346.493 257.296 333.993 290.679 333.393 292.183C325.693 308.825 312.593 308.925 312.093 308.825C297.893 310.429 284.493 310.93 272.893 310.73ZM233.493 299.501C233.193 299.702 230.393 301.306 230.293 303.111C230.193 303.913 230.693 304.715 231.693 305.416C235.993 308.524 270.793 313.035 312.093 308.524C312.493 308.524 325.493 308.524 333.093 291.983C333.193 291.682 346.193 257.196 343.893 249.075C341.793 241.557 335.293 242.158 332.193 242.459C331.893 242.459 331.693 242.459 331.493 242.559C329.193 242.659 320.993 243.461 308.293 246.569L316.093 245.466V245.667C315.993 246.068 308.193 285.366 294.193 293.186C280.193 301.105 235.093 299.501 233.493 299.501Z" />
<path d="M39.4929 222.208L39.3929 222.308L39.2929 222.408C39.3929 222.408 39.3929 222.308 39.4929 222.208Z" />
<path d="M38.8929 223.009C38.8929 222.909 38.9929 222.809 39.0929 222.709C38.9929 222.909 38.9929 222.909 38.8929 223.009Z" />
<path d="M125.993 262.609C125.693 261.005 120.993 236.344 120.993 236.344C120.993 236.344 119.693 232.434 115.593 231.632C111.393 230.83 42.6929 220.604 42.6929 220.604C42.6929 220.604 41.2929 220.604 39.7929 222.108C40.0929 221.807 40.4929 221.507 41.0929 221.406L115.093 232.735C115.093 232.735 118.093 234.238 118.593 236.845C119.093 239.351 123.893 262.409 124.193 264.614C124.193 264.614 123.793 266.218 122.893 267.221C123.593 266.92 124.293 266.619 124.793 266.419C125.893 265.918 126.293 264.113 125.993 262.609Z" />
<path d="M38.5929 224.915C38.5929 225.817 38.8929 226.82 39.0929 227.822C39.1929 228.324 39.4929 229.827 39.9929 231.933C39.2929 228.624 38.7929 225.918 38.5929 224.915Z" />
<path d="M29.0929 290.479L31.0929 292.885C77.7929 312.534 173.093 324.965 173.093 324.965L171.493 321.958C74.0929 308.524 29.0929 290.479 29.0929 290.479Z" />
<path d="M554.593 103.01C536.893 102.81 526.593 101.607 526.393 101.507H526.193L527.093 99.9026C527.193 99.7021 537.893 72.6344 548.293 52.6845C553.893 41.9577 558.693 34.3387 563.593 28.9252C568.793 23.0104 574.193 19.6018 579.893 18.2986C606.393 12.3838 632.693 15.5918 656.093 27.6219C677.293 38.6495 699.093 61.2058 699.693 62.1081C701.393 64.8149 703.993 76.444 704.093 76.9452V77.0455L703.993 77.1457C703.893 77.2459 694.693 83.0605 685.993 85.9678C676.593 89.1758 667.193 91.8826 631.593 97.8976C599.793 102.409 573.093 103.311 554.593 103.01ZM526.593 101.306C530.093 101.707 571.893 106.018 631.493 97.6971C666.993 91.682 676.393 88.9753 685.793 85.8675C694.093 83.0605 702.693 77.7472 703.693 77.1457C703.393 75.9427 700.893 64.9151 699.393 62.5091C698.393 60.9051 676.393 38.6495 655.893 28.1231C632.593 16.0931 606.393 12.8851 579.893 18.7998C568.993 21.2059 559.593 31.4314 548.393 53.0855C537.993 73.0354 527.293 100.003 527.193 100.304L526.593 101.306Z" />
<path d="M487.093 93.4865C486.493 93.3863 440.993 85.7672 421.293 88.875C420.993 88.7748 392.793 83.5617 344.493 82.3587C296.293 81.1557 276.993 79.6519 276.893 79.6519H276.593L276.793 79.4515C276.893 79.3512 288.993 65.6169 308.493 50.2785C331.493 32.1332 351.393 21.0053 361.393 16.9953C361.593 16.9953 383.793 13.4865 418.093 11.4815C449.693 9.57675 498.193 8.57426 550.093 14.1883L551.093 14.2886L550.793 14.489C550.493 14.6895 532.993 27.0204 487.093 93.4865ZM435.293 87.8725C456.493 88.1733 485.093 92.885 486.993 93.1858C529.493 31.5316 547.693 16.494 550.193 14.489H549.893C497.993 8.77475 449.493 9.87753 417.893 11.7823C384.093 13.7873 361.993 17.1958 361.293 17.2961C351.293 21.3061 331.493 32.4339 308.493 50.479C290.393 64.7146 278.693 77.5467 277.093 79.4515C279.693 79.652 299.493 80.9552 344.393 82.1582C391.993 83.3612 420.193 88.474 421.193 88.6745C425.093 88.073 429.993 87.7723 435.293 87.8725Z" />
<path d="M587.893 19.4012L618.593 20.905C634.693 24.0127 655.693 34.3385 655.693 34.3385L677.493 81.0553L676.793 81.6568C674.693 83.0603 643.593 89.5766 643.593 89.5766C664.793 86.4689 676.393 82.9601 676.393 82.9601L677.893 82.4588L677.993 83.2608L679.893 81.7571L654.893 29.9275C627.293 12.9852 587.893 19.4012 587.893 19.4012Z" />
<path d="M249.193 185.015C237.493 184.915 234.693 179.401 234.493 179.101C233.793 177.797 234.093 175.792 235.393 173.186C241.293 160.955 268.693 137.196 287.293 133.386C310.093 128.474 354.793 127.07 371.593 126.569C374.693 126.469 376.893 126.369 377.893 126.369C381.693 126.168 383.093 126.87 383.593 127.471C383.993 127.973 383.893 128.374 383.893 128.374C371.093 142.108 345.493 158.449 345.293 158.649C316.593 178.198 256.293 184.514 255.693 184.514C253.293 184.915 251.193 185.116 249.193 185.015ZM377.893 126.77C376.893 126.87 374.693 126.87 371.593 126.97C354.793 127.471 310.093 128.775 287.293 133.687C268.793 137.497 241.593 161.156 235.693 173.286C234.493 175.792 234.193 177.697 234.793 178.9C236.093 181.507 242.093 185.918 255.593 184.213C256.193 184.113 316.293 177.897 344.993 158.349C345.293 158.148 370.793 141.908 383.493 128.173C383.493 128.073 383.493 127.872 383.293 127.572C382.993 127.271 381.793 126.569 377.893 126.77Z" />
<path d="M253.193 183.812C252.293 183.812 251.393 183.812 250.493 183.712C243.493 183.211 238.893 181.106 237.093 177.697C236.693 176.895 235.893 173.687 242.593 165.867C249.093 158.248 260.193 149.226 275.493 139C275.693 138.9 297.293 126.77 376.193 127.772C377.693 127.772 379.193 127.772 380.793 127.873H380.893L380.993 127.973C380.993 127.973 381.993 129.777 379.693 131.482C379.393 131.682 378.893 132.183 378.093 132.985C372.493 138.499 355.593 155.141 322.493 169.076C322.393 169.176 307.993 176.193 260.693 183.411C260.493 183.411 257.293 183.812 253.193 183.812ZM275.693 139.301C260.393 149.527 249.393 158.449 242.893 166.068C237.693 172.183 236.693 175.993 237.393 177.497C241.493 185.617 260.293 183.111 260.493 183.111C307.693 175.893 322.093 168.875 322.193 168.775C355.293 154.84 372.193 138.198 377.693 132.785C378.493 131.983 379.093 131.482 379.393 131.181C381.193 129.878 380.793 128.574 380.693 128.274C379.193 128.274 377.693 128.173 376.193 128.173C297.693 127.171 276.093 139.101 275.693 139.301Z" />
<path d="M253.493 181.707C250.193 181.707 247.593 181.306 245.593 180.805C239.393 179 240.493 174.489 240.493 174.489C244.993 165.767 261.693 151.03 268.893 146.118C276.093 141.206 282.393 137.396 292.593 135.692C302.393 134.088 325.593 131.983 343.393 130.479C362.093 128.975 380.093 127.672 381.193 127.672C382.193 127.772 382.293 128.875 382.293 129.476V129.577C381.493 131.08 372.893 139.201 372.493 139.602C372.293 139.802 352.293 153.737 338.293 161.256C325.593 168.073 322.693 168.875 306.493 173.186C304.693 173.687 302.693 174.188 300.593 174.79C278.893 179.602 263.293 181.907 253.493 181.707ZM381.093 128.173C377.893 128.173 310.293 133.186 292.593 136.093C282.493 137.797 276.193 141.607 268.993 146.419C261.793 151.231 245.193 165.968 240.693 174.589C240.693 174.689 239.693 178.8 245.493 180.504C253.393 182.81 271.393 180.905 300.393 174.489C302.493 173.887 304.493 173.386 306.293 172.885C322.393 168.574 325.293 167.772 337.993 160.955C351.993 153.436 371.893 139.501 372.093 139.401C372.193 139.301 380.893 131.181 381.793 129.577C381.993 129.276 381.993 128.173 381.093 128.173C381.193 128.173 381.193 128.173 381.093 128.173Z" />
<path d="M340.093 160.554C335.293 158.248 332.193 152.434 332.293 146.218C332.393 137.797 337.993 131.081 344.793 131.181C351.593 131.281 356.993 138.198 356.893 146.519C356.893 147.923 356.693 149.226 356.393 150.429V150.529H356.293L340.093 160.554ZM344.793 131.381C338.193 131.281 332.693 137.898 332.593 146.118C332.493 152.233 335.493 157.847 340.093 160.153L356.193 150.228C356.493 149.025 356.593 147.722 356.693 146.419C356.693 138.299 351.393 131.482 344.793 131.381Z" />
<path d="M341.193 159.752C336.193 158.95 332.493 153.336 332.593 146.619C332.693 139.401 337.193 133.587 342.593 133.687C347.993 133.787 352.393 139.702 352.293 146.82C352.293 149.226 351.693 151.632 350.693 153.737L341.193 159.752ZM342.593 134.088C337.393 133.988 332.993 139.702 332.893 146.72C332.793 153.236 336.393 158.649 341.193 159.451L350.493 153.637C351.493 151.632 351.993 149.226 351.993 146.92C351.993 139.903 347.793 134.188 342.593 134.088Z" />
<path d="M341.093 159.451C336.693 158.75 333.493 153.637 333.593 147.622C333.693 141.106 337.593 135.893 342.293 135.893C346.993 135.993 350.793 141.306 350.693 147.822C350.693 150.028 350.193 152.233 349.293 154.038L341.093 159.451ZM342.193 136.193C337.693 136.093 333.893 141.206 333.793 147.622C333.693 153.436 336.793 158.449 340.893 159.151L348.893 153.938C349.693 152.133 350.193 150.028 350.193 147.923C350.393 141.507 346.793 136.294 342.193 136.193Z" />
<path d="M253.593 183.01C240.893 182.81 239.393 179.502 239.293 179.101C236.393 176.193 240.693 170.88 240.893 170.579C245.093 164.765 260.393 150.529 271.193 143.913C282.193 137.196 290.293 136.294 290.393 136.294L291.193 136.193L290.493 136.594C284.793 139.702 281.293 146.118 281.293 146.218V146.319L272.593 147.221L269.993 148.825C249.293 166.168 245.193 171.782 244.393 173.186C243.393 174.89 244.693 175.993 244.693 176.093C245.693 180.304 262.693 182.409 262.793 182.409L264.293 182.609L262.793 182.71C259.193 182.91 256.193 183.01 253.593 183.01ZM289.593 136.695C287.293 137.096 280.293 138.7 271.393 144.213C260.593 150.83 245.293 164.965 241.093 170.78C241.093 170.88 236.793 176.193 239.493 178.9C239.493 178.9 240.993 183.812 261.293 182.409C257.193 181.807 245.293 179.702 244.293 176.093C244.093 175.893 242.893 174.589 243.993 172.885C244.993 171.181 249.493 165.366 269.693 148.424L272.393 146.82L280.993 146.018C281.393 145.316 284.593 139.802 289.593 136.695Z" />
<path d="M283.193 178.098C279.593 178.098 270.193 172.083 268.593 163.862C267.093 155.742 272.193 146.92 272.193 146.82V146.72L282.493 143.812V144.113C280.893 156.644 282.493 165.567 287.293 170.88C291.393 175.491 296.493 175.391 296.593 175.491V175.892C296.493 175.892 286.693 177.998 283.293 178.198C283.293 178.098 283.293 178.098 283.193 178.098ZM272.593 147.121C272.093 147.923 267.593 156.243 268.993 163.762C270.493 171.782 279.993 177.897 283.293 177.697C285.993 177.597 292.593 176.293 295.393 175.692C293.593 175.391 290.093 174.489 287.093 171.08C282.293 165.767 280.693 156.745 282.193 144.213L272.593 147.121Z" />
<path d="M294.793 176.193C286.093 176.093 279.093 166.87 279.193 155.642C279.293 144.414 286.593 135.291 295.293 135.492C303.993 135.592 310.993 144.815 310.893 156.143C310.793 167.271 303.493 176.294 294.793 176.193ZM295.293 135.792C286.793 135.692 279.693 144.614 279.593 155.642C279.493 166.669 286.293 175.792 294.793 175.893C303.293 175.993 310.393 167.07 310.493 156.043C310.693 145.015 303.793 135.893 295.293 135.792Z" />
<path d="M291.793 173.186C285.193 173.085 279.893 165.767 279.993 156.845C280.093 147.923 285.593 140.704 292.193 140.805C298.793 140.905 304.093 148.223 303.993 157.146C303.893 166.068 298.393 173.286 291.793 173.186ZM292.193 141.206C285.793 141.106 280.493 148.123 280.393 156.845C280.293 165.567 285.393 172.684 291.793 172.785C298.193 172.885 303.493 165.867 303.593 157.146C303.693 148.424 298.593 141.206 292.193 141.206Z" />
<path d="M291.193 171.582C285.293 171.481 280.593 164.965 280.693 157.045C280.793 149.126 285.693 142.709 291.493 142.709C297.393 142.81 302.093 149.326 301.993 157.246C301.893 165.166 297.093 171.582 291.193 171.582ZM291.593 143.01C285.893 142.91 281.193 149.226 281.093 156.945C280.993 164.664 285.493 171.08 291.193 171.181C296.893 171.281 301.593 164.965 301.693 157.246C301.793 149.527 297.193 143.11 291.593 143.01Z" />
<path d="M349.593 132.384C349.493 132.384 346.493 131.381 345.793 131.281L344.393 131.08L361.793 130.278C361.893 130.278 364.193 130.479 365.193 131.08L365.593 131.281L349.593 132.384ZM346.893 131.181C347.993 131.481 349.393 131.983 349.693 132.083L364.693 130.98C363.593 130.579 361.893 130.479 361.893 130.479L346.893 131.181Z" />
<path d="M352.993 134.389L350.093 132.584L366.193 131.582L366.693 133.787L352.993 134.389ZM351.093 132.785L353.093 134.088L366.293 133.386L365.993 131.782L351.093 132.785Z" />
<path d="M355.393 138.198L353.393 134.89L367.093 133.587L366.293 137.897L355.393 138.198ZM353.993 135.09L355.593 137.897L366.093 137.597L366.793 133.887L353.993 135.09Z" />
<path d="M357.993 142.91C356.493 142.91 356.493 142.71 356.493 142.609C356.393 142.008 355.693 139.201 355.693 139.201V139H355.893C359.193 138.599 366.693 137.697 366.893 138.7C367.093 139.602 367.893 142.108 367.893 142.108L367.993 142.309H367.793C367.793 142.309 364.993 142.609 362.293 142.71C360.193 142.91 358.893 142.91 357.993 142.91ZM356.793 142.509C357.293 142.81 362.593 142.509 367.593 142.008C367.393 141.406 366.793 139.502 366.593 138.7C366.393 138.198 360.993 138.599 356.093 139.201C356.193 139.802 356.693 141.908 356.793 142.509Z" />
<path d="M356.393 150.429L356.693 149.827C357.393 148.524 357.193 144.213 357.193 144.213V144.013H357.393L366.193 143.511L356.393 150.429ZM357.493 144.313C357.493 145.015 357.693 147.922 357.193 149.426L365.193 143.912L357.493 144.313Z" />
<path d="M368.393 142.008C366.093 141.607 364.393 139.101 364.393 136.093C364.393 132.785 366.493 130.178 368.993 130.178C371.493 130.178 373.493 132.885 373.393 136.193C373.393 137.296 373.093 138.399 372.693 139.301L368.393 142.008ZM368.993 130.479C366.693 130.479 364.793 132.985 364.693 136.093C364.693 139 366.193 141.406 368.293 141.707L372.393 139.101C372.793 138.198 373.093 137.196 373.093 136.093C373.093 133.085 371.293 130.479 368.993 130.479Z" />
<path d="M368.293 141.907C366.293 141.607 364.793 139.201 364.793 136.494C364.793 133.486 366.593 131.181 368.793 131.181C370.893 131.181 372.693 133.687 372.593 136.594C372.593 137.597 372.393 138.599 371.993 139.401L368.293 141.907ZM368.793 131.381C366.793 131.381 365.093 133.587 365.093 136.394C365.093 139 366.393 141.105 368.193 141.506L371.693 139.201C372.093 138.399 372.293 137.496 372.293 136.494C372.393 133.787 370.793 131.481 368.793 131.381Z" />
<path d="M252.493 158.549L252.993 158.148C256.093 155.542 265.793 147.822 265.893 147.722L266.093 147.923L261.593 151.933C263.393 151.231 267.893 149.025 270.393 147.822L270.493 148.123C270.493 148.123 266.093 150.629 262.793 152.434C261.593 153.136 261.593 153.336 261.593 153.336C261.693 153.436 262.193 153.436 263.093 153.436C263.593 153.436 263.693 153.436 263.793 153.537C263.793 153.537 263.793 153.637 263.693 153.737C263.593 153.837 263.493 153.938 263.293 154.038C262.793 154.339 261.993 154.94 261.193 155.241C260.793 155.341 260.193 155.742 259.393 156.143C258.193 156.745 256.793 157.446 255.893 157.747C254.493 158.148 253.193 158.449 253.093 158.449L252.493 158.549ZM261.893 151.231C259.093 153.436 255.593 156.344 253.593 157.948C254.093 157.847 254.893 157.647 255.693 157.446C256.593 157.246 257.893 156.544 259.093 155.842C259.893 155.441 260.493 155.141 260.893 154.94C261.693 154.639 262.393 154.138 262.893 153.837C262.893 153.837 262.893 153.837 262.993 153.837C262.093 153.837 261.293 153.837 261.193 153.537C261.093 153.336 261.293 153.035 262.493 152.334C263.793 151.632 265.293 150.83 266.593 150.028C264.093 151.231 261.293 152.434 260.893 152.534L260.393 152.634L261.893 151.231Z" />
<path d="M238.593 176.394V175.391C238.593 172.484 241.693 169.276 244.193 166.77L244.293 166.669C246.693 164.163 252.893 158.549 252.993 158.549H253.093C253.193 158.549 256.493 157.747 257.193 157.647C257.693 157.647 260.293 156.243 261.893 155.341L263.193 154.639L262.093 155.642C261.993 155.742 248.793 167.07 245.793 169.978C244.693 171.08 243.593 172.885 244.693 175.692C244.793 175.893 244.793 175.993 244.693 175.993C244.693 175.993 244.593 175.993 244.493 175.893C244.493 175.792 244.393 175.692 244.293 175.592C242.193 172.584 241.393 171.983 240.993 171.983C240.393 171.983 239.393 174.188 238.993 175.592L238.593 176.394ZM240.893 171.481C241.693 171.481 242.893 173.086 243.993 174.69C243.293 172.183 244.393 170.479 245.393 169.476C247.893 167.07 257.393 158.85 260.593 156.143C259.293 156.845 257.393 157.847 256.993 157.847C256.393 157.948 253.393 158.649 252.993 158.75C252.493 159.151 246.693 164.464 244.393 166.87L244.293 166.97C242.593 168.674 240.693 170.68 239.593 172.685C240.093 172.083 240.493 171.582 240.893 171.481Z" />
<path d="M273.193 172.584C272.793 171.983 269.593 167.973 269.793 166.469V166.369L272.693 166.168L272.793 166.268C273.193 166.669 277.093 170.178 276.993 171.682V171.782L273.193 172.584ZM270.193 166.669C270.193 167.872 272.393 170.88 273.393 172.183L276.693 171.481C276.593 170.278 273.793 167.572 272.693 166.569L270.193 166.669Z" />
<path d="M282.893 178.198C280.893 178.198 275.493 176.494 274.393 173.887L274.293 173.587H274.593C274.793 173.587 278.393 173.687 280.693 175.692L285.693 175.391C285.993 175.391 286.193 175.391 286.393 175.391C286.793 175.391 286.993 175.391 287.093 175.291C287.093 175.291 287.093 175.291 287.093 175.191C287.093 175.191 287.093 175.091 287.093 174.99C287.093 174.69 285.493 172.985 284.093 171.582L284.293 171.281C284.393 171.281 290.493 175.391 292.293 175.492C294.293 175.492 294.893 175.592 294.893 175.692L295.893 175.893L294.893 176.093C294.793 176.093 284.893 177.697 283.493 177.998C283.293 178.198 283.093 178.198 282.893 178.198ZM274.893 173.988C276.293 176.494 282.093 178.098 283.293 177.797C284.393 177.497 290.393 176.594 293.293 176.093C292.993 176.093 292.593 176.093 292.193 176.093C290.793 176.093 287.393 174.088 285.493 172.785C286.393 173.687 287.393 174.79 287.393 175.191C287.393 175.291 287.393 175.291 287.393 175.291C287.393 175.792 287.193 175.792 286.393 175.792C286.193 175.792 285.993 175.792 285.693 175.792L280.593 176.093L280.493 175.993C278.693 174.389 275.793 174.088 274.893 173.988Z" />
<path d="M252.893 182.91C243.093 182.81 240.393 179.802 239.193 178.399L239.093 178.299C237.593 176.594 240.293 172.885 240.393 172.685L240.593 172.384L240.693 172.685C241.293 176.494 245.693 181.206 263.293 181.707C264.393 181.707 264.393 181.707 264.393 181.908C264.393 182.108 264.393 182.108 262.393 182.309C261.793 182.409 260.993 182.409 259.993 182.509C257.293 182.91 254.993 183.01 252.893 182.91ZM240.493 173.186C239.893 174.088 238.193 176.795 239.293 178.098L239.393 178.198C240.893 179.903 244.393 183.712 259.893 182.309C260.793 182.208 261.593 182.108 262.193 182.108C252.793 181.707 241.893 179.802 240.493 173.186Z" />
<path d="M266.993 174.288C258.893 165.968 262.293 154.74 262.293 154.639L272.093 147.02L271.793 147.622C268.493 154.138 269.093 160.053 269.093 160.153V160.253L265.693 164.263C262.393 168.173 267.093 174.088 267.193 174.088L266.993 174.288ZM262.593 154.84C262.393 155.542 259.893 164.765 265.693 172.384C264.493 170.278 263.193 166.669 265.493 164.063L268.893 160.153C268.893 159.552 268.593 154.138 271.393 148.123L262.593 154.84Z" />
<path d="M262.393 178.599C253.093 173.486 254.293 162.058 254.293 161.958V161.857L261.993 154.84L261.893 155.341C260.393 162.659 262.293 166.87 262.393 166.87V166.97L260.193 169.276C257.293 174.288 262.393 178.299 262.493 178.299L262.393 178.599ZM254.593 162.158C254.493 162.96 253.793 172.584 261.393 177.697C259.993 176.193 257.893 172.885 260.093 169.176L262.093 166.97C261.793 166.268 260.293 162.258 261.593 155.742L254.593 162.158Z" />
<path d="M255.393 180.704L254.893 180.404C251.993 178.9 249.993 175.692 248.893 173.386C247.693 170.88 247.193 168.674 247.193 168.674V168.574L247.293 168.474L254.093 162.258L253.993 162.659C253.593 165.968 255.193 170.479 255.293 170.479V170.579L255.193 170.679C254.193 171.281 253.593 172.083 253.293 173.186C252.593 176.193 255.093 180.103 255.093 180.203L255.393 180.704ZM247.493 168.674C247.693 169.577 249.693 176.895 254.493 179.902C253.793 178.699 252.293 175.692 252.893 173.186C253.193 172.083 253.793 171.181 254.793 170.579C254.493 169.877 253.293 166.168 253.493 163.161L247.493 168.674Z" />
<path d="M253.893 180.203L252.893 180.103C250.293 179.802 245.793 178.8 244.293 175.692C242.793 172.484 246.393 169.276 246.493 169.276L246.693 169.075L246.793 169.276C249.593 178.098 253.093 179.802 253.093 179.802L253.893 180.203ZM246.493 169.577C245.793 170.278 243.393 172.885 244.593 175.491C245.893 178.198 249.693 179.201 252.293 179.602C251.093 178.9 248.693 176.293 246.493 169.577Z" />
<path d="M277.993 174.088L277.793 173.887C277.293 173.386 275.093 173.286 274.293 173.286H274.093L274.293 172.183L277.293 171.682L277.393 171.582C276.993 170.278 274.393 166.97 273.993 166.569L272.193 166.168L273.893 165.867C273.993 163.161 272.193 159.752 272.093 159.752V159.652V159.552C272.593 156.143 272.593 147.02 272.593 146.92V146.72H272.793L281.393 145.917L281.293 146.218C278.393 155.141 279.393 158.649 280.793 163.963C282.093 168.674 283.693 170.278 284.293 170.78C284.393 170.88 284.493 170.98 284.493 171.08C284.493 171.181 284.493 171.281 284.493 171.381C284.393 171.582 284.093 171.682 283.793 171.682C283.693 171.682 283.593 171.682 283.593 171.782C283.493 171.782 282.493 171.983 280.293 172.183C279.593 172.283 278.893 172.283 278.693 172.384C278.593 172.484 278.193 173.386 277.993 174.088V174.088ZM274.493 172.885C275.193 172.885 276.993 172.985 277.793 173.486C278.393 171.882 278.593 171.782 278.693 171.782C278.793 171.782 279.293 171.682 280.293 171.582C281.493 171.481 283.293 171.281 283.493 171.181C283.593 171.181 283.593 171.181 283.693 171.08C283.793 171.08 283.993 170.98 284.093 170.98L283.993 170.88C283.393 170.379 281.693 168.674 280.393 163.862C278.993 158.549 277.993 154.94 280.793 146.118L272.893 146.82C272.893 148.023 272.893 156.043 272.393 159.351C272.693 159.852 274.393 163.161 274.193 165.767V165.867H273.993H274.093C274.193 166.068 277.293 169.777 277.593 171.181V171.281L277.393 171.682L274.493 172.183V172.885Z" />
<path d="M281.093 146.519L280.793 146.419C280.793 146.419 282.393 142.309 282.193 140.504C282.193 140.404 282.193 140.404 282.093 140.304C280.893 139.602 273.293 143.211 270.493 144.614L270.293 144.314C280.493 137.497 290.193 136.193 290.293 136.193L291.393 136.093L290.393 136.494C283.993 139.301 281.093 146.419 281.093 146.519ZM281.793 139.903C281.993 139.903 282.193 139.903 282.293 140.003C282.493 140.103 282.493 140.203 282.593 140.404C282.693 141.406 282.293 143.01 281.893 144.314C283.093 142.108 285.593 138.7 289.393 136.695C286.893 137.196 280.193 138.8 272.893 143.211C275.593 141.908 280.093 139.903 281.793 139.903Z" />
<path d="M299.193 161.156C297.693 161.156 296.593 159.151 296.593 156.544C296.593 153.937 297.793 152.033 299.293 152.033C300.793 152.033 301.993 154.138 301.893 156.644C301.893 159.151 300.693 161.156 299.193 161.156ZM299.293 152.434C297.993 152.434 296.993 154.238 296.893 156.644C296.893 158.95 297.893 160.855 299.193 160.855C300.493 160.855 301.493 158.95 301.593 156.745C301.593 154.338 300.493 152.434 299.293 152.434Z" />
<path d="M347.493 151.532C345.993 151.532 344.893 149.426 344.893 147.02C344.893 144.514 346.093 142.509 347.593 142.509C349.093 142.509 350.193 144.514 350.193 147.121C350.093 149.627 348.893 151.532 347.493 151.532ZM347.593 142.81C346.293 142.81 345.193 144.715 345.193 147.02C345.193 149.326 346.193 151.231 347.493 151.231C348.793 151.231 349.893 149.326 349.893 147.02C349.893 144.715 348.893 142.81 347.593 142.81Z" />
<path d="M367.893 141.106C366.393 141.106 365.293 139.101 365.293 136.594C365.293 134.088 366.493 132.083 367.993 132.083C369.493 132.083 370.593 134.188 370.593 136.695C370.593 139.101 369.393 141.106 367.893 141.106ZM368.093 132.384C366.793 132.384 365.693 134.289 365.693 136.594C365.693 138.9 366.693 140.805 367.993 140.805C369.293 140.805 370.393 138.9 370.393 136.594C370.393 134.289 369.393 132.384 368.093 132.384Z" />
<path d="M298.393 152.534C298.393 152.534 293.993 148.424 290.493 148.424C290.293 148.424 290.093 148.424 289.893 148.424C288.493 148.624 287.393 148.825 286.693 149.025C285.793 149.226 285.293 149.326 284.993 149.125C284.793 148.925 284.793 148.724 284.793 148.524C284.793 147.321 284.793 146.519 286.393 144.815L286.593 145.015C285.993 145.717 285.593 146.318 285.693 146.619C285.693 146.719 285.693 146.82 285.793 146.82C285.993 146.92 286.093 147.12 286.193 147.221C286.493 147.521 286.593 147.722 288.693 147.622C291.593 147.521 294.593 147.722 298.593 152.233L298.393 152.534ZM290.493 148.023C292.493 148.023 294.693 149.326 296.293 150.429C293.393 147.922 291.093 147.822 288.693 147.922C286.593 148.023 286.293 147.822 285.993 147.421C285.893 147.321 285.793 147.221 285.693 147.12C285.593 147.02 285.493 146.92 285.493 146.719C285.193 147.321 285.193 147.822 285.193 148.524C285.193 148.724 285.193 148.825 285.293 148.925C285.493 149.025 285.993 148.925 286.693 148.724C287.493 148.524 288.493 148.323 289.993 148.123C290.093 148.123 290.293 148.023 290.493 148.023Z" />
<path d="M286.593 145.014L286.393 144.814C286.493 144.714 286.593 144.614 286.593 144.614L286.693 144.514L286.893 144.714C286.893 144.714 286.893 144.714 286.793 144.814C286.793 144.814 286.793 144.814 286.693 144.914C286.693 144.914 286.693 145.014 286.593 145.014Z" />
<path d="M288.693 169.577L287.793 169.276C287.793 169.276 285.493 168.574 286.193 165.968C286.293 165.466 287.193 165.466 288.593 165.466C289.693 165.466 291.193 165.466 292.293 165.166C294.693 164.464 296.493 163.06 297.293 162.058C298.193 160.955 298.493 160.654 298.493 160.554L299.093 159.953L298.793 160.755C298.693 160.955 296.793 165.466 293.093 166.068C291.993 166.268 291.093 166.369 290.293 166.469C288.393 166.669 287.593 166.77 287.493 167.471C287.293 168.474 287.893 168.975 287.893 168.975L288.693 169.577ZM288.193 165.867C287.393 165.867 286.593 165.867 286.493 166.068C286.193 167.471 286.693 168.173 287.293 168.574C287.193 168.273 287.093 167.872 287.193 167.371C287.393 166.469 288.493 166.369 290.293 166.168C291.093 166.068 291.993 165.968 293.093 165.767C295.293 165.366 296.893 163.562 297.693 162.158C297.693 162.258 297.593 162.258 297.593 162.359C296.693 163.461 294.893 164.865 292.393 165.567C291.193 165.867 289.793 165.867 288.593 165.867C288.393 165.867 288.293 165.867 288.193 165.867Z" />
<path d="M284.593 162.158C283.693 162.158 282.793 160.955 282.793 160.755C282.793 160.755 282.793 160.755 282.793 160.654C282.293 159.351 281.193 155.842 282.493 152.233L282.793 152.334C282.693 152.634 282.493 153.537 282.793 154.038C282.893 154.238 283.093 154.339 283.393 154.339C283.893 154.339 284.493 154.138 285.193 153.938C286.693 153.436 288.793 152.835 291.593 153.336C295.493 154.038 295.793 153.938 296.093 153.837C296.393 153.637 297.393 153.236 297.493 153.236L297.993 153.035L297.693 153.436C297.693 153.436 296.093 156.243 297.393 159.451L297.093 159.552C296.993 159.351 296.593 158.549 294.693 158.449C292.393 158.449 289.193 158.85 287.893 159.451C287.193 159.752 286.593 160.454 286.093 160.955C285.593 161.456 285.193 161.958 284.793 162.058C284.693 162.158 284.693 162.158 284.593 162.158ZM282.293 153.938C281.793 156.845 282.593 159.451 283.093 160.454C283.093 160.554 283.093 160.554 283.093 160.554C283.193 160.755 283.893 161.657 284.593 161.757H284.693C284.993 161.657 285.393 161.256 285.793 160.755C286.293 160.153 286.893 159.451 287.693 159.151C289.193 158.449 292.593 158.048 294.693 158.048C295.693 158.048 296.293 158.349 296.793 158.549C296.093 156.243 296.793 154.339 297.193 153.436C296.893 153.537 296.493 153.737 296.293 153.837C295.893 154.138 295.593 154.138 291.493 153.436C288.793 152.935 286.793 153.637 285.293 154.038C284.593 154.238 283.893 154.439 283.393 154.439C282.993 154.439 282.693 154.339 282.493 154.038C282.393 154.138 282.393 154.038 282.293 153.938Z" />
<path d="M297.493 160.153L297.193 159.652L297.293 159.552L297.093 159.652C297.093 159.652 296.993 159.552 296.993 159.451V158.85L297.293 159.351C297.293 159.451 297.393 159.451 297.393 159.552L297.493 160.153Z" />
<path d="M298.293 160.253C297.093 160.253 296.093 158.549 296.093 156.444C296.093 154.339 297.193 152.634 298.393 152.735C299.693 152.735 300.593 154.439 300.593 156.544C300.593 158.649 299.593 160.253 298.293 160.253ZM298.393 153.035C297.393 153.035 296.493 154.539 296.493 156.444C296.493 158.349 297.293 159.852 298.293 159.852C299.293 159.852 300.193 158.349 300.193 156.444C300.293 154.639 299.493 153.035 298.393 153.035Z" />
<path d="M303.893 172.885L304.293 172.484C311.893 163.762 310.693 152.434 310.693 152.334V152.133H310.893C313.993 151.832 332.393 148.725 332.593 148.725H332.793V148.925C333.693 159.652 339.093 160.253 339.193 160.253L339.793 160.354L339.293 160.654C339.193 160.654 333.393 163.762 325.093 167.07C316.793 170.379 304.793 172.885 304.593 172.885H303.893ZM310.993 152.434C311.093 153.938 311.693 164.163 304.893 172.284C307.293 171.782 317.493 169.476 324.793 166.569C331.793 163.762 336.993 161.156 338.493 160.454C337.093 160.053 333.193 158.048 332.293 149.025C330.393 149.426 314.393 152.033 310.993 152.434Z" />
<path d="M296.593 176.093L296.793 175.792C296.793 175.792 298.993 172.584 300.893 167.973C302.593 163.662 304.293 157.346 302.793 151.131L303.093 151.03C303.093 151.03 304.093 153.537 310.193 152.334H310.393V152.534C310.393 152.634 312.593 163.662 304.193 172.283C304.193 172.283 301.493 175.592 296.893 176.193L296.593 176.093ZM303.393 151.832C305.493 162.459 298.693 173.587 297.393 175.592C301.593 174.89 304.093 171.882 304.093 171.882C311.793 163.963 310.393 154.038 310.193 152.634C305.993 153.436 304.193 152.534 303.393 151.832Z" />
<path d="M350.093 154.238L350.393 153.737C350.393 153.637 353.593 148.524 350.593 140.304L350.893 140.203C350.893 140.203 352.693 143.211 354.793 142.81C356.593 142.409 356.593 142.509 356.593 142.609C356.593 142.71 356.593 142.71 356.493 142.81C356.593 143.512 357.293 147.121 356.393 150.529V150.629H356.293L350.093 154.238ZM351.193 141.106C353.193 147.522 351.593 151.933 350.893 153.336L356.093 150.228C356.993 146.92 356.393 143.311 356.193 142.71C355.993 142.71 355.593 142.81 354.793 143.01C353.293 143.311 351.993 142.108 351.193 141.106Z" />
<path d="M381.193 130.078L380.993 129.878C381.393 129.477 381.693 129.176 381.693 129.176L382.093 128.675L381.993 129.276C381.793 129.477 381.593 129.677 381.193 130.078Z" />
<path d="M372.393 139.401L372.693 138.8C372.693 138.8 373.693 136.193 372.793 133.787L372.693 133.687L372.793 133.587C372.893 133.587 378.893 131.281 380.893 129.777L381.093 129.978C379.393 131.983 374.493 137.396 372.793 138.9L372.393 139.401ZM373.193 133.887C373.793 135.592 373.493 137.496 373.193 138.399C374.893 136.694 378.293 132.885 380.293 130.78C377.893 131.983 373.993 133.587 373.193 133.887Z" />
<path d="M273.893 179.602C273.793 179.602 260.693 175.291 261.993 155.842H262.293C262.093 158.75 261.893 173.587 273.993 179.301L273.893 179.602ZM263.093 165.867C263.793 168.875 265.193 171.882 267.393 174.489C265.193 171.882 263.893 168.775 263.093 165.867Z" />
<path d="M262.293 155.841H261.993C261.993 155.441 261.993 155.241 261.993 155.241H262.293V155.341C262.393 155.441 262.393 155.641 262.293 155.841Z" />
<path d="M265.293 180.705C265.193 180.604 254.093 175.492 254.193 164.063H254.493C254.593 167.672 256.093 174.589 265.393 180.404L265.293 180.705ZM256.493 172.083C257.393 173.687 258.493 175.091 259.693 176.294C258.393 174.89 257.293 173.487 256.493 172.083Z" />
<path d="M254.193 164.063C254.193 162.76 254.293 162.058 254.393 161.958L254.693 162.058C254.593 162.76 254.593 163.461 254.593 164.063H254.193Z" />
<path d="M255.293 180.703C255.293 180.703 255.093 180.703 254.893 180.603L254.993 180.303C255.093 180.403 255.193 180.403 255.393 180.403L255.293 180.703Z" />
<path d="M253.893 180.003C252.093 178.9 248.793 175.893 246.793 168.674L247.093 168.574C247.093 168.674 249.993 176.995 254.093 179.702L253.893 180.003Z" />
<path d="M254.893 180.604H254.793C254.393 180.404 254.193 180.303 253.893 180.103L254.093 179.802C254.493 180.003 254.693 180.203 254.993 180.303H255.093L254.893 180.604Z" />
<path d="M336.193 131.581V131.281C337.493 131.181 338.293 131.181 338.293 131.181V131.481C337.793 131.481 337.293 131.581 336.793 131.581H336.193Z" />
<path d="M310.693 153.236V152.233C310.693 152.133 310.493 139.301 297.293 135.492L296.593 135.291L297.293 135.191C297.493 135.191 321.793 132.384 336.193 131.281V131.582C330.793 131.983 312.693 133.687 308.693 138.499C308.093 139.201 307.893 140.003 307.993 140.705C308.293 141.306 311.793 149.527 310.993 152.133L310.693 153.236ZM297.993 135.391C305.493 137.797 308.593 143.111 309.993 147.121C309.093 144.113 307.693 140.905 307.693 140.905C307.593 140.003 307.893 139.201 308.493 138.399C309.493 137.096 313.093 134.389 325.093 132.584C313.493 133.587 301.093 134.99 297.993 135.391Z" />
<path d="M332.193 147.221L329.693 136.394L336.093 135.291L335.893 135.592C331.793 142.108 332.493 147.02 332.493 147.121L332.193 147.221ZM330.093 136.695L332.193 145.717C332.293 143.812 332.793 140.103 335.493 135.792L330.093 136.695Z" />
<path d="M334.593 157.146L330.693 149.025L331.793 148.825L334.993 157.045L334.593 157.146ZM331.093 149.226L333.293 153.737L331.493 149.125L331.093 149.226Z" />
<path d="M336.593 161.156L328.593 149.326L329.893 149.226V149.326L336.893 161.055L336.593 161.156ZM329.093 149.527L333.993 156.745L329.693 149.426L329.093 149.527Z" />
<path d="M349.993 132.283L345.193 130.88L358.493 131.381V131.682L349.993 132.283ZM347.693 131.281L350.093 131.983L355.793 131.582L347.693 131.281Z" />
<path d="M242.193 176.293L241.993 175.993C270.693 159.251 331.693 146.118 332.293 146.018L367.293 143.111C367.993 143.01 368.193 143.01 368.193 143.211C368.193 143.411 368.193 143.512 361.793 144.514C355.793 145.517 345.593 147.02 331.593 149.126H331.293C331.193 149.126 330.993 149.126 330.893 149.226C287.293 155.943 242.693 176.093 242.193 176.293ZM365.393 143.612L332.393 146.419C331.793 146.519 275.393 158.75 245.593 174.489C256.993 169.577 294.293 154.539 330.893 149.025C330.993 149.025 331.193 149.025 331.293 148.925H331.593C352.693 145.717 361.693 144.213 365.393 143.612Z" />
<path d="M316.093 170.379L315.993 170.078L317.993 169.477L318.093 169.777C318.093 169.878 317.193 170.178 316.093 170.379Z" />
<path d="M305.093 173.487L312.393 162.559C312.493 162.459 312.593 162.258 312.693 162.158L312.993 162.359L312.693 162.76C310.593 166.068 309.893 168.273 310.693 169.476C311.593 170.78 314.393 170.379 315.993 170.078L316.093 170.479L305.093 173.487ZM310.493 166.168L305.993 172.985L313.493 170.88C312.193 170.88 310.993 170.68 310.393 169.777C309.793 168.975 309.893 167.772 310.493 166.168Z" />
<path d="M312.493 169.677C311.693 169.677 311.093 169.476 310.793 169.075C309.993 167.973 311.393 165.767 312.493 164.063C312.893 163.461 313.193 162.86 313.393 162.559C314.093 160.755 330.893 157.246 332.793 156.945C335.693 157.246 336.893 160.955 336.993 161.055V161.256L336.893 161.356C336.793 161.456 325.493 166.469 316.093 169.176C314.493 169.476 313.293 169.677 312.493 169.677ZM332.693 157.246C325.293 158.75 314.093 161.456 313.593 162.659C313.493 163.06 313.093 163.562 312.693 164.263C311.793 165.767 310.293 167.973 310.993 168.875C311.293 169.376 312.493 169.677 315.793 168.775C324.593 166.268 335.093 161.657 336.393 161.055C336.193 160.253 335.093 157.446 332.693 157.246Z" />
<path d="M21.2929 160.253L21.1929 160.053C21.0929 159.852 14.9929 144.614 28.2929 128.875C35.1929 120.654 40.5929 116.243 43.7929 113.938C47.3929 111.431 49.2929 110.83 49.2929 110.83L49.6929 110.729L49.4929 111.131C49.4929 111.231 45.3929 118.449 45.7929 122.058V122.158C45.0929 123.562 28.4929 156.143 21.2929 160.153V160.253ZM49.0929 111.331C48.2929 111.632 46.5929 112.434 44.0929 114.238C40.7929 116.544 35.4929 120.955 28.6929 129.075C21.7929 137.196 20.2929 145.115 20.1929 150.328C20.0929 155.241 21.2929 158.75 21.5929 159.652C28.5929 155.241 44.9929 123.361 45.6929 121.958C45.2929 118.75 48.2929 112.935 49.0929 111.331Z" />
<path d="M34.3929 141.206L34.2929 140.805C33.7929 138.699 33.7929 137.095 33.7929 136.995C33.3929 130.579 34.9929 125.567 38.7929 121.757C42.5929 117.947 45.8929 118.95 46.0929 118.95L46.3929 119.05L46.1929 119.251C45.8929 119.652 45.8929 121.055 46.0929 121.857V121.958V122.058L34.3929 141.206ZM44.8929 119.151C43.6929 119.151 41.3929 119.552 38.9929 121.958C35.2929 125.667 33.6929 130.579 34.0929 136.995C34.0929 136.995 34.0929 138.399 34.4929 140.303L45.5929 121.958C45.5929 121.557 45.3929 120.053 45.6929 119.351C45.5929 119.251 45.2929 119.151 44.8929 119.151Z" />
<path d="M34.5929 140.604L34.493 140.003C34.493 139.702 33.7929 132.384 34.5929 128.975C35.3929 125.867 37.4929 123.161 40.0929 122.158C42.4929 121.156 44.5929 122.96 44.6929 122.96L44.7929 123.06L44.6929 123.161C44.6929 123.161 43.5929 125.567 42.2929 127.672C40.9929 129.777 34.9929 140.003 34.8929 140.103L34.5929 140.604ZM41.6929 122.258C41.2929 122.258 40.7929 122.359 40.2929 122.559C38.2929 123.361 35.893 125.567 34.993 129.176C34.393 131.983 34.6929 137.697 34.8929 139.502C36.0929 137.396 40.8929 129.376 41.9929 127.572C43.0929 125.767 44.0929 123.762 44.3929 123.261C43.9929 123.06 42.9929 122.359 41.6929 122.258Z" />
<path d="M22.9929 158.95L22.8929 158.649C20.7929 154.439 21.5929 146.519 24.5929 140.705C27.4929 135.09 35.2929 126.469 35.3929 126.369L36.1929 125.567L35.6929 126.569C33.0929 132.283 34.2929 137.496 34.6929 139.401C34.7929 140.103 34.8929 140.303 34.7929 140.404C34.6929 140.604 33.1929 143.411 31.9929 145.918C29.7929 150.228 29.3929 151.131 29.2929 151.231C29.0929 151.431 24.8929 156.644 23.1929 158.549L22.9929 158.95ZM34.9929 127.471C32.9929 129.677 27.2929 136.293 24.8929 140.905C21.9929 146.519 21.1929 154.038 23.0929 158.248C24.1929 156.845 28.8929 151.231 28.9929 151.03C29.0929 150.83 30.3929 148.223 31.5929 145.817C33.3929 142.308 34.1929 140.504 34.3929 140.203C34.3929 140.103 34.2929 139.802 34.2929 139.501C33.9929 137.697 32.8929 132.885 34.9929 127.471Z" />
<path d="M48.1929 113.035L47.9929 112.735C47.9929 112.735 47.9929 112.735 48.0929 112.735L48.1929 113.035Z" />
<path d="M21.6929 158.85C21.6929 158.85 21.5929 157.847 21.5929 156.143H21.9929C21.9929 156.644 21.9929 157.146 22.0929 157.547C22.0929 157.948 22.0929 158.349 22.1929 158.75L21.6929 158.85Z" />
<path d="M21.4929 156.143C21.0929 144.313 24.4929 137.095 24.4929 137.095C31.8929 121.757 47.3929 113.236 47.9929 112.835L48.1929 113.135C47.2929 113.637 32.7929 124.965 26.6929 135.191C22.2929 142.609 21.7929 151.531 21.8929 156.143H21.4929ZM24.8929 137.196C24.8929 137.296 23.8929 139.401 22.9929 143.311C23.6929 140.504 24.7929 137.697 26.3929 134.99C31.0929 127.07 40.5929 118.649 45.2929 114.84C40.3929 118.148 30.2929 125.767 24.8929 137.196Z" />
<path d="M35.2929 139.602L35.1929 139.301C35.1929 139.201 34.5929 137.797 34.9929 132.584C35.3929 127.07 37.6929 124.965 39.6929 123.662C41.8929 122.258 43.9929 123.762 43.9929 123.762L44.0929 123.862L43.7929 124.664L43.5929 124.564C42.5929 123.963 41.3929 123.762 38.4929 127.171C35.7929 130.379 36.7929 137.196 36.7929 137.196V137.296L35.2929 139.602ZM41.7929 123.361C41.1929 123.361 40.5929 123.461 39.8929 123.963C37.8929 125.266 35.6929 127.271 35.3929 132.584C35.0929 136.293 35.3929 137.998 35.4929 138.699L36.4929 137.196C36.3929 136.394 35.5929 130.078 38.1929 126.97C40.7929 123.862 42.2929 123.562 43.5929 124.263L43.6929 124.063C43.3929 123.862 42.6929 123.461 41.7929 123.361Z" />
<path d="M45.7929 119.151L44.0929 119.05L44.1929 118.75C44.8929 117.446 46.7929 116.243 46.8929 116.243L47.2929 115.943L46.4929 118.248C46.0929 118.649 45.7929 119.05 45.7929 119.151ZM44.6929 118.75H45.5929C45.6929 118.649 45.8929 118.248 46.1929 118.048L46.5929 116.845C46.0929 117.246 45.1929 118.048 44.6929 118.75Z" />
<path d="M23.2929 157.446C23.1929 157.446 23.0929 157.446 22.9929 157.346C21.9929 156.945 21.6929 154.639 21.9929 150.329C22.4929 142.609 29.3929 133.787 29.4929 133.687L30.2929 132.584L29.7929 133.887C24.8929 145.316 25.1929 147.622 25.7929 148.023C26.9929 148.725 31.6929 143.612 34.3929 140.203L34.6929 140.404C34.3929 140.905 26.7929 153.837 24.9929 156.043C24.4929 157.045 23.8929 157.446 23.2929 157.446ZM28.9929 135.191C27.0929 137.898 22.8929 144.414 22.4929 150.429C22.0929 155.842 22.7929 156.945 23.1929 157.146C23.5929 157.246 24.1929 156.845 24.8929 155.943C26.1929 154.238 30.9929 146.218 33.2929 142.409C31.0929 145.015 27.0929 149.226 25.6929 148.424C24.8929 147.923 24.3929 145.918 28.9929 135.191Z" />
<path d="M22.493 158.85L22.3929 158.749C22.3929 158.749 22.3929 158.749 22.3929 158.649V158.549C22.5929 155.842 25.6929 132.083 37.2929 120.554L37.5929 120.855C37.4929 120.955 28.3929 130.98 22.7929 158.749V158.85H22.493ZM34.993 123.862C28.093 132.885 24.8929 146.318 23.5929 153.536C26.3929 141.807 29.6929 133.787 32.0929 128.975C33.1929 126.87 34.093 125.165 34.993 123.862Z" />
<path d="M566.093 110.329C564.293 110.329 561.693 109.627 558.793 106.82L558.693 106.72L573.993 91.2811C573.293 90.5793 569.693 86.7698 572.093 80.2535C574.893 72.5342 580.893 68.1232 590.993 66.5192C596.493 65.6169 605.193 64.9152 613.093 65.4164C622.693 66.1182 628.693 68.6244 630.693 72.835C630.693 72.835 631.693 74.3387 631.593 76.5442C631.493 78.5493 630.393 81.657 625.993 84.865C617.293 91.2811 594.493 97.2961 579.893 97.0956L568.693 109.928C568.593 109.827 567.693 110.329 566.093 110.329ZM559.093 106.619C564.093 111.431 568.093 109.727 568.493 109.527L579.693 96.6946H579.793C594.293 96.8951 616.993 90.8801 625.693 84.464C629.993 81.3563 631.093 78.3487 631.193 76.3437C631.293 74.2385 630.393 72.835 630.393 72.835C625.593 63.3111 600.393 65.1156 590.993 66.6194C580.993 68.2234 575.093 72.5342 572.293 80.1532C569.793 87.1708 574.193 90.9803 574.193 90.9803L574.293 91.0806L574.193 91.1808L559.093 106.619Z" />
<path d="M577.093 91.0806L561.093 108.223C561.093 108.223 561.093 108.424 561.793 108.725L577.893 91.5818C577.893 91.4816 577.493 91.0806 577.093 91.0806Z" />
<path d="M705.793 116.043C702.393 114.339 691.293 118.248 689.993 118.95C688.593 119.652 687.593 120.554 687.493 121.857C687.393 127.371 689.393 127.973 689.393 127.973C695.893 129.978 706.393 124.765 706.393 124.765C708.593 122.96 708.093 117.948 705.793 116.043ZM703.893 125.166C702.393 126.469 692.993 128.975 689.593 127.572C689.593 127.572 687.893 126.97 688.193 125.466C688.193 125.466 698.793 125.567 703.593 123.862C703.593 123.862 705.393 123.862 703.893 125.166ZM704.193 117.747C704.093 118.248 703.993 119.05 704.193 119.752C704.193 119.752 703.993 119.953 703.493 120.253C702.993 120.454 687.793 123.261 687.793 123.261C687.793 123.261 687.693 120.554 690.093 119.552C692.493 118.549 702.093 116.745 703.193 116.845C704.293 116.945 705.293 117.346 705.493 119.05C705.593 119.05 704.293 117.346 704.193 117.747Z" />
</svg>
