<svg xmlns="http://www.w3.org/2000/svg" xmlns:xlink="http://www.w3.org/1999/xlink" viewBox="0 0 774 442.27"><g style="clip-path:url(#a)"><path d="M245,99.38c0,3.22-12.8,5.83-28.59,5.83s-28.59-2.61-28.59-5.83,12.8-5.82,28.59-5.82S245,96.17,245,99.38Z" style="fill:none;stroke:#fefefe;stroke-linecap:round;stroke-linejoin:round"/><path d="M189.87,101.19c4.26-2.13,14.51-3.63,26.49-3.63,12.34,0,22.86,1.59,26.86,3.82" style="fill:none;stroke:#fefefe;stroke-linecap:round;stroke-linejoin:round"/><path d="M256.63,100.65c0,5.31-18.07,9.62-40.37,9.62s-40.37-4.31-40.37-9.62S194,91,216.26,91,256.63,95.34,256.63,100.65Z" style="fill:none;stroke:#fefefe;stroke-linecap:round;stroke-linejoin:round"/><path d="M175.89,100.65V124c0,5.32,18.08,9.62,40.37,9.62s40.37-4.3,40.37-9.62V100.65" style="fill:none;stroke:#fefefe;stroke-linecap:round;stroke-linejoin:round"/><path d="M179,127.7v25.72s2.85.13,5.19,3.57a27.33,27.33,0,0,1,3.3,6.51A125.21,125.21,0,0,0,207,166.25c11.8.83,18.6-.34,19.55-1.19s0-31.47,0-31.47" style="fill:none;stroke:#fefefe;stroke-linecap:round;stroke-linejoin:round"/><path d="M254.59,127v23.68l-4.7,4.57-8.71,5.11a14.44,14.44,0,0,0-5.1.43c-2.65.75-7.65,5.51-11.26,5.74s-8.92,0-8.92,0" style="fill:none;stroke:#fefefe;stroke-linecap:round;stroke-linejoin:round"/><path d="M250,142.56c-.46,6.12-3,10.92-5.76,10.72s-4.57-5.34-4.12-11.46,3-10.92,5.76-10.72S250.44,136.43,250,142.56Z" style="fill:none;stroke:#fefefe;stroke-linecap:round;stroke-linejoin:round"/><path d="M243.91,131.81c1.66,1.8,2.62,5.85,2.28,10.46s-1.88,8.44-3.77,10" style="fill:none;stroke:#fefefe;stroke-linecap:round;stroke-linejoin:round"/><path d="M329.59,108c0,3.31-13.16,6-29.39,6s-29.39-2.68-29.39-6,13.16-6,29.39-6S329.59,104.66,329.59,108Z" style="fill:none;stroke:#fefefe;stroke-linecap:round;stroke-linejoin:round"/><path d="M273,109.83c4.37-2.19,14.91-3.74,27.22-3.74,12.69,0,23.5,1.64,27.62,3.94" style="fill:none;stroke:#fefefe;stroke-linecap:round;stroke-linejoin:round"/><path d="M341.6,109.27c0,5.46-18.58,9.89-41.5,9.89s-41.49-4.43-41.49-9.89,18.57-9.89,41.49-9.89S341.6,103.81,341.6,109.27Z" style="fill:none;stroke:#fefefe;stroke-linecap:round;stroke-linejoin:round"/><path d="M258.61,109.27v24c0,5.46,18.57,9.88,41.49,9.88s41.5-4.42,41.5-9.88v-24" style="fill:none;stroke:#fefefe;stroke-linecap:round;stroke-linejoin:round"/><path d="M261.84,137.08v26.43s2.92.14,5.33,3.67a28.32,28.32,0,0,1,3.39,6.7,129,129,0,0,0,20,2.82c12.13.86,19.12-.35,20.1-1.23s0-32.34,0-32.34" style="fill:none;stroke:#fefefe;stroke-linecap:round;stroke-linejoin:round"/><path d="M339.5,136.35V160.7l-4.83,4.7-8.95,5.25a14.87,14.87,0,0,0-5.25.44c-2.73.77-7.86,5.67-11.57,5.9s-9.17,0-9.17,0" style="fill:none;stroke:#fefefe;stroke-linecap:round;stroke-linejoin:round"/><path d="M334.77,152.35c-.47,6.29-3.12,11.22-5.92,11s-4.7-5.48-4.23-11.78,3.12-11.22,5.92-11S335.24,146.05,334.77,152.35Z" style="fill:none;stroke:#fefefe;stroke-linecap:round;stroke-linejoin:round"/><path d="M328.52,141.3c1.71,1.85,2.7,6,2.35,10.76s-1.93,8.67-3.88,10.27" style="fill:none;stroke:#fefefe;stroke-linecap:round;stroke-linejoin:round"/><path d="M419.17,116.85c0,3.31-13.16,6-29.39,6s-29.39-2.68-29.39-6,13.16-6,29.39-6S419.17,113.54,419.17,116.85Z" style="fill:none;stroke:#fefefe;stroke-linecap:round;stroke-linejoin:round"/><path d="M362.55,118.7c4.38-2.19,14.92-3.73,27.23-3.73,12.68,0,23.49,1.64,27.61,3.94" style="fill:none;stroke:#fefefe;stroke-linecap:round;stroke-linejoin:round"/><path d="M431.17,118.15c0,5.46-18.58,9.88-41.49,9.88s-41.5-4.42-41.5-9.88,18.58-9.89,41.5-9.89S431.17,112.69,431.17,118.15Z" style="fill:none;stroke:#fefefe;stroke-linecap:round;stroke-linejoin:round"/><path d="M348.18,118.15v24c0,5.46,18.58,9.89,41.5,9.89s41.49-4.43,41.49-9.89v-24" style="fill:none;stroke:#fefefe;stroke-linecap:round;stroke-linejoin:round"/><path d="M351.41,146v26.44s2.92.13,5.33,3.67a27.91,27.91,0,0,1,3.39,6.69,129,129,0,0,0,20,2.82c12.12.86,19.11-.35,20.09-1.22s0-32.34,0-32.34" style="fill:none;stroke:#fefefe;stroke-linecap:round;stroke-linejoin:round"/><path d="M429.07,145.23v24.34l-4.83,4.7-8.95,5.26a14.54,14.54,0,0,0-5.24.44c-2.73.77-7.86,5.66-11.57,5.9s-9.18,0-9.18,0" style="fill:none;stroke:#fefefe;stroke-linecap:round;stroke-linejoin:round"/><path d="M424.34,161.22c-.46,6.3-3.12,11.23-5.92,11s-4.7-5.48-4.23-11.77,3.12-11.23,5.92-11S424.81,154.93,424.34,161.22Z" style="fill:none;stroke:#fefefe;stroke-linecap:round;stroke-linejoin:round"/><path d="M418.1,150.18c1.71,1.85,2.69,6,2.34,10.75s-1.93,8.68-3.88,10.27" style="fill:none;stroke:#fefefe;stroke-linecap:round;stroke-linejoin:round"/><path d="M513.07,125.82c0,3.36-13.34,6.08-29.79,6.08s-29.8-2.72-29.8-6.08,13.34-6.07,29.8-6.07S513.07,122.47,513.07,125.82Z" style="fill:none;stroke:#fefefe;stroke-linecap:round;stroke-linejoin:round"/><path d="M455.68,127.7c4.43-2.22,15.12-3.78,27.6-3.78,12.86,0,23.81,1.66,28,4" style="fill:none;stroke:#fefefe;stroke-linecap:round;stroke-linejoin:round"/><path d="M525.23,127.14c0,5.53-18.83,10-42.06,10s-42.06-4.49-42.06-10,18.83-10,42.06-10S525.23,121.61,525.23,127.14Z" style="fill:none;stroke:#fefefe;stroke-linecap:round;stroke-linejoin:round"/><path d="M441.11,127.14v24.31c0,5.53,18.83,10,42.06,10s42.06-4.49,42.06-10V127.14" style="fill:none;stroke:#fefefe;stroke-linecap:round;stroke-linejoin:round"/><path d="M444.39,155.33v26.79s3,.14,5.4,3.72a28.52,28.52,0,0,1,3.44,6.79,131.62,131.62,0,0,0,20.26,2.86c12.29.87,19.38-.36,20.37-1.24s0-32.78,0-32.78" style="fill:none;stroke:#fefefe;stroke-linecap:round;stroke-linejoin:round"/><path d="M523.11,154.59v24.68l-4.9,4.76-9.07,5.33a14.86,14.86,0,0,0-5.32.45c-2.77.77-8,5.74-11.73,6s-9.3,0-9.3,0" style="fill:none;stroke:#fefefe;stroke-linecap:round;stroke-linejoin:round"/><path d="M518.31,170.8c-.47,6.38-3.16,11.38-6,11.17S507.55,176.42,508,170s3.16-11.38,6-11.17S518.79,164.42,518.31,170.8Z" style="fill:none;stroke:#fefefe;stroke-linecap:round;stroke-linejoin:round"/><path d="M512,159.61c1.73,1.88,2.73,6.09,2.38,10.9s-2,8.79-3.94,10.41" style="fill:none;stroke:#fefefe;stroke-linecap:round;stroke-linejoin:round"/><path d="M224.82,166.53s7.8,28.79,9.51,39.84,2.16,33.79,2.16,33.79l-17.43-2.11s7-23.81,3.57-35.71l-10.24-35.71" style="fill:none;stroke:#fefefe;stroke-linecap:round;stroke-linejoin:round"/><path d="M228.92,165s5.52,23.63,7.57,31.91a61.28,61.28,0,0,0,5.93,14.83l10-1.16a37.84,37.84,0,0,1-6.14-4.67c-3.8-3.4-5.35-9.56-7.7-17.63s-4-26.83-4-26.83" style="fill:none;stroke:#fefefe;stroke-linecap:round;stroke-linejoin:round"/><path d="M242.21,233.44a32.91,32.91,0,0,1-1.55-5.22c-.11-1.39,3.45-3.07,6.64-4.67s4.3-3.19,6.37-5,6.69-2.24,10.36,1.74,5.28,18.81,5.28,18.81" style="fill:none;stroke:#fefefe;stroke-linecap:round;stroke-linejoin:round"/><path d="M232.5,248.11a44.73,44.73,0,0,1,13.69-18.18c-2.13,2.59-5.24,6.19-7.25,8.79s-4.59,6.62-6.44,9.39" style="fill:#fefefe"/><path d="M262.58,239s-1.73-8-6-7.51-15.13,8-18.14,33.49,6.1,30.92,8.81,31.08,6.63-4.74,6.63-4.74" style="fill:none;stroke:#fefefe;stroke-linecap:round;stroke-linejoin:round"/><path d="M270.75,240.16l-11.2-1.56a6.58,6.58,0,0,0-5.51,1.83c-3.18,3.1-8.25,9.63-9.73,20.74-2.22,16.58.86,24.55,1.88,26.46s1.5,3,5,3.5a19.82,19.82,0,0,0,5.94,0" style="fill:none;stroke:#fefefe;stroke-linecap:round;stroke-linejoin:round"/><path d="M222.65,246.06l-7.09-.79s-4.15-.63-5.88,13.56-1.08,33.95,1.48,44.63,3.89,12.73,5.7,13.85c1,.63,2.79.55,4.17.37a1.69,1.69,0,0,0,1.39-2.15,148.55,148.55,0,0,1-5.07-40.45c.13-24.87,4.27-27.74,4.75-28.86s4.38,2.7,6.82,4.77,8.89,1.11,8.89,1.11a112.29,112.29,0,0,0-2.93,20.73c-.31,10.2,1.54,16.73,2.93,19.76.11.23.22.46.33.66a5.36,5.36,0,0,0,4.76,2.83h4.32" style="fill:none;stroke:#fefefe;stroke-linecap:round;stroke-linejoin:round"/><path d="M221.86,317.31s9.37-12.33,12.41-17.54c1.13-1.95,3.54-5.75,3.54-5.75" style="fill:none;stroke:#fefefe;stroke-linecap:round;stroke-linejoin:round"/><path d="M217.37,245.26s1.88-5.94,5.6-6.11,9.22.46,11.19,1.59,1.77,1.45,1.77,1.45" style="fill:none;stroke:#fefefe;stroke-linecap:round;stroke-linejoin:round"/><path d="M301.69,177s-5.51,60-8.05,71.12-5.81,16.66-5.81,16.66l-18.52-2.3s3.14-5.42,6.16-11.48,7.32-15.33,9.68-39.24S287.83,177,287.83,177" style="fill:none;stroke:#fefefe;stroke-linecap:round;stroke-linejoin:round"/><path d="M308.9,177s-3.85,8.93-5.1,31.25-1,26.62,0,33.95,1.65,12.54,1.65,12.54l-7.77-1.06a96,96,0,0,1-1.82-13.51,64.74,64.74,0,0,1,0-7" style="fill:none;stroke:#fefefe;stroke-linecap:round;stroke-linejoin:round"/><path d="M316.59,247.66s-2.57-20.18-4.49-26.78-8.68-5.55-8.68-5.55" style="fill:none;stroke:#fefefe;stroke-linecap:round;stroke-linejoin:round"/><line x1="303.07" y1="236.32" x2="310.01" y2="217.3" style="fill:none;stroke:#fefefe;stroke-linecap:round;stroke-linejoin:round"/><path d="M323.14,254.92a65.71,65.71,0,0,0-22.78,12.46c-2.81,2.31-7.16,14.09-6.67,25.67.68,16.1,3.69,20.72,5,22.79a8.46,8.46,0,0,0,3.69,3,3.68,3.68,0,0,1-2.57,1.45c-1.91.33-7.81.8-8.61,0s-6.39-8.76-5.67-24.23,5.61-26.3,8.32-30.29,10.67-10.21,12.9-12.12,4.3-4.15,8.6-5.56,15.6-6.8,15.6-6.8" style="fill:none;stroke:#fefefe;stroke-linecap:round;stroke-linejoin:round"/><path d="M281.3,235.34h-4.07a15.66,15.66,0,0,0-7.92,8.21c-2.9,6.38-8,25.08-9.88,34.44s-2.8,23.17,0,28.48a67.08,67.08,0,0,0,6.41,9.77" style="fill:none;stroke:#fefefe;stroke-linecap:round;stroke-linejoin:round"/><polyline points="282.15 264.77 277.32 313.67 264.35 312.2 268.37 275.31 269.31 262.47" style="fill:none;stroke:#fefefe;stroke-linecap:round;stroke-linejoin:round"/><path d="M301.69,257.87s-6.58-1.6-8.49.95-7.47,11.07-11.05,26.58-2.28,32.41-2.28,32.41,1.5,6.91,3.62,7.12,12.3-4.23,12.3-4.23" style="fill:none;stroke:#fefefe;stroke-linecap:round;stroke-linejoin:round"/><path d="M266.92,312.49s-2.13,9.06-1.07,10.55,7.87,3.39,9.57,1.9,1.9-11.27,1.9-11.27" style="fill:none;stroke:#fefefe;stroke-linecap:round;stroke-linejoin:round"/><path d="M324.26,292.37c0-1.06-.78-22.79,2.39-33.16,3.37-11,7.08-15.39,11.37-20.19,3.21-3.59,6.06-2.57,6.06-2.57" style="fill:none;stroke:#fefefe;stroke-linecap:round;stroke-linejoin:round"/><path d="M352.48,250.05H341.64s-8.07,3.63-11.24,16.6.52,27.06.52,27.06" style="fill:none;stroke:#fefefe;stroke-linecap:round;stroke-linejoin:round"/><path d="M370.33,240.16c-.85-.33-9.78-2.66-13.82,3.08s-9.54,20.41-11,29.55,0,22.53,0,22.53" style="fill:none;stroke:#fefefe;stroke-linecap:round;stroke-linejoin:round"/><path d="M369.21,247.26s-10.13,8.52-13.32,10.12-4,12.48-5.29,18.41S347,296.08,347,296.08" style="fill:none;stroke:#fefefe;stroke-linecap:round;stroke-linejoin:round"/><path d="M407.6,312.49a39.81,39.81,0,0,1,5.51-6.82c3-2.77,3.83-2.56,3.83-2.56l43.79,6.54" style="fill:none;stroke:#fefefe;stroke-linecap:round;stroke-linejoin:round"/><path d="M308.58,368.49s-5.2-3.62-5.16-23.81,3.44-34.89,7.47-41.58a40.73,40.73,0,0,1,9.55-10.73s-2.16-28.05,5.05-41.87,10.4-15,14.44-15.16,8.08,3.67,9.78,6.85a40.68,40.68,0,0,1,2.77,6.79" style="fill:none;stroke:#fefefe;stroke-linecap:round;stroke-linejoin:round"/><path d="M376,186c-.2,1.25-2.25,35.24-4,47.79s-5.39,21.69-7.94,26.47-6.53,15.56-6.53,15.56l20.9,1.32s5.39-19.38,7.61-31.85,7.27-59.56,6.63-58.65" style="fill:none;stroke:#fefefe;stroke-linecap:round;stroke-linejoin:round"/><path d="M355.2,296.82c-.29-1.51,2.38-21,2.38-21" style="fill:none;stroke:#fefefe;stroke-linecap:round;stroke-linejoin:round"/><line x1="370.33" y1="298.75" x2="372.1" y2="277.11" style="fill:none;stroke:#fefefe;stroke-linecap:round;stroke-linejoin:round"/><path d="M376,298.75s.86-13.44,6.91-23,10.19-12.08,15.92-15,9.75-3.84,15.71-6.07,8.51-2.88,9.79-2.88,9.8,1.79,9.8,1.79a8.49,8.49,0,0,1,2.32,3.71,30.9,30.9,0,0,1,.32,4.36" style="fill:none;stroke:#fefefe;stroke-linecap:round;stroke-linejoin:round"/><path d="M383,300.36a39.28,39.28,0,0,1,6.71-21.67c6.31-9.4,16.78-11.55,20.48-13.92s6.4-4,6.4-4-4,13.71-4.6,20.73-1.66,22.32-1.66,22.32" style="fill:none;stroke:#fefefe;stroke-linecap:round;stroke-linejoin:round"/><path d="M428.27,252.49s-7,4.49-9.73,16.93-4,35-4,35l-94.13-12" style="fill:none;stroke:#fefefe;stroke-linecap:round;stroke-linejoin:round"/><path d="M419.27,303.1s.06-8.53,1.24-18.79c1.95-16.94,8.56-23.5,8.56-23.5l15.31,1.84-3.27,10.61" style="fill:none;stroke:#fefefe;stroke-linecap:round;stroke-linejoin:round"/><path d="M429.07,304.92s3.4-27.52,5.09-29.61,7.75-2.68,9,0c.32.68.35,3,.21,6-.4,9.21-2.29,25.37-2.29,25.37" style="fill:none;stroke:#fefefe;stroke-linecap:round;stroke-linejoin:round"/><path d="M444.39,278.14c7.1,3.33,8.67-14.4,13.77-17.33s19.12-4.66,21-7.14a20.52,20.52,0,0,0,2.62-4.24" style="fill:none;stroke:#fefefe;stroke-linecap:round;stroke-linejoin:round"/><path d="M444.39,262.65s3.61-6.33,6.77-6.66,5.08,2.89,8.59,0,7.64-6.16,13.7-7.88,8.36-1.63,8.36-1.63" style="fill:none;stroke:#fefefe;stroke-linecap:round;stroke-linejoin:round"/><path d="M446.78,259.21s-5.47-24.56-5.67-25.84-3.5-2.29-6.95-2.57-7,5.85-8.54,11.39a30.08,30.08,0,0,0-1.26,9.69" style="fill:none;stroke:#fefefe;stroke-linecap:round;stroke-linejoin:round"/><path d="M434.16,253.67s3.38-9,5.17-14.65l1.78-5.65" style="fill:none;stroke:#fefefe;stroke-linecap:round;stroke-linejoin:round"/><path d="M475.3,195.89s7.49,29.51,7.49,39.44a77.16,77.16,0,0,1-3.74,25.48c-2.71,8.55-3.75,10.4-3.75,10.4h10.61" style="fill:none;stroke:#fefefe;stroke-linecap:round;stroke-linejoin:round"/><path d="M485.9,277.11l-19.12-1.8s-6.07,5.36-6,12.62,0,32.82,0,32.82l19.87,1.84s.74-27.49,0-28.57.47-8.69,2.57-12.06A39.74,39.74,0,0,0,485.9,277.11Z" style="fill:none;stroke:#fefefe;stroke-linecap:round;stroke-linejoin:round"/><path d="M496.1,194.35s5.44,35.42,6.85,42a118,118,0,0,0,3.77,13.11" style="fill:none;stroke:#fefefe;stroke-linecap:round;stroke-linejoin:round"/><path d="M398.48,185.87S394.67,216,395,228.22s.55,21.79,1.73,25.45,2.13,7.16,2.13,7.16" style="fill:none;stroke:#fefefe;stroke-linecap:round;stroke-linejoin:round"/><line x1="475.3" y1="271.21" x2="475.3" y2="275.31" style="fill:none;stroke:#fefefe;stroke-linecap:round;stroke-linejoin:round"/><path d="M485.9,277.11s2.23-15.86,5.1-16.28a26.17,26.17,0,0,1,6.12,0s-1-11.58-2.82-29.29S489,197.29,489,195.89" style="fill:none;stroke:#fefefe;stroke-linecap:round;stroke-linejoin:round"/><path d="M480.55,388.58c-.63-20-.49-40.84,7.82-59.42,3.34-7.19,6.69-11,14.57-13,.06,0,.08.08,0,.09a30,30,0,0,0-4.57,2c-4.63,2.2-7.09,6.78-9.11,11.29-8.34,18.35-8.74,39.48-8.73,59" style="fill:#fefefe"/><path d="M485.86,388.58c.24-11.86.71-23.72,1.9-35.53.83-8.84,3-17.77,7.67-25.44l2.3-3.82a11.12,11.12,0,0,1,3.13-3.37l-.17.46a4.07,4.07,0,0,1,.66-2.66,24.21,24.21,0,0,1,1.28-2.2l-.07.24c-.43-4.64-.78-9.57-2.85-13.79-1.06-2.1-2.3-4.13-3.58-6.14s-2.93-4.1-4.07-6.24c.46-6.74.87-13.47,1.63-20.18s4.91-12.83,9.43-17.76c3.3-3.85,8-4.32,12.43-2.15a0,0,0,1,1,0,.09c-3-1.28-6.75-1.72-9.53.23-4.37,3.41-7.51,8.33-9.82,13.3-1.91,4.09-1.69,8.69-2.14,13.09s-.68,9-1,13.44l-.09-.32a101.87,101.87,0,0,1,7.57,12.25c2.05,4.44,2.57,9.58,2.74,14.37-.72,1.24-1.87,2.72-1.9,4.17a.4.4,0,0,1-.17.46c-2.11,1.29-3.87,4.8-5.2,6.87-4.66,7.58-6.87,16.35-7.79,25.15-1.41,11.68-1.71,24-2.35,35.48" style="fill:#fefefe"/><path d="M480.81,294.87c.87,19.31.68,38.7-2.23,57.84a277.16,277.16,0,0,1-9.19,33.54c0,.06-.11,0-.09,0,2.51-11.3,6-22.39,8.56-33.64a261.36,261.36,0,0,0,3-34.55c.22-7.63-.12-15.84,0-23.17" style="fill:#fefefe"/><path d="M452.21,359.92a50.58,50.58,0,0,0,4.45-14l.5-3.2a6.55,6.55,0,0,0-3.81-7c-2.61-1.17-6.47-1.08-7.47-.42-1.93,1.28-4.71,12.5-4.77,17.64s.09,4.75,3.27,6A22.27,22.27,0,0,0,452.21,359.92Z" style="fill:none;stroke:#fefefe;stroke-linecap:round;stroke-linejoin:round"/><path d="M368.85,307c15,1.77,58.13,9.26,58.13,9.26s-9,10.88-10.42,23.63-1.55,16.9,0,24.23,2,8.93,2,8.93l-57.13-7.55a5.79,5.79,0,0,1-4.51-3.27c-1.9-4-4.33-12.61-1.73-27.45,2.65-15.09,6.87-22.61,9.31-25.89A4.75,4.75,0,0,1,368.85,307Z" style="fill:none;stroke:#fefefe;stroke-linecap:round;stroke-linejoin:round"/><path d="M316.53,325.48s-.5-9.45,1.73-14.69,4.46-6.39,4.46-6.39c1.27.19,40.46,6.39,40.46,6.39" style="fill:none;stroke:#fefefe;stroke-linecap:round;stroke-linejoin:round"/><polygon points="320.44 317.31 326.99 318.71 329.69 325.48 326.65 331.68 320.44 331.68 316.53 325.48 320.44 317.31" style="fill:none;stroke:#fefefe;stroke-linecap:round;stroke-linejoin:round"/><path d="M356.38,361l-9.4-.82a.21.21,0,0,1-.12-.05l-6.35-5.18a.34.34,0,0,1-.08-.45l3.28-5.82.07.52-4.24-4.12a.46.46,0,0,1-.13-.41,26.85,26.85,0,0,1,1.16-4.8c.18-.54.81-1.08,1.3-.48.27.46.4.88.91,1.15a4.46,4.46,0,0,0,2.06.52l-.47.68c0-.12-.86-2.12-.78-2.18l.8-7.91c.73-3.05,1.46-6.1,2.24-9.14l.18.43a35.72,35.72,0,0,1-3.88-3.14c-1.22-1.11-2.44-2.24-3.63-3.39l-3-3.73a.14.14,0,0,1,0-.17l3.19-4.7-2.94,4.86v-.18l3.14,3.59a68.57,68.57,0,0,0,7.51,6.18.42.42,0,0,1,.19.43c-.65,2.94-1.47,6.35-2.1,9.05l-.72,7.92,0-.23.76,1.95a.48.48,0,0,1-.26.64c-1.47.1-3.33-.48-3.91-2,0-.1-.11,0,.22.07s.21-.1.2,0a1.23,1.23,0,0,0-.1.2,25.68,25.68,0,0,0-1.14,4.57l-.13-.41,4.2,4.17a.41.41,0,0,1,.07.52L341,354.84l-.08-.44,6.2,5.36c-.64-.14,9.35,1.26,9.22,1.23" style="fill:#fefefe"/><path d="M336.43,351.44s-15-.67-19.9,0-7.29,2.43-7.63,10.87c-.31,7.51-1.16,13.07,1.11,13.7s6.52.58,6.52-.83c0-8.11,0-17,1.78-17.11,5.55-.4,18.12-.89,18.12-.89Z" style="fill:none;stroke:#fefefe;stroke-linecap:round;stroke-linejoin:round"/><path d="M334.13,331.68c.06,1,.11,2.05.15,3.08a.15.15,0,0,1-.15.15c-1.48.06-3,.12-4.44.15l.3-.26-.58,5.13a.41.41,0,0,1-.42.37l-2.34,0,.42-.29-2.43,6.18-.34-.67,5,1.34h0l0,0c1.68.69,3.43,1.26,5.08,2l2.24,2.29a.28.28,0,0,1,.1.22c0,1.08-.05,2.15-.11,3.23l-.2-.2c1.44.06,2.87.11,4.3.2-1.43.09-2.86.14-4.3.2a.2.2,0,0,1-.2-.2c-.05-1.08-.07-2.15-.1-3.23l.09.22-2.36-2.17c-.85-.17-3.62-1.29-4.83-1.68l-5-1.29a.5.5,0,0,1-.36-.61c0-.07,2.52-6.13,2.53-6.21a.43.43,0,0,1,.43-.28l2.34,0-.43.37.83-5.1a.29.29,0,0,1,.3-.26q2.22,0,4.44.15l-.15.15c0-1,.09-2.05.15-3.08" style="fill:#fefefe"/><path d="M422.44,316.24a40.23,40.23,0,0,0-9.12,18.52c-2.54,11.82-2.32,23.32-1,29.05a70.43,70.43,0,0,0,2.23,8.27" style="fill:none;stroke:#fefefe;stroke-linecap:round;stroke-linejoin:round"/><line x1="451.37" y1="335.04" x2="419.27" y2="331.68" style="fill:none;stroke:#fefefe;stroke-linecap:round;stroke-linejoin:round"/><line x1="444.39" y1="358.9" x2="415.45" y2="354.5" style="fill:none;stroke:#fefefe;stroke-linecap:round;stroke-linejoin:round"/><path d="M427,316.24,444.39,319s-2.06,1-2.39,5.95c-.15,2.23-.15,3.35-.15,3.35l-16.64-2.81-3.61,6.2,3.61-6.2a15,15,0,0,1,1-6.77Z" style="fill:none;stroke:#fefefe;stroke-linecap:round;stroke-linejoin:round"/><path d="M436.28,363.81s-2.17,8.27,0,9.22,5.63-3.1,4.83-6.08S436.28,363.81,436.28,363.81Z" style="fill:none;stroke:#fefefe;stroke-linecap:round;stroke-linejoin:round"/><polyline points="417.84 354.86 421.6 362.09 436.28 363.81 434.16 357.35" style="fill:none;stroke:#fefefe;stroke-linecap:round;stroke-linejoin:round"/><path d="M436.28,373l-18.09-1.46a14.55,14.55,0,0,1,0-3.08,27,27,0,0,1,1.08-3.63,19.66,19.66,0,0,1,2.33-2.77" style="fill:none;stroke:#fefefe;stroke-linecap:round;stroke-linejoin:round"/><path d="M436.28,333.36c.84-1,5.57-5.07,5.57-5.07v5.07" style="fill:none;stroke:#fefefe;stroke-linecap:round;stroke-linejoin:round"/><path d="M444.39,319s4.1-.09,4.1,5.57c0,4.52-3.47,5.41-4.1,5.41a2.57,2.57,0,0,1-2.54-1.68" style="fill:none;stroke:#fefefe;stroke-linecap:round;stroke-linejoin:round"/><line x1="480.46" y1="326.53" x2="448.49" y2="323.61" style="fill:none;stroke:#fefefe;stroke-linecap:round;stroke-linejoin:round"/><line x1="460.73" y1="320.75" x2="443.48" y2="319.28" style="fill:none;stroke:#fefefe;stroke-linecap:round;stroke-linejoin:round"/><path d="M441.11,70c-.75,48.52-1.71,102.72-3.47,151.24.45-48.65,1.41-102.66,3.47-151.24" style="fill:#fefefe"/><path d="M528.37,69.86c-.81,45.55-1.48,97.21-3.14,143,.22-42.69,1.14-91.5,2.68-134.17.09-2.27.24-6.14.39-8.38l0-.28v-.14s0,0,0-.07,0,0,0,0" style="fill:#fefefe"/><path d="M433.56,66.56c-.75,48.53-1.71,102.73-3.47,151.25.45-48.65,1.41-102.66,3.47-151.25" style="fill:#fefefe"/><path d="M348.68,66.27c-.7,46.5-1.7,100.14-3.41,146.51.43-47.13,1.36-99.45,3.41-146.51" style="fill:#fefefe"/><path d="M344.08,60.65c-.43,48.81-1,103.33-2.46,152.13.13-48.93.72-103.26,2.46-152.13" style="fill:#fefefe"/><path d="M259,56.25c.17,46.2.16,99.5-.68,145.59-.44-46.82-.49-98.81.68-145.59" style="fill:#fefefe"/><path d="M257,50.56c.13,48.53.16,102.74-.72,151.28-.43-48.65-.45-102.67.72-151.28" style="fill:#fefefe"/><path d="M174.79,55.46c.32,44.22.49,95.22-.21,139.34-.59-44.81-.8-94.56.21-139.34" style="fill:#fefefe"/><path d="M526.7,150.18s15.61,2,23.9,1.83,11.47-3.07,16.89-3.08,16.27,6.91,16.28,16.67S573,186.15,565.62,185.87s-39.49-3.1-39.49-3.12" style="fill:none;stroke:#fefefe;stroke-linecap:round;stroke-linejoin:round"/><path d="M548.84,184.68s-7.65,15.72-16,47.93S521.7,294.17,520,312.49s-2,20.21-2,20.21" style="fill:none;stroke:#fefefe;stroke-linecap:round;stroke-linejoin:round"/><polyline points="544.66 194.35 531.04 192.04 531.91 198.48" style="fill:none;stroke:#fefefe;stroke-linecap:round;stroke-linejoin:round"/><line x1="535.26" y1="183.55" x2="535.5" y2="185.87" style="fill:none;stroke:#fefefe;stroke-linecap:round;stroke-linejoin:round"/><line x1="544.13" y1="195.79" x2="531.27" y2="193.72" style="fill:none;stroke:#fefefe;stroke-linecap:round;stroke-linejoin:round"/><polyline points="546.79 188.19 533.17 185.87 534.04 192.31" style="fill:none;stroke:#fefefe;stroke-linecap:round;stroke-linejoin:round"/><line x1="546.26" y1="189.62" x2="533.4" y2="187.55" style="fill:none;stroke:#fefefe;stroke-linecap:round;stroke-linejoin:round"/><line x1="541.43" y1="202.41" x2="529.09" y2="200.43" style="fill:none;stroke:#fefefe;stroke-linecap:round;stroke-linejoin:round"/><polyline points="542.34 200.83 528.71 198.81 529.41 205.51" style="fill:none;stroke:#fefefe;stroke-linecap:round;stroke-linejoin:round"/><polyline points="539.98 207.93 526.97 205.51 528.01 213.33" style="fill:none;stroke:#fefefe;stroke-linecap:round;stroke-linejoin:round"/><polyline points="537.91 214.58 524.17 212.85 525.23 219.38" style="fill:none;stroke:#fefefe;stroke-linecap:round;stroke-linejoin:round"/><polyline points="535.71 221.23 523.18 219.93 524.08 226.88" style="fill:none;stroke:#fefefe;stroke-linecap:round;stroke-linejoin:round"/><path d="M534,228.37l-13.47-1.49.49,6.67s-3.34,1.62-3.08,2.42l1.49,4.62-3.1,2.81,1.61,5.44-3.18,3.21.79,4.55-3.1,4.21,2,4.18-3.75,3.82.79,5.58-2.38,4.17,1.33,5.75L508,286.83l1.75,4.46-2.86,4.31,1.64,4.58L506,304.4l1.73,5.06-3,3L506,316.8l-1.29,7" style="fill:none;stroke:#fefefe;stroke-linecap:round;stroke-linejoin:round"/><line x1="521" y1="233.55" x2="532.3" y2="234.83" style="fill:none;stroke:#fefefe;stroke-linecap:round;stroke-linejoin:round"/><line x1="521" y1="229.07" x2="533.38" y2="230.47" style="fill:none;stroke:#fefefe;stroke-linecap:round;stroke-linejoin:round"/><line x1="523.43" y1="221.88" x2="535.26" y2="223.13" style="fill:none;stroke:#fefefe;stroke-linecap:round;stroke-linejoin:round"/><line x1="524.51" y1="214.86" x2="537.05" y2="216.19" style="fill:none;stroke:#fefefe;stroke-linecap:round;stroke-linejoin:round"/><line x1="527.2" y1="207.53" x2="539.21" y2="209.42" style="fill:none;stroke:#fefefe;stroke-linecap:round;stroke-linejoin:round"/><line x1="519.13" y1="240.52" x2="530.43" y2="241.81" style="fill:none;stroke:#fefefe;stroke-linecap:round;stroke-linejoin:round"/><line x1="518.11" y1="248.84" x2="528.37" y2="250.01" style="fill:none;stroke:#fefefe;stroke-linecap:round;stroke-linejoin:round"/><line x1="515.53" y1="256.6" x2="526.65" y2="258.16" style="fill:none;stroke:#fefefe;stroke-linecap:round;stroke-linejoin:round"/><line x1="514.36" y1="265.04" x2="525.48" y2="266.59" style="fill:none;stroke:#fefefe;stroke-linecap:round;stroke-linejoin:round"/><line x1="512.36" y1="274.54" x2="523.48" y2="276.09" style="fill:none;stroke:#fefefe;stroke-linecap:round;stroke-linejoin:round"/><line x1="511.08" y1="284.18" x2="522.2" y2="285.73" style="fill:none;stroke:#fefefe;stroke-linecap:round;stroke-linejoin:round"/><line x1="509.8" y1="291.65" x2="521.93" y2="293.34" style="fill:none;stroke:#fefefe;stroke-linecap:round;stroke-linejoin:round"/><line x1="508.52" y1="300.18" x2="520.66" y2="301.87" style="fill:none;stroke:#fefefe;stroke-linecap:round;stroke-linejoin:round"/><line x1="507.52" y1="309.52" x2="519.65" y2="311.22" style="fill:none;stroke:#fefefe;stroke-linecap:round;stroke-linejoin:round"/><line x1="506.72" y1="317.06" x2="518.85" y2="318.75" style="fill:none;stroke:#fefefe;stroke-linecap:round;stroke-linejoin:round"/><line x1="518.52" y1="236.22" x2="531.04" y2="238.09" style="fill:none;stroke:#fefefe;stroke-linecap:round;stroke-linejoin:round"/><line x1="516.85" y1="243.77" x2="529.37" y2="245.64" style="fill:none;stroke:#fefefe;stroke-linecap:round;stroke-linejoin:round"/><line x1="514.74" y1="252.05" x2="527.26" y2="254.25" style="fill:none;stroke:#fefefe;stroke-linecap:round;stroke-linejoin:round"/><line x1="512.87" y1="261.13" x2="525.95" y2="262.65" style="fill:none;stroke:#fefefe;stroke-linecap:round;stroke-linejoin:round"/><line x1="511.38" y1="269.39" x2="524.46" y2="270.92" style="fill:none;stroke:#fefefe;stroke-linecap:round;stroke-linejoin:round"/><line x1="509.8" y1="278.98" x2="523.48" y2="280.57" style="fill:none;stroke:#fefefe;stroke-linecap:round;stroke-linejoin:round"/><line x1="508.52" y1="287.07" x2="522.2" y2="288.67" style="fill:none;stroke:#fefefe;stroke-linecap:round;stroke-linejoin:round"/><line x1="507.52" y1="295.73" x2="521.2" y2="297.72" style="fill:none;stroke:#fefefe;stroke-linecap:round;stroke-linejoin:round"/><line x1="506.03" y1="304.49" x2="520.55" y2="306.48" style="fill:none;stroke:#fefefe;stroke-linecap:round;stroke-linejoin:round"/><line x1="505.1" y1="313.08" x2="519.62" y2="315.06" style="fill:none;stroke:#fefefe;stroke-linecap:round;stroke-linejoin:round"/><line x1="504.89" y1="322.65" x2="518.85" y2="324.56" style="fill:none;stroke:#fefefe;stroke-linecap:round;stroke-linejoin:round"/><path d="M546.26,189.62a133.65,133.65,0,0,0,9.64,17.91c5.58,8.51,9.73,14,15.79,15s14.19-1.39,16.89-8.41,14.46-43,14.13-48.15.47-7.18-14.05-27.88-18.36-26-18.36-26-4-6.21-12.92-4.92-9.66,6.32-11.12,9.94S534.63,151,534.63,151" style="fill:none;stroke:#fefefe;stroke-linecap:round;stroke-linejoin:round"/><path d="M557.38,107.18s5.69-2.56,11.29-.81,14.07,14.1,19.34,21.54,16.12,23.18,17.4,26.68,2.24,7.46-1.1,15.67c-2.52,6.2-11.93,32.83-11.93,32.83" style="fill:none;stroke:#fefefe;stroke-linecap:round;stroke-linejoin:round"/><path d="M247.22,206.76s9.38-.77,11.74,3.85,1.27,7.15,1.27,7.15" style="fill:none;stroke:#fefefe;stroke-linecap:round;stroke-linejoin:round"/><path d="M244.34,225.05c-.38-1,5.6-4.3,5.71-7.29s3.71-3.75,4.54-6a5.38,5.38,0,0,0-.74-4.48" style="fill:none;stroke:#fefefe;stroke-linecap:round;stroke-linejoin:round"/><path d="M222.81,203S215,186.4,201,191.75c-10.32,3.94-19.89,21.14-22.73,30.14-3.17,10.06-6.88,21.42-8.65,41.31-1.63,18.31-1.45,38.51,7.82,53s23.69,5.75,27.82,1.07,6.45-11.64,6.45-11.64" style="fill:none;stroke:#fefefe;stroke-linecap:round;stroke-linejoin:round"/><path d="M221.67,199s-7.92-15.12-24.1-9.3c-10.39,3.74-19.89,21.14-22.73,30.14-3.17,10.06-6.88,21.43-8.65,41.31-1.63,18.32-1.37,38.76,7.21,53.7,4,6.91,9.46,8.77,12.13,9.39,5.31,1.24,11.93-1.54,11.93-1.54" style="fill:none;stroke:#fefefe;stroke-linecap:round;stroke-linejoin:round"/><g style="opacity:0.4399999976158142"><g style="clip-path:url(#b)"><path d="M256.63,55.44c0,5.31-18.07,9.62-40.37,9.62s-40.37-4.31-40.37-9.62,18.08-9.62,40.37-9.62S256.63,50.13,256.63,55.44Z" style="fill:none;stroke:#fefefe;stroke-linecap:round;stroke-linejoin:round"/></g></g><g style="opacity:0.25999999046325684"><g style="clip-path:url(#c)"><path d="M256.63,65.06c0,5.31-18.07,9.61-40.37,9.61s-40.37-4.3-40.37-9.61,18.08-9.62,40.37-9.62S256.63,59.74,256.63,65.06Z" style="fill:none;stroke:#fefefe;stroke-linecap:round;stroke-linejoin:round"/></g></g><g style="opacity:0.4399999976158142"><g style="clip-path:url(#d)"><path d="M344.08,60.65c0,5.31-18.47,9.62-41.27,9.62S261.54,66,261.54,60.65,280,51,302.81,51,344.08,55.34,344.08,60.65Z" style="fill:none;stroke:#fefefe;stroke-linecap:round;stroke-linejoin:round"/></g></g><g style="opacity:0.25999999046325684"><g style="clip-path:url(#e)"><path d="M344.08,70.27c0,5.31-18.47,9.62-41.27,9.62s-41.27-4.31-41.27-9.62,18.48-9.62,41.27-9.62S344.08,65,344.08,70.27Z" style="fill:none;stroke:#fefefe;stroke-linecap:round;stroke-linejoin:round"/></g></g><g style="opacity:0.25999999046325684"><g style="clip-path:url(#f)"><path d="M344.08,79.32c0,5.31-18.47,9.62-41.27,9.62s-41.27-4.31-41.27-9.62S280,69.7,302.81,69.7,344.08,74,344.08,79.32Z" style="fill:none;stroke:#fefefe;stroke-linecap:round;stroke-linejoin:round"/></g></g><g style="opacity:0.4399999976158142"><g style="clip-path:url(#g)"><ellipse cx="391.12" cy="66.27" rx="42.44" ry="9.62" style="fill:none;stroke:#fefefe;stroke-linecap:round;stroke-linejoin:round"/></g></g><g style="opacity:0.25999999046325684"><g style="clip-path:url(#h)"><ellipse cx="391.12" cy="75.89" rx="42.44" ry="9.62" style="fill:none;stroke:#fefefe;stroke-linecap:round;stroke-linejoin:round"/></g></g><g style="opacity:0.25999999046325684"><g style="clip-path:url(#i)"><ellipse cx="391.12" cy="84.94" rx="42.44" ry="9.62" style="fill:none;stroke:#fefefe;stroke-linecap:round;stroke-linejoin:round"/></g></g><g style="opacity:0.4399999976158142"><g style="clip-path:url(#j)"><path d="M528.37,69.86c0,5.32-19.6,9.62-43.78,9.62s-43.79-4.3-43.79-9.62,19.6-9.61,43.79-9.61S528.37,64.55,528.37,69.86Z" style="fill:none;stroke:#fefefe;stroke-linecap:round;stroke-linejoin:round"/></g></g><g style="opacity:0.25999999046325684"><g style="clip-path:url(#k)"><ellipse cx="484.59" cy="79.48" rx="43.79" ry="9.62" style="fill:none;stroke:#fefefe;stroke-linecap:round;stroke-linejoin:round"/></g></g><g style="opacity:0.25999999046325684"><g style="clip-path:url(#l)"><ellipse cx="484.59" cy="88.53" rx="43.79" ry="9.62" style="fill:none;stroke:#fefefe;stroke-linecap:round;stroke-linejoin:round"/></g></g><path d="M490.74,388.53c9.51-.13,19.58-.69,28.16-5.09,4.29-2.32,6.79-6.77,10.79-9.55,1.84-1.59,4.44-1.89,5-4.56a33.74,33.74,0,0,0,1.1-7.06c.24-3.55.43-7.19-.57-10.62a3.89,3.89,0,0,0-1.2-2,20.57,20.57,0,0,1-3.73-2.68,10.21,10.21,0,0,1-2.2-3.08,17,17,0,0,0-4.09-5.69c-6.83-6.76-16.43-10.44-23-17.46,7.24,6.48,16.59,10,23.73,16.74a18.27,18.27,0,0,1,4.3,6,9.27,9.27,0,0,0,2,2.79c1.14,1.2,2.73,1.87,4,2.94a5.89,5.89,0,0,1,1.12,2.2c1,3.58.76,7.34.47,11a34.38,34.38,0,0,1-1.21,7.22,7.11,7.11,0,0,1-.8,1.73c-1.15,1.52-3.14,1.91-4.53,3.14-4,2.72-6.59,7.19-10.93,9.45s-9.16,3.3-13.93,4a76.49,76.49,0,0,1-14.47.68" style="fill:#fefefe"/><path d="M536.37,359.83c.31-5.74-.65-9.56-1.92-10.52s-4.47-2.23-6.07-6.05-6.3-8.28-14.79-13.37A70.45,70.45,0,0,1,501,320.75" style="fill:none;stroke:#fefefe;stroke-linecap:round;stroke-linejoin:round"/><path d="M469.34,386.24c-5.24-.93-13.53-1.65-18.91-2.3-41.78-4.67-90.85-10.16-132.51-15.45,49.61,5.12,102.17,10.38,151.42,17.75" style="fill:#fefefe"/></g></svg>