<svg xmlns="http://www.w3.org/2000/svg" xmlns:xlink="http://www.w3.org/1999/xlink" viewBox="0 0 774 443.5"><g style="clip-path:url(#a)"><ellipse cx="269.32" cy="176.36" rx="33.49" ry="32.56" style="fill:none;stroke:#fefefe;stroke-linecap:round;stroke-linejoin:round"/><path d="M282.73,174.1A15.53,15.53,0,1,1,267.21,159,15.31,15.31,0,0,1,282.73,174.1Z" style="fill:none;stroke:#fefefe;stroke-linecap:round;stroke-linejoin:round"/><ellipse cx="268.17" cy="175.75" rx="26.81" ry="25.66" style="fill:none;stroke:#fefefe;stroke-linecap:round;stroke-linejoin:round"/><path d="M334,158.39s-1.27-1.2-.65-1.84c1.15-1.16,3.38-2.61,1.08-6.45s-6.61-6.15-11.37-12.9-6.6-11.22-7.83-13.06-2.31-1.69-.92-2.77,5.37-2,9.06-2.46a61.8,61.8,0,0,1,13.06,0c2.76.46,2.46,1.23,4.14,2.92s23.66,26.43,19.36,63.76-26.73,58.07-40.25,66.52-12.9,6.6-12.9,6.6a84.87,84.87,0,0,0-4-10.75l-2.3-4.92s11.21-6.6,17.51-13.21,9.07-10.75,11.83-18.43,2.92-14.45,2.46-16.75-3-3.63-1.8-4.4,6.19-3,7.57-7.27,1.33-11.46,0-16.12C336.21,160.26,334,158.39,334,158.39Z" style="fill:none;stroke:#fefefe;stroke-linecap:round;stroke-linejoin:round"/><path d="M301.88,184s.93,5,1.55,5.18A46,46,0,0,1,319.56,188c8.14,1.08,7.53,2,9.68,1.15s5.82-3.88,6.74-6,2.39-9.8-.07-16.87-3-6.71-3.75-7.32-1.39.46-7.38,0a189.1,189.1,0,0,1-22-3.07,46.17,46.17,0,0,0-8.55-1.31" style="fill:none;stroke:#fefefe;stroke-linecap:round;stroke-linejoin:round"/><path d="M235.85,177.2a28.63,28.63,0,0,0,2.9,15.37c3.67,7.2,6.43,6.49,7.85,13.09S248,244.75,248,244.75a12.43,12.43,0,0,0,1.78,6.15,7.94,7.94,0,0,0,3.25,2.7,22.57,22.57,0,0,0,7.32,1.05h12.17a16.86,16.86,0,0,0,7.87-2.55c2.85-1.73,3.9-4.43,4.65-6.45s1.87-11.47,3-18.22,2.1-16.87,3.3-20.24,5.09-6.75,7.64-9.82,4.08-8.65,4.08-8.65" style="fill:none;stroke:#fefefe;stroke-linecap:round;stroke-linejoin:round"/><path d="M291.11,201.08s-4.31,4.24-6.48,17c-1.4,8.18-2.85,25.57-3.82,29.24a12.45,12.45,0,0,1-1.73,3.89,12.88,12.88,0,0,1-3.62,3" style="fill:none;stroke:#fefefe;stroke-linecap:round;stroke-linejoin:round"/><path d="M266.49,213.19a22.32,22.32,0,0,1-6-1c-2.4-.9-4.72-1.57-6.15-1.2s-2.4,1-2.55,4.43,1.13,29.09,1.13,29.09a10.46,10.46,0,0,0,1.42,4.49c1.2,1.65,4.35,1.88,4.35,1.88h11.39s3.45,0,4.95-2.55,1.65-4.5,2.18-7.42,3.67-23.39,3.67-23.39.75-3.15,0-4.88-3-1-3.9-.75a36.36,36.36,0,0,1-5.84,1.13A43.55,43.55,0,0,1,266.49,213.19Z" style="fill:none;stroke:#fefefe;stroke-linecap:round;stroke-linejoin:round"/><path d="M267.12,217.54a15.47,15.47,0,0,1-4.23-.69c-1.7-.64-3.34-1.11-4.34-.85s-1.7.69-1.8,3.13.79,20.59.79,20.59a7.47,7.47,0,0,0,1,3.18c.84,1.17,3.07,1.33,3.07,1.33h8a4.34,4.34,0,0,0,3.49-1.81c1.06-1.8,1.16-3.18,1.53-5.25s2.59-16.55,2.59-16.55a7.07,7.07,0,0,0,0-3.45c-.53-1.22-2.11-.69-2.75-.53a25.55,25.55,0,0,1-4.12.79A30,30,0,0,1,267.12,217.54Z" style="fill:none;stroke:#fefefe;stroke-linecap:round;stroke-linejoin:round"/><path d="M246.13,152.88c.07-.07-9.41,1.46-16.9,2.13s-13,.75-14.77.38a7.26,7.26,0,0,0-5,.22c-1.72.83-5.47,2.93-7.72,11.77s-1.12,11.25,0,12.82,5.63,6.15,6.37,6.37,1.8.23,5.7-1,22.71.75,22.71.75" style="fill:none;stroke:#fefefe;stroke-linecap:round;stroke-linejoin:round"/><path d="M306.75,159.73h-3.08s-1.87.23-2,1.43,1.8,3.6,2.55,8.47a63.42,63.42,0,0,1,.82,9,2.26,2.26,0,0,0,2.4,2.17c1.8.08,19.34-.52,19.64-.67s3.16-.68,3.45-2.18-.07-4.87-1.72-9.44-2.7-5.33-4.13-5.93a80.5,80.5,0,0,0-11.39-2.4C310.87,159.81,311.73,160.1,306.75,159.73Z" style="fill:none;stroke:#fefefe;stroke-linecap:round;stroke-linejoin:round"/><path d="M311.86,163a2.64,2.64,0,0,0-1.81-1.6,15.67,15.67,0,0,0-3.08-.5c-2.55-.15-3.75-.07-3.52.45a49.9,49.9,0,0,1,2.7,8.18,32.47,32.47,0,0,1,.6,7.64s-.45,2.18,1,2.18,6.38-.38,6.38-.38a11.1,11.1,0,0,0,0-2.64,73,73,0,0,0-1.2-9.88A26.51,26.51,0,0,0,311.86,163Z" style="fill:none;stroke:#fefefe;stroke-linecap:round;stroke-linejoin:round"/><path d="M315.29,173.45l.47,5.4,6.65-.22a28.84,28.84,0,0,0-.45-3.53c-.27-1.39-.31-1.65-.31-1.65Z" style="fill:none;stroke:#fefefe;stroke-linecap:round;stroke-linejoin:round"/><path d="M323.11,173.45s.28,1.58.43,2.78.24,2.34.24,2.34,4.93.21,5.16-.77a8.25,8.25,0,0,0-.75-3.78C327.74,172.77,323.11,173.45,323.11,173.45Z" style="fill:none;stroke:#fefefe;stroke-linecap:round;stroke-linejoin:round"/><path d="M322.86,172.08h4.43a10.47,10.47,0,0,0-1.33-5.45c-1.6-3.15-3.55-2.55-3.55-2.55Z" style="fill:none;stroke:#fefefe;stroke-linecap:round;stroke-linejoin:round"/><polygon points="320.73 163.37 320.94 167.14 314.46 166.62 313.04 161.98 320.73 163.37" style="fill:none;stroke:#fefefe;stroke-linecap:round;stroke-linejoin:round"/><polygon points="314.74 168.06 315.29 172.08 321.29 172.08 321.03 168.45 314.74 168.06" style="fill:none;stroke:#fefefe;stroke-linecap:round;stroke-linejoin:round"/><path d="M235.72,157.34l-19.91.9s-3,.22-4.28,1.72-2.77,5.7-3.67,8.1-1.35,4.12-1.35,4.12-1.8,3.75,1.57,4.5,21.22,1.8,21.22,1.8,2.93.37,3.3-.9-.6-5.93,1.5-10.65,4.2-7.64,3.82-8.55S235.72,157.34,235.72,157.34Z" style="fill:none;stroke:#fefefe;stroke-linecap:round;stroke-linejoin:round"/><path d="M234,159a1.21,1.21,0,0,1,.92,1.85,36.15,36.15,0,0,0-2.86,6.21A21.83,21.83,0,0,0,231,175.4c-.08.75.37,1.35-1.2,1.43a47,47,0,0,1-5.48-.47s-2.1-.21-1.65-2.83,1.8-7.8,2.55-10.2,1.28-3.15,2.18-3.67,4.57-.63,6.14-.65Z" style="fill:none;stroke:#fefefe;stroke-linecap:round;stroke-linejoin:round"/><path d="M224.76,159.35l-1.49,4.43s-5.74.23-5.66,0,1.12-4,1.12-4l.53-.38Z" style="fill:none;stroke:#fefefe;stroke-linecap:round;stroke-linejoin:round"/><polygon points="223.27 165.13 222 168.96 215.58 168.96 216.78 165.13 223.27 165.13" style="fill:none;stroke:#fefefe;stroke-linecap:round;stroke-linejoin:round"/><polygon points="222 170.53 220.6 175.75 214.32 175.42 215.58 170.53 222 170.53" style="fill:none;stroke:#fefefe;stroke-linecap:round;stroke-linejoin:round"/><path d="M213.94,170.78c-.07.22-1.13,4.4-1.13,4.4s-4.28,0-4.88-1.08,1.13-3.57,1.13-3.57Z" style="fill:none;stroke:#fefefe;stroke-linecap:round;stroke-linejoin:round"/><path d="M217.61,161l-2.85,8.32s-5.48-.37-4.8-.37c.1,0,1.35-4.65,3-6.53S217.61,161,217.61,161Z" style="fill:none;stroke:#fefefe;stroke-linecap:round;stroke-linejoin:round"/><path d="M289.83,215.11a20.13,20.13,0,0,0,14.78-11.82,24.25,24.25,0,0,0,1.57-14.57" style="fill:none;stroke:#fefefe;stroke-linecap:round;stroke-linejoin:round"/><path d="M288.84,223.48s15.8-1.69,23.22-16a28.56,28.56,0,0,0,2.48-19.73" style="fill:none;stroke:#fefefe;stroke-linecap:round;stroke-linejoin:round"/><path d="M287,234.58s16.92-1.05,22.12-1.71c6.65-.85,8.91-3,8.91-3" style="fill:none;stroke:#fefefe;stroke-linecap:round;stroke-linejoin:round"/><path d="M322.12,188.42s.19,6.55,0,9.81a58.9,58.9,0,0,0,0,8.44,16.05,16.05,0,0,0,1.9,5.62s-1.12,3.93-1.57,6.75a53.06,53.06,0,0,0-.5,6.38" style="fill:none;stroke:#fefefe;stroke-linecap:round;stroke-linejoin:round"/><line x1="331.85" y1="203.97" x2="322.01" y2="203.97" style="fill:none;stroke:#fefefe;stroke-linecap:round;stroke-linejoin:round"/><line x1="324.06" y1="212.29" x2="329.52" y2="212.29" style="fill:none;stroke:#fefefe;stroke-linecap:round;stroke-linejoin:round"/><line x1="322.74" y1="217.69" x2="327.18" y2="217.69" style="fill:none;stroke:#fefefe;stroke-linecap:round;stroke-linejoin:round"/><path d="M346.91,224.22c.14-.23,4.26,0,4.26,0v7h-9" style="fill:none;stroke:#fefefe;stroke-linecap:round;stroke-linejoin:round"/><path d="M349.87,219c.17-.33,4.89,0,4.89,0s6.08-.42,9.23,3,5.17,7.76,6.63,11.92a68,68,0,0,1,2.25,8.1" style="fill:none;stroke:#fefefe;stroke-linecap:round;stroke-linejoin:round"/><polyline points="345.09 231.18 345.09 241.53 336.21 241.53 336.21 238.33" style="fill:none;stroke:#fefefe;stroke-linecap:round;stroke-linejoin:round"/><line x1="375.12" y1="241.98" x2="345.09" y2="241.53" style="fill:none;stroke:#fefefe;stroke-linecap:round;stroke-linejoin:round"/><line x1="351.17" y1="226.57" x2="371.18" y2="226.57" style="fill:none;stroke:#fefefe;stroke-linecap:round;stroke-linejoin:round"/><path d="M353,212.29s3.64.45,4,.45,6.53.91,9.45,4.95,4.27,6.09,6.41,14.51c1,3.91,2.15,8.21,3.31,12.75,1.34,5.24,2.69,10.81,3.77,16.48,2,10.57,3.15,15.07,3.15,15.07H385s-.33.11.68-.45,61.18,0,61.18,0,1.79-.22,1.91-1.12a227.14,227.14,0,0,1,9-35.43c6.08-17.43,11.14-23.95,12.82-25.41s2.81-2.59,11.47-2.59,64.1.79,76.47.56,28.4,0,28.4,0" style="fill:none;stroke:#fefefe;stroke-linecap:round;stroke-linejoin:round"/><path d="M332.27,248.27s.79-2.58,1.91-2.92,42-.4,42-.4" style="fill:none;stroke:#fefefe;stroke-linecap:round;stroke-linejoin:round"/><path d="M332.71,248.27l-.44,51.2-.44-51.2a.44.44,0,0,1,.88,0" style="fill:#fefefe"/><line x1="247.8" y1="225" x2="214.08" y2="224.1" style="fill:none;stroke:#fefefe;stroke-linecap:round;stroke-linejoin:round"/><line x1="247.14" y1="210.01" x2="206.03" y2="208.92" style="fill:none;stroke:#fefefe;stroke-linecap:round;stroke-linejoin:round"/><line x1="245.6" y1="202.48" x2="205.31" y2="201.92" style="fill:none;stroke:#fefefe;stroke-linecap:round;stroke-linejoin:round"/><line x1="248.04" y1="242.65" x2="237.97" y2="242.65" style="fill:none;stroke:#fefefe;stroke-linecap:round;stroke-linejoin:round"/><path d="M247.14,215.11s-14.39-.35-26.2-1-13.27-.9-13.27-.9" style="fill:none;stroke:#fefefe;stroke-linecap:round;stroke-linejoin:round"/><path d="M209.9,154c-.54,0-4.36.3-6.28,3.3s-5.39,11-5.17,18.41S206,187.1,206,187.1s.72.7,0,2.09-2.18,8.37-.72,17.25,8.37,19.34,18,26.43,10.27,8.54,10.27,8.54a6.52,6.52,0,0,0-2.6,1.24,16.74,16.74,0,0,0-5.48,8.25c-1.48,4.95-.69,5.7-.69,5.7a38.48,38.48,0,0,1-8-4.5c-4.38-3.15-19.57-13.25-30.59-37a78.78,78.78,0,0,1-6.58-22.77,92.65,92.65,0,0,1,3.66-40.21c4.72-14.4,14.51-28.57,19.68-33.29s5.28-3.94,6.3-4.28,7.08.12,10.68.68a61.45,61.45,0,0,1,11.7,3.37c1.12.68.67,1.47-.9,3s-3.83,5.51-6,8.77-6,7.09-10.44,10.8-6.87,5.28-7,7.53.44,3.52,1.23,4.12A12.11,12.11,0,0,1,209.9,154Z" style="fill:none;stroke:#fefefe;stroke-linecap:round;stroke-linejoin:round"/><path d="M336.46,118.91s1-1-1-3.22-16.3-15.18-31.15-20.47a101.22,101.22,0,0,0-47.12-5.06c-16.08,2.14-27.91,8.66-35.15,12.93a68,68,0,0,0-12.1,9.11s-1,.91,0,1.58a3.89,3.89,0,0,0,1.83.69" style="fill:none;stroke:#fefefe;stroke-linecap:round;stroke-linejoin:round"/><path d="M315.76,120.62s-2.49.77-3.62,0-2-2.8-9.33-6.17-17-7.76-33.49-7.19-26.79,6-29.82,7.64-3.94,2.7-5.18,2.93-3.38.47-3.38.47" style="fill:none;stroke:#fefefe;stroke-linecap:round;stroke-linejoin:round"/><path d="M209.9,112.2a66,66,0,0,1,14,1.24,28.55,28.55,0,0,1,10.45,4.39" style="fill:none;stroke:#fefefe;stroke-linecap:round;stroke-linejoin:round"/><path d="M311.15,119.72s4.14-2.79,12-3.24a62.85,62.85,0,0,1,13.19.49" style="fill:none;stroke:#fefefe;stroke-linecap:round;stroke-linejoin:round"/><path d="M248.16,246.14s-3-1.13-7.43-2.36a46.51,46.51,0,0,1-6.74-2.37s-2.05.89-5.74,7.43-2.79,8.21-2.79,8.21S244,267.39,264.8,267.73s35.37-6.07,37.7-7.09,3.35-.71,3.46-1.76-.92-1.83-2.86-6.33-2.59-5.67-3.21-7.76c-.36-1.19.11-1.35-.68-1.58s-5,1.8-8.1,2.37-6.4,1-6.4,1" style="fill:none;stroke:#fefefe;stroke-linecap:round;stroke-linejoin:round"/><line x1="206.73" y1="185.52" x2="204.66" y2="186.21" style="fill:none;stroke:#fefefe;stroke-linecap:round;stroke-linejoin:round"/><line x1="209.9" y1="154.04" x2="210.88" y2="155.15" style="fill:none;stroke:#fefefe;stroke-linecap:round;stroke-linejoin:round"/><line x1="332.84" y1="159.01" x2="334.03" y2="158.39" style="fill:none;stroke:#fefefe;stroke-linecap:round;stroke-linejoin:round"/><line x1="331.78" y1="189.52" x2="329.24" y2="189.19" style="fill:none;stroke:#fefefe;stroke-linecap:round;stroke-linejoin:round"/><path d="M302.44,313.19c0-9.86.2-29.66.32-39.51.29-1,.35-2.3-.39-3a6.43,6.43,0,0,0-2.82-1.35l-8.41,0c-2.81,0-5.61,0-8.41,0a6.07,6.07,0,0,0-4.85,5c-.55,10.57-1.77,31.85-2.42,42.41.38-10.59,1.21-31.86,1.68-42.44a7,7,0,0,1,5.59-5.79c2.8,0,5.6-.05,8.41,0l8.41,0a6.68,6.68,0,0,1,3.34,1.6c1,.82.85,2.88.55,3.53-.21,9.83-.7,29.65-1,39.49" style="fill:#fefefe"/><path d="M187.78,248.81s11.91,1,13.71-.09,4.54-5.35,4.54-5.35" style="fill:none;stroke:#fefefe;stroke-linecap:round;stroke-linejoin:round"/><path d="M187.34,248.81v-.24a.44.44,0,0,1,0-.14c-.27-.29,1.41,0,.83.06.07.63.08,1.75.11,2.4,0,1.62.18,6,.24,7.69s.38,3.3-.09,5c-2.93,15.78-9.28,49.45-12.3,65.55,2.49-13.51,8.75-47.53,11.13-60.55.22-1.2,1-5.51,1.21-6.63,0,0,0-.21,0-.21-.21,0,.31.07.25,0l0,0c-.33.34-.33-.51-.37-.68-.41-3.81-.68-8.65-1-12.45,0,0,0-.07,0,0-.58.1,1.09.32.82.05,0-.05,0-.15,0-.08a.45.45,0,1,1-.88.15" style="fill:#fefefe"/><path d="M209.62,247.19a.41.41,0,0,0,.72-.08c0-.21,0-.08,0-.05,0,.45.17,1.34.23,1.81,2.29,17.93,6,46.15,8.3,64.32-2.69-19.19-6.86-47.41-9.4-66.33,0-.17.31-.43.49-.38l.2,0a.44.44,0,0,1-.57.67" style="fill:#fefefe"/><path d="M188.67,261.77s10.67-.45,11.74,0,4.54.5,5.29-.2,5.18-6.25,5.18-6.25" style="fill:none;stroke:#fefefe;stroke-linecap:round;stroke-linejoin:round"/><path d="M201.92,248.67l1.7,13.38c0,.08-3.85,60.73-3.85,60.81s3.22-61,3.22-60.72l-1.94-13.36a.44.44,0,0,1,.87-.11" style="fill:#fefefe"/><polyline points="190.91 224.1 192.27 234.58 198.07 234.58" style="fill:none;stroke:#fefefe;stroke-linecap:round;stroke-linejoin:round"/><polyline points="187.78 248.81 187.78 244.23 192.27 234.58" style="fill:none;stroke:#fefefe;stroke-linecap:round;stroke-linejoin:round"/><path d="M203.31,240.63s-.7,2.33-1.82,2.74-2.08,1.84-7,1.58a41.58,41.58,0,0,1-6.71-.72" style="fill:none;stroke:#fefefe;stroke-linecap:round;stroke-linejoin:round"/><path d="M149.72,248.81c-5.41,5.2-7.16,12.51-7.83,16.56s-1.82,10.71,0,9.58,5.95-5.51,9.69-10.26c2.76-3.5,5.17-6.29,4.5-12.37s-2.25-5.77-3.38-5.47A10.87,10.87,0,0,0,149.72,248.81Z" style="fill:none;stroke:#fefefe;stroke-linecap:round;stroke-linejoin:round"/><path d="M150.88,240.63c-2.33,1.66-7.11,5.17-10,16.87s-4,19.11-3.52,20.46,4.5-1.35,4.5-1.35,12.14-9.09,15.74-14.89,4.73-14,4.5-17.49-1.58-5.85-3.6-6.53S150.88,240.63,150.88,240.63Z" style="fill:none;stroke:#fefefe;stroke-linecap:round;stroke-linejoin:round"/><path d="M160.55,201.41C167.08,190,170,185.87,170,185.87s0-2.37-1.12-2.59-7,1.43-10.35,3.41-7.29,6.93-8.71,9.4-1.77,3.42-2.49,4.57" style="fill:none;stroke:#fefefe;stroke-linecap:round;stroke-linejoin:round"/><path d="M160.36,201c1.25.52.33.63.6.56,0,0,0,.1-.05.13-.22.44-.64,1.2-.88,1.65-19.4,34.67-41,73.19-61.23,107.35,17.56-29.95,37-65.31,53.88-95.72,2.14-3.92,5.44-9.8,7.45-13.7.28-.08-.63,0,.62.51a.44.44,0,0,1-.39-.78" style="fill:#fefefe"/><path d="M179.43,191s-7.63-4.75-7.86-5.43-2.69-2.24-2.69-2.24" style="fill:none;stroke:#fefefe;stroke-linecap:round;stroke-linejoin:round"/><path d="M190,136.85s-11.71,4.37-15.87,9.77S168.43,159,170,169.33a83,83,0,0,0,5.48,19.09c-.22-.52-5.59-20-3.57-29.07s5.59-11.16,7.52-12.4a56.07,56.07,0,0,1,7.11-3.15" style="fill:none;stroke:#fefefe;stroke-linecap:round;stroke-linejoin:round"/><path d="M216.61,106.65s-19.62,4.43-31.77,15.67-19.56,30.74-25,44.72-11.83,32.47-11.83,32.47" style="fill:none;stroke:#fefefe;stroke-linecap:round;stroke-linejoin:round"/><path d="M137.67,225.68,72.93,330.21l64-105a.44.44,0,0,1,.75.46" style="fill:#fefefe"/><path d="M148.52,202.51l-.47,1.79c-.47,1.8-.43,1.92-3.8,7.88s-8.89,10-9.45,11.24,1.8,2.36,2.49,2A43.1,43.1,0,0,0,145,217.8c3.37-4.16,6.4-13.16,6.29-14.84s-2.78-1-2.78-1-7.9-8.07-8.69-10.1-2.81-8.21-4.5-9.78-15.4-4.16-27-2.7S82.17,188.85,78,191s-7.8,4.5-7.8,4.5" style="fill:none;stroke:#fefefe;stroke-linecap:round;stroke-linejoin:round"/><path d="M126.25,198.46c1.44,5.91,3.49,15.52,1.47,18.1s-8.78,6.64-36.1,6.3S57.77,217.57,55.86,212s9-14.08,22.71-17.43a112.51,112.51,0,0,1,19.93-3.59,125.79,125.79,0,0,1,17.86-.79C119.17,190.14,124.23,190.09,126.25,198.46Z" style="fill:none;stroke:#fefefe;stroke-linecap:round;stroke-linejoin:round"/><path d="M123.81,199.47c1.31,5,3.19,13.15,1.33,15.34s-8,5.62-33,5.33-30.95-4.47-32.7-9.24S67.65,199,80.2,196.14a110.05,110.05,0,0,1,18.22-3,124.39,124.39,0,0,1,16.34-.67C117.33,192.42,122,192.38,123.81,199.47Z" style="fill:none;stroke:#fefefe;stroke-linecap:round;stroke-linejoin:round"/><path d="M55.64,209.37s-.12-8.55,18.21-15.41,38.91-6.07,42.62-6.07a12.16,12.16,0,0,1,8.21,3.06c1.69,1.55,3,7.1,3.88,10.84s1.18,4.7,1.18,4.7,3.15-5,5.62-6.23S146,209,146,209" style="fill:none;stroke:#fefefe;stroke-linecap:round;stroke-linejoin:round"/><path d="M124.68,191s4.41-5.78,6.86-7.7,3.82-1.21,3.82-1.21" style="fill:none;stroke:#fefefe;stroke-linecap:round;stroke-linejoin:round"/><line x1="122.67" y1="219.76" x2="134.8" y2="223.42" style="fill:none;stroke:#fefefe;stroke-linecap:round;stroke-linejoin:round"/><path d="M219.43,136.61s37.5-4.84,58-5.85S318,129.12,318,129.12" style="fill:none;stroke:#fefefe;stroke-linecap:round;stroke-linejoin:round"/><path d="M225.46,129.35s30.91-4.21,55.87-5.9,32.37-1.36,32.37-1.36" style="fill:none;stroke:#fefefe;stroke-linecap:round;stroke-linejoin:round"/><path d="M339.82,121c-.12-.15,49.36-1,79.27,0s53.53,2.49,80.18,5,53,5.74,74.67,11.25,28.34,11.13,30.59,13.49,5.73,9.45,3.71,16.42-5.85,12.15-6.86,16.87-1.69,9.22-1.69,9.22" style="fill:none;stroke:#fefefe;stroke-linecap:round;stroke-linejoin:round"/><path d="M344.86,127.13s57.81.14,78.95.82,77,2.7,111.67,7.64,51.39,9.23,60,12.82,10.8,9.9,11.36,12.26-.34,6.86-1.8,11a99.91,99.91,0,0,0-3.27,10.64" style="fill:none;stroke:#fefefe;stroke-linecap:round;stroke-linejoin:round"/><path d="M487,180.88c.6-.15,110.81,6.44,110.81,6.44s-12.59-13.94-45-21.14-65.08-17.69-118.16-20.24-79.92-.48-79.92-.48" style="fill:none;stroke:#fefefe;stroke-linecap:round;stroke-linejoin:round"/><path d="M358,155.76s7.39-1.78,15.9-3.07c14.84-2.25,55.33-1.2,55.33-1.2s27.29.75,41.68,9.14,17.24,26.69,17.24,26.69l-1.95,3.15s-4.49-21.44-21.44-28.34c-12.4-5-25.19-6.89-41.68-7.4-13.65-.41-23.58.39-32.24.62-4.71.12-13.86,1.05-21.29,2.14a91.33,91.33,0,0,0-10.66,2.24" style="fill:none;stroke:#fefefe;stroke-linecap:round;stroke-linejoin:round"/><path d="M358,196.88s38.84,1.09,71.83,1.54,38.83.75,45.13-4.2l6.3-4.95s-5.73-13.9-19.5-18.41c-14.84-4.86-32.53-7.23-53.07-6.78s-25.64.6-35.84,2.7-12.35,3.49-12.35,3.49" style="fill:none;stroke:#fefefe;stroke-linecap:round;stroke-linejoin:round"/><path d="M454.29,198.65s14.16,1.42,22-1.73,10-6.45,10-6.45l-4.94-1.2" style="fill:none;stroke:#fefefe;stroke-linecap:round;stroke-linejoin:round"/><path d="M355.93,204.47s9,1.6,12,6.09,5.33,9.47,9,22.8c4.5,16.34,9.29,42,9.29,42" style="fill:none;stroke:#fefefe;stroke-linecap:round;stroke-linejoin:round"/><path d="M448.09,275.69s9.51-44.91,17.74-59.28c6.45-11.25,15.45-11,21-10.94,7.38,0,73.92.08,74.52,0a65.48,65.48,0,0,1,13.2.49,84.12,84.12,0,0,1,13.08,2.88" style="fill:none;stroke:#fefefe;stroke-linecap:round;stroke-linejoin:round"/><path d="M557.9,259.74c3.74-8.09,8.09-17.06,9.29-19.25s1.5-1.89,2.4-2,13.65,0,13.65,0,1.2-8.09,2.1-15.74S588,204,591.18,197.22s6.6-9.9,6.6-9.9l-1,8.32" style="fill:none;stroke:#fefefe;stroke-linecap:round;stroke-linejoin:round"/><path d="M558.31,259.91c-4.54,19.8-10,42.38-13.82,62.27,3.08-17.39,7.59-37.41,11.26-54.74.27-1.24,1-4.63,1.28-5.85.14-.65.27-1.27.46-2a.43.43,0,0,1,.53-.31.46.46,0,0,1,.29.64" style="fill:#fefefe"/><path d="M586.25,265.57c1,17.14,1.79,42.44,3.3,59.31-.9-8.51-1.58-20.95-2.19-29.62l-2-29.64a.44.44,0,0,1,.88-.05" style="fill:#fefefe"/><path d="M570,265.48c-1.51,16-3.46,39.6-5.22,55.35,1.5-15.7,3.09-39.48,4.34-55.42a.44.44,0,0,1,.88.07" style="fill:#fefefe"/><path d="M561.61,251.85s4.68,9.69,5.88,11.49a5.71,5.71,0,0,0,3.15,2.25h15.17l2.67-12.44v-1.3l-15.64.05-3.25,13.54" style="fill:none;stroke:#fefefe;stroke-linecap:round;stroke-linejoin:round"/><polyline points="565.79 243.22 572.84 251.9 573.87 247.56" style="fill:none;stroke:#fefefe;stroke-linecap:round;stroke-linejoin:round"/><path d="M583.24,238.45s4.64,7.65,4,8.25-11.17,1-12.17.86c-1.59-.2-.43.64-3.65-3.55-2.59-3.37-2.68-5.41-2.68-5.41" style="fill:none;stroke:#fefefe;stroke-linecap:round;stroke-linejoin:round"/><path d="M588.48,251.85c.45-.8-1.27-5.15-1.27-5.15" style="fill:none;stroke:#fefefe;stroke-linecap:round;stroke-linejoin:round"/><path d="M636.61,273.79s-4-16.14-8.39-23.64-9.75-8-12.3-7.13-4,12.68-3.75,16a17,17,0,0,0,6.15,11.54c4.35,3.6,13.65,17.24,15.15,16.49s2.85-3.74,3.14-8.09S636.61,273.79,636.61,273.79Z" style="fill:none;stroke:#fefefe;stroke-linecap:round;stroke-linejoin:round"/><path d="M617.3,256.15c.32-1.68.42-4.95,3.42-5.25s8.55,9.74,10.95,16.79a26.78,26.78,0,0,1,1.2,13.35c-.15,1-4.89-2.55-7.4-6.3s-4.22-5-6.85-9.85A14.93,14.93,0,0,1,617.3,256.15Z" style="fill:none;stroke:#fefefe;stroke-linecap:round;stroke-linejoin:round"/><path d="M603.63,191.07a31.72,31.72,0,0,0-7.5,5.4c-4.2,3.9-8.06,9.57-8.85,13.84" style="fill:none;stroke:#fefefe;stroke-linecap:round;stroke-linejoin:round"/><path d="M614.79,209.17c3.61,7,20.61,38.79,23.57,45.27,15.4,31.83,33.23,69.48,48.58,101.26-15.5-31.67-33.56-69.27-49.12-101-2.92-6.31-20.28-38.39-23.82-45.15a.44.44,0,1,1,.79-.39" style="fill:#fefefe"/><path d="M625.16,206.22a22.07,22.07,0,0,0-6-10.91c-4.83-4.61-9.61-6.3-12.14-6.69s-3.43.35-3.43,1.4v1.3a163.82,163.82,0,0,1,10.77,18" style="fill:none;stroke:#fefefe;stroke-linecap:round;stroke-linejoin:round"/><path d="M638.48,233.5s-2.06-3.37-2.61-3.56a11.35,11.35,0,0,1-4.52-3.14c-2.87-3.1-7.93-10-9-14.51s.62-5.12,1.41-5.34a2,2,0,0,1,1.29,0,7.47,7.47,0,0,0,.62,4c1,2.36,6.24,11,9.16,13.72l3.83,3.6a9.37,9.37,0,0,1-.9,1.18,1.86,1.86,0,0,1-1.35.66" style="fill:none;stroke:#fefefe;stroke-linecap:round;stroke-linejoin:round"/><path d="M638.86,233.3C656.92,267,683,317.25,701.49,350.15c-9.39-16.32-22.93-41.29-31.93-58.1l-31.47-58.34a.44.44,0,1,1,.77-.41" style="fill:#fefefe"/><path d="M650.55,225.05s-2.5.68-5.82,1.46a45.41,45.41,0,0,0-6.25,2" style="fill:none;stroke:#fefefe;stroke-linecap:round;stroke-linejoin:round"/><path d="M625.05,207c.17-.34,4.72-4.95,6.19-6.81s3.31-3.6,4.72-6.91,1.21-5,2.52-5.62,22-6.19,43.64,3.76c15.75,7.24,24.68,12.61,29.44,16.83a18.32,18.32,0,0,1,3.74,4.31c2.75,4.78-.06,9.62-5.91,12S687,229,673.8,228.93s-18.5-2.08-20.47-2.75-7.42-2.31-7-8.44,2.34-17.49,6.37-20.6c4.42-3.39,17.91-2.18,31.34.08a67.05,67.05,0,0,1,28,11.49" style="fill:none;stroke:#fefefe;stroke-linecap:round;stroke-linejoin:round"/><path d="M651.46,204A69.45,69.45,0,0,0,649,214.54c-.52,4.5-.67,7.12,3.68,9s16,4.2,32.31,2.55,23.09-3.6,25.79-5.62,3.22-4.65,1.2-7.5-9-9.74-29.31-12.52-24.82-1.95-26.69-1.27-2.55,1.12-3.3,2.1A9.14,9.14,0,0,0,651.46,204Z" style="fill:none;stroke:#fefefe;stroke-linecap:round;stroke-linejoin:round"/><path d="M716.36,215.66s-.13-6.07-15.35-11.92a108.28,108.28,0,0,0-33.43-6.9c-5.62-.37-10.72-.09-13.5,1-2.41.93-4.35,3.83-4.35,3.83" style="fill:none;stroke:#fefefe;stroke-linecap:round;stroke-linejoin:round"/><path d="M416.16,276.51c-1.12.89-1.34,4.26-1.68,8.54s0,8.32.84,8.32a4.85,4.85,0,0,0,3.32-1.75c.67-1.06,1.12-7.81.67-11.07s-.67-4-1.35-4Z" style="fill:none;stroke:#fefefe;stroke-linecap:round;stroke-linejoin:round"/><path d="M423,280a13.52,13.52,0,0,0-3.64,7.1c-.18,2.06-2.54,5.38-1.42,6.28s7.31,2.92,9.34,3.49,8.1.56,8.1.56,3.82-5.85,4.16-8.1-2-4.38-4.84-6.52-7.42-2.14-9.22-2.81S423,280,423,280Z" style="fill:none;stroke:#fefefe;stroke-linecap:round;stroke-linejoin:round"/><path d="M419.19,278.22l25.32.55a7.52,7.52,0,0,1,2.91.35c1.88,1,2.13,3.34,2,5.24l-.18,11.26c0-.05-.07,1.8-.06,1.8s-.29-1.79-.29-1.8l0-11.26c.15-2-.48-5.08-3-4.94l-26.75-.32a.44.44,0,0,1,0-.88" style="fill:#fefefe"/><path d="M414.9,278a.44.44,0,0,0,.31.55h-.14c-1.93-.09-5.06-.1-7-.13-4.64,0-17.06-.1-21.85-.12a2.42,2.42,0,0,0-2.89,2.18c-.47,4.28-.45,8.61-.54,12.91,0-4.32-.1-8.64.29-12.94a2.73,2.73,0,0,1,3.17-2.48c4.76-.07,17.16-.25,21.82-.29,1.88,0,5-.05,6.83,0,.21,0,.49,0,.69.12a.44.44,0,1,1-.67.23" style="fill:#fefefe"/><path d="M378.57,252.9,377,295.62l.66-42.74a.44.44,0,0,1,.88,0" style="fill:#fefefe"/><path d="M309.93,257.79c.45-.23,22.34-5.35,22.34-5.35" style="fill:none;stroke:#fefefe;stroke-linecap:round;stroke-linejoin:round"/><path d="M496.68,278.12c.34,3.55.15,37.09.15,37.09" style="fill:none;stroke:#fefefe;stroke-linecap:round;stroke-linejoin:round"/><path d="M452.32,257.51c.39-.24,12.43,3.58,27.27,9.66s15.52,7.42,15.52,7.42,1.24,0,1.57,3.53" style="fill:none;stroke:#fefefe;stroke-linecap:round;stroke-linejoin:round"/><path d="M538.12,260.12l-10.19,60.71L537.26,260a.44.44,0,0,1,.86.14" style="fill:#fefefe"/><path d="M456.59,243c.4-.59,9.28,0,9.28,0s.68-.26,1.35,3.68,2.57,9.33,7.36,11.58,11,1.8,11,1.8,56.34-.15,56.68,0,7,0,11.24-3.41,7.76-13.38,9-14.51,4.17-.67,4.17-.67" style="fill:none;stroke:#fefefe;stroke-linecap:round;stroke-linejoin:round"/><path d="M470,237.37s1.73,6.49,3.08,10.22,3.82,7.54,8.54,7.88,58.71-.45,59,0,7.54.11,11-2.25,6.08-11.69,7.54-14.62,2.47-6.63,1.69-7.42-83,.11-83.33,0-4.39-.22-6.53,1.35S470,237.37,470,237.37Z" style="fill:none;stroke:#fefefe;stroke-linecap:round;stroke-linejoin:round"/><path d="M544.48,237.25l8.88-2.81a41,41,0,0,0,7.53-3.26" style="fill:none;stroke:#fefefe;stroke-linecap:round;stroke-linejoin:round"/><path d="M470.32,238.6s.27-1.57,2.64-2,68.59,0,68.59,0,3.15-.34,2.93,2a40.87,40.87,0,0,1-3,10.12c-1,1.8-1.46,3.72-3.94,4.17s-8.77.78-8.77.78H477" style="fill:none;stroke:#fefefe;stroke-linecap:round;stroke-linejoin:round"/><path d="M462.86,226.7c.06-.13,22.69.66,22.69.66l99.3-.68" style="fill:none;stroke:#fefefe;stroke-linecap:round;stroke-linejoin:round"/><path d="M487.35,211.54s.11,3.67,0,7.72-.56,7.76-.56,7.76" style="fill:none;stroke:#fefefe;stroke-linecap:round;stroke-linejoin:round"/><path d="M551.11,212.1a75.2,75.2,0,0,1,0,8.06c-.22,4.84-.45,6.86-.45,6.86" style="fill:none;stroke:#fefefe;stroke-linecap:round;stroke-linejoin:round"/><path d="M575.51,212a62.29,62.29,0,0,1,0,8.75c-.33,4.84-.47,6-.47,6" style="fill:none;stroke:#fefefe;stroke-linecap:round;stroke-linejoin:round"/><path d="M393.22,208.8l50.83.56s4.49-.22,5.79,1.58,1.41,3.15,1.19,6.63-1.8,19.68-4.16,24.41-5.18,7.31-9.68,7.64-33.17,0-33.17,0-10.12-.22-13.72-3.26-3.67-10.79-4.09-15.07-.52-16-.52-16-.23-4.16,2.36-5.51A9.72,9.72,0,0,1,393.22,208.8Z" style="fill:none;stroke:#fefefe;stroke-linecap:round;stroke-linejoin:round"/><path d="M404.13,215.1s-1,15.86-.9,21.93,1.24,8.43,3.71,9.11,19.8,0,19.8,0a4.73,4.73,0,0,0,4.61-2.89C433,240,433,216.56,433,216.56s.57-3.15-1.12-4.05-24.07-1-24.07-1a4.12,4.12,0,0,0-2.81.86A3.37,3.37,0,0,0,404.13,215.1Z" style="fill:none;stroke:#fefefe;stroke-linecap:round;stroke-linejoin:round"/><path d="M450.21,211.5c-.37-.56-6.49,3.15-9.08,5.06s-3.6,3.15-4.27,9.34-1.46,18.44-2.48,20.13a17.89,17.89,0,0,1-3.82,3.73" style="fill:none;stroke:#fefefe;stroke-linecap:round;stroke-linejoin:round"/><path d="M386.71,211.06c0,.08,7.08,3,9.55,5.5s2.64,3.71,2.78,8.77.59,14.46.48,15.16.23,4.56,1.24,5.95,2.46,3.15,2.46,3.15" style="fill:none;stroke:#fefefe;stroke-linecap:round;stroke-linejoin:round"/><line x1="434.61" y1="245.47" x2="444.72" y2="245.47" style="fill:none;stroke:#fefefe;stroke-linecap:round;stroke-linejoin:round"/><path d="M435.07,243.25l8.76-1.27s2.14-.5,2.59-1.49a15.56,15.56,0,0,0,.67-3.35l-11.34.52" style="fill:none;stroke:#fefefe;stroke-linecap:round;stroke-linejoin:round"/><path d="M436,234.88l9.28-1.56a4.11,4.11,0,0,0,2.8-2.46c.57-1.93,0-2.72,0-2.72H436.63" style="fill:none;stroke:#fefefe;stroke-linecap:round;stroke-linejoin:round"/><path d="M436.92,225.31l10.17-1.21a3.6,3.6,0,0,0,2-2.7,13.89,13.89,0,0,0,0-4.05l-10.38,1.51" style="fill:none;stroke:#fefefe;stroke-linecap:round;stroke-linejoin:round"/><path d="M398.07,218.86l-10.13-1.51v5s.22.9,3.37,1.57a45.33,45.33,0,0,0,7.73.68" style="fill:none;stroke:#fefefe;stroke-linecap:round;stroke-linejoin:round"/><path d="M399,234.88l-9.1-2.39a2.67,2.67,0,0,1-2-2.59v-2.54H399" style="fill:none;stroke:#fefefe;stroke-linecap:round;stroke-linejoin:round"/><path d="M399.73,243.25l-9-1.81a3.28,3.28,0,0,1-1.91-2.27,4,4,0,0,1,0-2s.34-.74,2-.76,8.58,0,8.58,0" style="fill:none;stroke:#fefefe;stroke-linecap:round;stroke-linejoin:round"/><rect x="406.61" y="219.28" width="7.2" height="3.58" style="fill:none;stroke:#fefefe;stroke-linecap:round;stroke-linejoin:round"/><path d="M420.42,219.42a1.91,1.91,0,0,0-2,2.79c.2.48.87.58,1.63.62,2.18.12,2.37-2,1.58-2.67A3.62,3.62,0,0,0,420.42,219.42Z" style="fill:none;stroke:#fefefe;stroke-linecap:round;stroke-linejoin:round"/><path d="M405.37,232.54v3.83s-.45,2.35,1.24,2.8a27.17,27.17,0,0,0,3.93.64,1.66,1.66,0,0,0,1.35-1.88c-.22-1.58-1.35-3-.56-5.4s.94-2.71.58-3.55-1.1-.28-3.2,0a4.41,4.41,0,0,0-1.71.63A3.43,3.43,0,0,0,405.37,232.54Z" style="fill:none;stroke:#fefefe;stroke-linecap:round;stroke-linejoin:round"/><path d="M430.56,235.9s-.05,2.82-1.94,3.15l-2.75.51a1.75,1.75,0,0,1-2-2.36.14.14,0,0,0,0-.06c.9-2,1.13-4.51.68-5.63s-1.69-1.91-.23-2.53,4.5-.16,5.51.29.68,2,.68,3.6Z" style="fill:none;stroke:#fefefe;stroke-linecap:round;stroke-linejoin:round"/><path d="M414,244.29a3.94,3.94,0,0,0,2.15.54c1.39,0,3.95.12,3.95.12a3.25,3.25,0,0,0,2.45-1.7,3.22,3.22,0,0,0,0-3.06c-.33-1-2.14.06-2.92.3s-3.6.54-4.33,0-1.4-1.18-2.42-.3-.33,2.19,0,3.06A2.72,2.72,0,0,0,414,244.29Z" style="fill:none;stroke:#fefefe;stroke-linecap:round;stroke-linejoin:round"/><line x1="403.6" y1="224.55" x2="432.93" y2="224.96" style="fill:none;stroke:#fefefe;stroke-linecap:round;stroke-linejoin:round"/><rect x="408.71" y="213.34" width="1.05" height="2.32" style="fill:none;stroke:#fefefe;stroke-linecap:round;stroke-linejoin:round"/><rect x="412.1" y="213.34" width="0.27" height="2.32" style="fill:none;stroke:#fefefe;stroke-linecap:round;stroke-linejoin:round"/><rect x="415.08" y="213.34" width="0.38" height="2.32" style="fill:none;stroke:#fefefe;stroke-linecap:round;stroke-linejoin:round"/><rect x="418.17" y="213.64" width="0.23" height="2.02" style="fill:none;stroke:#fefefe;stroke-linecap:round;stroke-linejoin:round"/><rect x="421.3" y="213.64" width="0.38" height="2.02" style="fill:none;stroke:#fefefe;stroke-linecap:round;stroke-linejoin:round"/><rect x="424.07" y="213.34" width="0.45" height="2.32" style="fill:none;stroke:#fefefe;stroke-linecap:round;stroke-linejoin:round"/><rect x="426.4" y="213.64" width="0.75" height="2.47" style="fill:none;stroke:#fefefe;stroke-linecap:round;stroke-linejoin:round"/><path d="M422,235.23a4.12,4.12,0,1,1-4.12-4.11A4.12,4.12,0,0,1,422,235.23Z" style="fill:none;stroke:#fefefe;stroke-linecap:round;stroke-linejoin:round"/><path d="M423.68,234.7a5.9,5.9,0,1,1-5.9-5.79A5.84,5.84,0,0,1,423.68,234.7Z" style="fill:none;stroke:#fefefe;stroke-linecap:round;stroke-linejoin:round"/><path d="M389.45,245.47c.59-.19,10.82,0,10.82,0" style="fill:none;stroke:#fefefe;stroke-linecap:round;stroke-linejoin:round"/><path d="M389.45,201.83l57.64.45s4.51-.34,5.23,2.19.63,3.1,0,11.64-4.78,42.69-4.78,42.77-.23,2.66-1.8,2.78-56.37,0-56.37,0-2.86.63-3.16-2.78-1.76-51.31-1.76-51.31c-.06-2.28.31-3.55,1.23-4.61S389.45,201.83,389.45,201.83Z" style="fill:none;stroke:#fefefe;stroke-linecap:round;stroke-linejoin:round"/><path d="M368.15,195.53c0-.33-2.59-14.95,11.24-19.79s21.59,5.17,23.39,9.9.82,10.57.82,10.57" style="fill:none;stroke:#fefefe;stroke-linecap:round;stroke-linejoin:round"/><line x1="372.87" y1="184.85" x2="370.11" y2="183.35" style="fill:none;stroke:#fefefe;stroke-linecap:round;stroke-linejoin:round"/><line x1="376.18" y1="180.8" x2="374.01" y2="178.66" style="fill:none;stroke:#fefefe;stroke-linecap:round;stroke-linejoin:round"/><line x1="380.4" y1="178.66" x2="379.39" y2="175.74" style="fill:none;stroke:#fefefe;stroke-linecap:round;stroke-linejoin:round"/><line x1="385.68" y1="177.2" x2="385.68" y2="174.47" style="fill:none;stroke:#fefefe;stroke-linecap:round;stroke-linejoin:round"/><line x1="390.41" y1="178.66" x2="392.07" y2="175.39" style="fill:none;stroke:#fefefe;stroke-linecap:round;stroke-linejoin:round"/><line x1="394.97" y1="181.34" x2="397.68" y2="178.66" style="fill:none;stroke:#fefefe;stroke-linecap:round;stroke-linejoin:round"/><line x1="371.18" y1="190.02" x2="368.1" y2="190.02" style="fill:none;stroke:#fefefe;stroke-linecap:round;stroke-linejoin:round"/><line x1="371.07" y1="195.2" x2="368.15" y2="195.2" style="fill:none;stroke:#fefefe;stroke-linecap:round;stroke-linejoin:round"/><line x1="398.62" y1="184.85" x2="401.65" y2="183.35" style="fill:none;stroke:#fefefe;stroke-linecap:round;stroke-linejoin:round"/><path d="M387.05,193.41a1.14,1.14,0,1,1-1.14-1.14A1.14,1.14,0,0,1,387.05,193.41Z" style="fill:none;stroke:#fefefe;stroke-linecap:round;stroke-linejoin:round"/><path d="M376.18,184.85c.4-.45,9.4,7.42,9.4,7.42l-.68,1.14Z" style="fill:none;stroke:#fefefe;stroke-linecap:round;stroke-linejoin:round"/><path d="M433.36,194.3a1.13,1.13,0,1,1,1.22-1A1.13,1.13,0,0,1,433.36,194.3Z" style="fill:none;stroke:#fefefe;stroke-linecap:round;stroke-linejoin:round"/><path d="M442.76,184.16c.41.43-8.15,8.77-8.15,8.77l-1.08-.77Z" style="fill:none;stroke:#fefefe;stroke-linecap:round;stroke-linejoin:round"/><path d="M418.64,195.2l-2.46.33c0-.33-2.58-14.95,11.25-19.79s21.59,5.17,23.39,9.9.82,10.57.82,10.57" style="fill:none;stroke:#fefefe;stroke-linecap:round;stroke-linejoin:round"/><line x1="421.3" y1="184.85" x2="418.29" y2="183.09" style="fill:none;stroke:#fefefe;stroke-linecap:round;stroke-linejoin:round"/><line x1="424.26" y1="180.8" x2="422.04" y2="178.67" style="fill:none;stroke:#fefefe;stroke-linecap:round;stroke-linejoin:round"/><line x1="428.98" y1="178.66" x2="427.95" y2="175.57" style="fill:none;stroke:#fefefe;stroke-linecap:round;stroke-linejoin:round"/><line x1="433.98" y1="177.68" x2="433.78" y2="174.47" style="fill:none;stroke:#fefefe;stroke-linecap:round;stroke-linejoin:round"/><line x1="436.44" y1="176.97" x2="436.87" y2="174.78" style="fill:none;stroke:#fefefe;stroke-linecap:round;stroke-linejoin:round"/><line x1="441.69" y1="178.66" x2="442.77" y2="176.69" style="fill:none;stroke:#fefefe;stroke-linecap:round;stroke-linejoin:round"/><line x1="445.97" y1="182.08" x2="447.53" y2="180.8" style="fill:none;stroke:#fefefe;stroke-linecap:round;stroke-linejoin:round"/><line x1="448.78" y1="186.87" x2="450.99" y2="186.12" style="fill:none;stroke:#fefefe;stroke-linecap:round;stroke-linejoin:round"/><line x1="438.69" y1="178.66" x2="439.83" y2="175.29" style="fill:none;stroke:#fefefe;stroke-linecap:round;stroke-linejoin:round"/><line x1="443.27" y1="180.99" x2="445.24" y2="178.26" style="fill:none;stroke:#fefefe;stroke-linecap:round;stroke-linejoin:round"/><line x1="446.45" y1="185.07" x2="449.53" y2="183.09" style="fill:none;stroke:#fefefe;stroke-linecap:round;stroke-linejoin:round"/><line x1="448.06" y1="190.02" x2="451.71" y2="189.27" style="fill:none;stroke:#fefefe;stroke-linecap:round;stroke-linejoin:round"/><line x1="448.34" y1="195.2" x2="451.71" y2="195.2" style="fill:none;stroke:#fefefe;stroke-linecap:round;stroke-linejoin:round"/><line x1="420.11" y1="190.02" x2="416.23" y2="189.32" style="fill:none;stroke:#fefefe;stroke-linecap:round;stroke-linejoin:round"/><line x1="422.04" y1="182.33" x2="419.96" y2="180.68" style="fill:none;stroke:#fefefe;stroke-linecap:round;stroke-linejoin:round"/><line x1="419.35" y1="186.87" x2="417.02" y2="186.27" style="fill:none;stroke:#fefefe;stroke-linecap:round;stroke-linejoin:round"/><line x1="418.29" y1="192.61" x2="415.99" y2="192.61" style="fill:none;stroke:#fefefe;stroke-linecap:round;stroke-linejoin:round"/><line x1="426.4" y1="178.67" x2="425.15" y2="176.69" style="fill:none;stroke:#fefefe;stroke-linecap:round;stroke-linejoin:round"/><line x1="431.46" y1="176.95" x2="431.04" y2="174.78" style="fill:none;stroke:#fefefe;stroke-linecap:round;stroke-linejoin:round"/><line x1="619.2" y1="195.31" x2="608.51" y2="166" style="fill:none;stroke:#fefefe;stroke-linecap:round;stroke-linejoin:round"/><path d="M601,147.7s-9.35-19.53-25.61-28.3-37-11-47.74-11.69-17.1-.45-29.24,0S476,109.06,476,109.06" style="fill:none;stroke:#fefefe;stroke-linecap:round;stroke-linejoin:round"/><path d="M566.64,135.44s-14.31-15.24-30.49-21.66-33.54-6.23-33.54-6.23" style="fill:none;stroke:#fefefe;stroke-linecap:round;stroke-linejoin:round"/><path d="M541.37,130.83s-9-6.28-25.23-12.79-22.94-7.19-29.92-8.09l-7-.9" style="fill:none;stroke:#fefefe;stroke-linecap:round;stroke-linejoin:round"/><path d="M523.85,128.5S492.46,110.85,476,109.05s-35.57-1.77-35.57-1.77a76,76,0,0,0-8.08-2c-4.56-.9-6.59-.67-11.31,0s-60.8-1.12-68-1.12c-4.46,0-5.66-1.35-9.71-1.35-4.44,0-7.81,2.53-11.55,2.76s-7.72.65-7.72.65" style="fill:none;stroke:#fefefe;stroke-linecap:round;stroke-linejoin:round"/><path d="M229.83,128.5s8.77-7.09,23.84-13.49,23.84-7.61,23.84-7.61" style="fill:none;stroke:#fefefe;stroke-linecap:round;stroke-linejoin:round"/><path d="M246.13,126.79a125,125,0,0,1,19.53-11.16,111.94,111.94,0,0,1,20-7.15" style="fill:none;stroke:#fefefe;stroke-linecap:round;stroke-linejoin:round"/></g></svg>